<svg width="76" height="31" viewBox="0 0 76 31" fill="none" xmlns="http://www.w3.org/2000/svg">
<path d="M71.7308 31.0003C70.3681 31.0003 69.3082 30.6198 68.5511 29.8589C67.8243 29.098 67.4609 28.0174 67.4609 26.6173C67.4609 25.339 67.8546 24.2889 68.642 23.4671C69.4293 22.6453 70.4589 22.2344 71.7308 22.2344C73.0632 22.2344 74.108 22.6148 74.865 23.3758C75.6221 24.1367 76.0006 25.2172 76.0006 26.6173C76.0006 27.8957 75.6069 28.9458 74.8196 29.7676C74.0322 30.5894 73.0026 31.0003 71.7308 31.0003Z" fill="#F9BE51"/>
<path d="M55.5233 30.9554C53.131 30.9554 50.9809 30.4075 49.0731 29.3118C47.1956 28.2161 45.7118 26.7246 44.6216 24.8375C43.5314 22.92 42.9863 20.7437 42.9863 18.3088C42.9863 15.8738 43.5314 13.7127 44.6216 11.8256C45.7118 9.9081 47.1956 8.40146 49.0731 7.30572C50.9809 6.20998 53.131 5.66211 55.5233 5.66211C57.7036 5.66211 59.7023 6.01214 61.5192 6.71219C63.3665 7.41225 64.8352 8.41668 65.9253 9.72548L61.3375 15.2042C61.0044 14.778 60.5805 14.3976 60.0657 14.0628C59.5509 13.6975 58.9755 13.4236 58.3396 13.241C57.7339 13.0279 57.0526 12.9214 56.2955 12.9214C55.2962 12.9214 54.418 13.1497 53.6609 13.6062C52.9039 14.0628 52.3133 14.702 51.8894 15.5238C51.4957 16.3151 51.2989 17.2282 51.2989 18.2631C51.2989 19.298 51.4957 20.2111 51.8894 21.0025C52.2831 21.7938 52.8584 22.433 53.6155 22.92C54.4028 23.407 55.2962 23.6505 56.2955 23.6505C57.0526 23.6505 57.7339 23.5592 58.3396 23.3766C58.9755 23.1939 59.5357 22.9352 60.0202 22.6004C60.535 22.2656 60.9741 21.8699 61.3375 21.4134L65.9253 26.9377C64.8049 28.2161 63.321 29.2053 61.4738 29.9053C59.6569 30.6054 57.6734 30.9554 55.5233 30.9554Z" fill="#F9BE51"/>
<path d="M29.0227 30.4981V0H37.4715V30.4981H29.0227ZM25.0254 13.3771V6.16353H41.6959V13.3771H25.0254Z" fill="#F9BE51"/>
<path d="M13.4 30.9554C10.6443 30.9554 8.26713 30.4228 6.26848 29.3575C4.26983 28.2617 2.72543 26.7703 1.63526 24.8832C0.545085 22.9657 0 20.7894 0 18.3544C0 16.5282 0.302825 14.8389 0.908475 13.2866C1.51413 11.7343 2.36204 10.3951 3.45221 9.26892C4.54238 8.1123 5.82938 7.22963 7.31323 6.62088C8.82735 5.9817 10.4778 5.66211 12.2644 5.66211C14.0208 5.66211 15.6106 5.96648 17.0339 6.57522C18.4875 7.18397 19.7291 8.05143 20.7587 9.17761C21.8186 10.3038 22.621 11.6278 23.1661 13.1497C23.7415 14.6715 23.9989 16.3456 23.9383 18.1718L23.8929 20.0893H4.81492L3.77017 15.8434H17.1248L16.3071 16.7565V15.889C16.3071 15.2194 16.1254 14.6411 15.7621 14.1541C15.4289 13.6367 14.9747 13.241 14.3993 12.967C13.824 12.6931 13.1729 12.5561 12.4461 12.5561C11.4165 12.5561 10.5535 12.7692 9.85696 13.1953C9.19074 13.591 8.67594 14.1693 8.31255 14.9302C7.94916 15.6912 7.76747 16.6043 7.76747 17.6696C7.76747 18.8871 8.00973 19.9372 8.49425 20.8198C9.00905 21.7025 9.75097 22.3873 10.72 22.8743C11.7193 23.3613 12.9306 23.6048 14.3539 23.6048C15.2927 23.6048 16.1103 23.4831 16.8068 23.2396C17.5336 22.9961 18.3058 22.57 19.1234 21.9612L23.0299 27.4856C21.97 28.3378 20.8949 29.0227 19.8048 29.5401C18.7449 30.0271 17.685 30.3771 16.6251 30.5902C15.5652 30.8337 14.4902 30.9554 13.4 30.9554Z" fill="#F9BE51"/>
</svg>
