<svg width="72" height="72" viewBox="0 0 72 72" fill="none" xmlns="http://www.w3.org/2000/svg">
<path d="M5.73487 66.7013L22.678 60.0935L11.9063 49.3218L5.33059 66.297C5.23189 66.5478 5.48407 66.8 5.73487 66.7013Z" fill="#EACBB9"/>
<path d="M5.76728 66.6866L11.687 64.3774L10.5133 61.9646C10.4128 61.7609 10.2487 61.5968 10.049 61.5003L7.63614 60.3266L5.34298 66.2623C5.24035 66.5251 5.50454 66.7892 5.76728 66.6866Z" fill="#1B1B1B"/>
<path d="M54.0879 7.14022L57.6784 10.7308L15.4973 52.9119L12.6278 52.2108L11.9067 49.3213L54.0879 7.14022Z" fill="#FCD18B"/>
<path d="M57.6777 10.7301L61.2683 14.3206L19.0871 56.5017L16.2177 55.8007L15.4966 52.9112L57.6777 10.7301Z" fill="#F9BE51"/>
<path d="M61.2685 14.3199L64.8591 17.9105L22.678 60.0916L19.8085 59.3905L19.0874 56.501L61.2685 14.3199Z" fill="#D69332"/>
<path d="M54.0877 7.14241L64.8594 17.9141L66.3209 16.4526L55.5492 5.68091L54.0877 7.14241Z" fill="#DADADA"/>
<path d="M66.3252 16.4453L55.5535 5.67366L57.5552 3.67204C59.5846 1.64261 62.89 1.6596 64.9314 3.70105L68.2978 7.06744C70.3393 9.10889 70.3562 12.4143 68.3268 14.4437L66.3252 16.4453Z" fill="#ED8481"/>
<path fill-rule="evenodd" clip-rule="evenodd" d="M49 57C49 56.1503 49.6888 55.4615 50.5385 55.4615H67.4615C68.3112 55.4615 69 56.1503 69 57C69 57.8497 68.3112 58.5385 67.4615 58.5385H50.5385C49.6888 58.5385 49 57.8497 49 57Z" fill="#1B1B1B"/>
<path fill-rule="evenodd" clip-rule="evenodd" d="M59 67C58.1503 67 57.4615 66.3112 57.4615 65.4615L57.4615 48.5385C57.4615 47.6888 58.1503 47 59 47C59.8497 47 60.5385 47.6888 60.5385 48.5385L60.5385 65.4615C60.5385 66.3112 59.8497 67 59 67Z" fill="#1B1B1B"/>
</svg>
