<svg width="129" height="140" viewBox="0 0 129 140" fill="none" xmlns="http://www.w3.org/2000/svg">
<path d="M29.4013 44.9357C30.787 44.6014 32.4835 44.7574 33.8796 44.963C36.5358 45.3542 39.094 46.045 41.4633 47.3816C43.3301 48.4346 44.8481 49.8046 46.3881 51.3101C48.105 52.9884 49.6478 54.6558 50.8731 56.7416C51.8436 58.3938 52.7059 60.1101 53.1522 61.9955C53.966 65.4335 54.1574 68.9782 54.5917 72.476C54.9278 75.1838 54.8698 77.9936 55.458 80.661C55.9968 83.1041 57.2236 85.933 59.8697 86.4478C62.6343 86.9856 65.0558 85.5588 67.0536 83.7286C69.6243 81.3735 71.2088 77.8995 71.5385 74.389C71.8345 71.2382 70.9925 68.0701 70.239 65.0427C69.3573 61.5002 67.9496 58.1911 66.1606 55.0336C62.722 48.9646 57.8655 44.1944 51.4995 41.5196C46.5293 39.4313 40.9686 38.5319 35.8321 40.6382C33.5734 41.5645 30.8858 42.9064 29.4013 44.9357Z" fill="#D6282C"/>
<path fill-rule="evenodd" clip-rule="evenodd" d="M35.3117 39.3042C40.9169 37.0056 46.882 38.0267 52.0309 40.1901C58.7244 43.0026 63.8026 48.0117 67.3723 54.3118C69.2149 57.5639 70.678 60.9957 71.5968 64.6873C71.6358 64.844 71.6753 65.0019 71.7151 65.1612C72.427 68.007 73.2403 71.2582 72.9333 74.5266C72.5731 78.3617 70.8451 82.1815 67.9873 84.7996C65.8878 86.7231 63.0281 88.5243 59.6084 87.8591C57.8179 87.5107 56.5599 86.3765 55.71 85.0778C54.8725 83.798 54.3809 82.2913 54.0912 80.9776C53.7733 79.5361 53.6351 78.0797 53.533 76.6915C53.5072 76.3411 53.4839 75.9974 53.4609 75.6589C53.3906 74.6256 53.3236 73.6403 53.2016 72.6573C53.0715 71.6094 52.9648 70.5851 52.8598 69.5778C52.6007 67.0907 52.3524 64.708 51.7905 62.3342C51.3941 60.6597 50.6173 59.0907 49.6727 57.4826C48.5455 55.5636 47.1114 54.0019 45.4211 52.3496C43.8989 50.8616 42.4886 49.5995 40.7878 48.6401C38.6152 47.4145 36.2355 46.7611 33.6803 46.3848C32.2933 46.1806 29.7222 46.3339 29.7222 46.3339C29.7222 46.3339 28.5513 46.2277 28.2285 45.7218C27.9058 45.216 27.9265 44.5571 28.2803 44.0736C30.0224 41.6921 33.0538 40.2302 35.3117 39.3042ZM50.9681 42.8487C46.1766 40.8355 41.0202 40.0578 36.3526 41.9719C35.3221 42.3945 34.274 42.8785 33.3224 43.4391C33.587 43.4709 33.8404 43.5057 34.0788 43.5408C36.8361 43.9469 39.5727 44.6752 42.1388 46.1228C44.1716 47.2695 45.7972 48.7473 47.3551 50.2702C49.0986 51.9745 50.7502 53.7476 52.0735 56.0003C53.0699 57.6966 54.0177 59.5601 54.514 61.6566C55.1224 64.2269 55.4011 66.9003 55.6677 69.4583C55.7684 70.4241 55.8674 71.3734 55.9817 72.2945C56.1148 73.3667 56.1895 74.4665 56.2609 75.5186C56.2829 75.8428 56.3046 76.1625 56.3276 76.4755C56.4276 77.836 56.5544 79.1182 56.8248 80.344C57.0739 81.4735 57.4651 82.6028 58.0372 83.477C58.5969 84.3321 59.2753 84.8698 60.1309 85.0362C62.2406 85.4466 64.2238 84.3943 66.1199 82.6572C68.4034 80.5652 69.8445 77.437 70.1437 74.2512C70.4022 71.4989 69.7036 68.6966 68.9608 65.7171C68.9344 65.6108 68.9078 65.5044 68.8813 65.3977C68.0367 62.0045 66.6844 58.818 64.9489 55.755C61.6413 49.9173 57.0066 45.3859 50.9681 42.8487Z" fill="#D6282C"/>
<path d="M41.0121 61.409C41.0121 64.3549 40.1629 67.8548 36.7663 70.6173C35.828 71.3804 34.762 71.9453 33.7363 72.5767C31.3812 74.0264 29.3175 75.5692 27.3097 77.4897C25.1011 79.6022 23.3273 81.3543 22.6393 84.3621C21.8989 87.599 22.8784 90.2602 26.4606 90.5588C29.6793 90.8271 33.8126 89.3891 36.2838 87.3736C38.7148 85.3909 40.557 83.471 42.1508 80.7135C43.6898 78.0507 44.5483 75.8813 44.5904 72.8022C44.6272 70.1172 43.5247 66.8834 42.95 65.3313C42.517 64.1617 40.9403 61.4808 41.0121 61.409Z" fill="#F9BE51"/>
<path fill-rule="evenodd" clip-rule="evenodd" d="M42.369 61.0303C42.369 61.0303 41.9574 60.2756 41.5513 60.1073C41.0249 59.8892 40.419 60.0098 40.0162 60.4127C39.7093 60.7197 39.6357 61.0685 39.6146 61.222C39.5998 61.3297 39.5994 61.4241 39.6033 61.496C39.5869 64.1357 38.8186 67.1322 35.8777 69.5241C35.2593 70.0271 34.6056 70.4153 33.8553 70.8611C33.5833 71.0227 33.2985 71.1918 32.9982 71.3767C30.5707 72.8709 28.4255 74.4729 26.3363 76.4714C24.143 78.5693 22.059 80.5822 21.2663 84.0478C20.8562 85.8405 20.8632 87.7071 21.6907 89.2339C22.5646 90.8464 25.0465 92.5385 27.5562 92.7477C31.1765 93.0494 34.4513 90.6864 37.1741 88.4656C39.695 86.4095 41.6675 84.365 43.3703 81.4188C44.9798 78.634 45.9524 76.2252 45.999 72.8215C46.0398 69.8427 44.8411 66.3818 44.271 64.842C44.0141 64.1482 43.4582 63.0911 43.0352 62.2964C42.9719 62.1774 42.9109 62.0633 42.853 61.9547C42.7044 61.6765 42.5754 61.4348 42.4753 61.241C42.4277 61.1489 42.369 61.0303 42.369 61.0303ZM41.695 66C42.2814 67.6066 43.2135 70.4801 43.182 72.7829C43.1443 75.5374 42.3999 77.4675 40.9314 80.0084C39.4467 82.5771 37.7348 84.3723 35.3937 86.2816C33.1741 88.092 29.3948 89.3896 26.5776 89.1547C25.1513 89.0358 24.4936 88.4928 24.1674 87.8909C23.7947 87.2032 23.6821 86.1207 24.0125 84.6764C24.5958 82.1266 26.0594 80.6353 28.2833 78.5081C30.2096 76.6656 32.1919 75.1819 34.4747 73.7767C34.6882 73.6452 34.918 73.509 35.1578 73.3667C35.9537 72.8946 36.8605 72.3567 37.655 71.7105C39.7814 69.9811 41.0172 67.9862 41.695 66Z" fill="#F9BE51"/>
<path fill-rule="evenodd" clip-rule="evenodd" d="M73 90C73 88.9804 73.8266 88.1538 74.8462 88.1538H95.1538C96.1735 88.1538 97 88.9804 97 90C97 91.0196 96.1735 91.8462 95.1538 91.8462H74.8462C73.8266 91.8462 73 91.0196 73 90Z" fill="#1B1B1B"/>
<path fill-rule="evenodd" clip-rule="evenodd" d="M85 102C83.9804 102 83.1538 101.173 83.1538 100.154L83.1538 79.8462C83.1538 78.8266 83.9804 78 85 78C86.0196 78 86.8462 78.8266 86.8462 79.8462L86.8462 100.154C86.8462 101.173 86.0196 102 85 102Z" fill="#1B1B1B"/>
<path d="M25 91.5015C23 90.5015 36.6518 85.2959 39.5005 79.0015C42.5693 72.2205 39.0004 61.5015 40.5004 60.5016C42.0005 59.5016 45.8607 66.9266 46.0004 72.0015C46.1571 77.6921 44.3708 81.3267 40.5004 85.5015C36.6415 89.664 30.2344 94.1187 25 91.5015Z" fill="#EFA930" stroke="#EFA930" stroke-linecap="round"/>
<path d="M42.8514 38.8216C41.4918 39.9566 53.0043 46.6557 56.1125 50.1453C60.0625 54.5799 64.0764 60.6333 64.9995 66.4998C65.7002 70.953 64.9995 75.8399 63.9995 77.9998C62.3083 81.6528 58.1601 86.2911 59.66 87.2911C61.1599 88.2911 68.9607 86.7618 71.9474 77.3288C74.0636 70.6454 71.983 63.8437 68.9995 57.4998C66.7868 52.7949 65.4474 49.883 61.4995 46.4998C54.4124 40.4266 44.211 37.6866 42.8514 38.8216Z" fill="#BC1519" stroke="#BC1519" stroke-linecap="round"/>
<defs>
<filter id="filter0_d_132_12464" x="-11" y="0" width="140" height="140" filterUnits="userSpaceOnUse" color-interpolation-filters="sRGB">
<feFlood flood-opacity="0" result="BackgroundImageFix"/>
<feColorMatrix in="SourceAlpha" type="matrix" values="0 0 0 0 0 0 0 0 0 0 0 0 0 0 0 0 0 0 127 0" result="hardAlpha"/>
<feOffset/>
<feGaussianBlur stdDeviation="10"/>
<feComposite in2="hardAlpha" operator="out"/>
<feColorMatrix type="matrix" values="0 0 0 0 0 0 0 0 0 0 0 0 0 0 0 0 0 0 0.2 0"/>
<feBlend mode="normal" in2="BackgroundImageFix" result="effect1_dropShadow_132_12464"/>
<feBlend mode="normal" in="SourceGraphic" in2="effect1_dropShadow_132_12464" result="shape"/>
</filter>
</defs>
</svg>
