<svg width="68" height="88" viewBox="0 0 68 88" fill="none" xmlns="http://www.w3.org/2000/svg">
<path d="M8.1543 11.0762C8.1543 11.0762 24.1818 11.0762 34.6158 11.0762C45.0498 11.0762 59.8466 11.0762 59.8466 11.0762V80.4016C59.8466 80.932 59.6389 81.4361 59.2205 81.7621C57.1714 83.3588 49.9013 87.9993 34.6158 87.9993C19.3715 87.9993 11.2602 83.3837 8.89615 81.7751C8.40977 81.4441 8.1543 80.8907 8.1543 80.3024V11.0762Z" fill="#ED8481"/>
<path d="M8.1543 32C8.1543 32 21.0774 37.7186 34.0005 37.7186C46.9235 37.7186 59.8466 32 59.8466 32V66.7963C59.8466 66.7963 52.462 73.8462 34.0005 73.8462C15.5389 73.8462 8.1543 66.7963 8.1543 66.7963V32Z" fill="#FFCCCA"/>
<path d="M9.15107 8.72636C8.86102 10.2345 8.19423 11.8366 7.30027 13.0971C6.51065 14.2106 5.35214 14.9878 4.4806 16.0233L4.47227 16.0332C3.24031 17.4971 1.93501 19.048 2.00251 21.0609C2.03981 22.173 2.49345 23.298 3.22603 24.1476C3.93347 24.968 4.99805 25.2478 6.05812 25.16C6.74713 25.1029 7.42152 24.92 8.08282 24.7279C10.8463 23.925 13.5654 23.0163 16.368 22.3326C17.3476 22.0936 18.4806 21.6416 19.4485 22.1227C19.9395 22.3667 20.4184 22.631 20.8956 22.9005C21.844 23.4362 22.7449 24.2416 23.8208 24.5056C24.7347 24.7299 25.6068 24.9561 26.5349 24.6661C27.4112 24.3924 28.1701 23.9274 28.9882 23.5302C30.5524 22.7709 32.6652 23.2647 34.2425 23.7525C36.4507 24.4354 38.3966 25.6026 40.7637 25.8144C43.9546 26.0999 46.9585 24.3855 49.8563 23.3327C52.3179 22.4383 54.5375 22.2464 56.9613 23.2833C58.675 24.0164 60.2507 24.5009 62.079 24.839C63.3932 25.082 65.5218 24.7442 65.9172 23.1722C66.1571 22.2186 65.8671 20.4996 65.1595 19.7768C64.4301 19.0317 63.388 18.5686 62.7001 17.7519C61.8418 16.7329 61.2456 15.7252 60.5511 14.5911C59.9132 13.5493 59.2687 12.4375 58.9488 11.2451C58.7223 10.401 58.7873 9.48309 58.7873 8.61523L9.15107 8.72636Z" fill="#F4F4F4"/>
<path d="M6.92349 2.46154C6.92349 1.10207 8.02555 0 9.38503 0H58.6158C59.9753 0 61.0773 1.10207 61.0773 2.46154V13.5385C61.0773 14.8979 59.9753 16 58.6158 16H9.38503C8.02556 16 6.92349 14.8979 6.92349 13.5385V2.46154Z" fill="#F4F4F4"/>
<path fill-rule="evenodd" clip-rule="evenodd" d="M60.6339 6.76509V8.61539C60.6339 8.84102 60.6318 9.04348 60.6299 9.22757C60.623 9.91258 60.6186 10.3432 60.7323 10.7669C60.9752 11.6725 61.4844 12.5796 62.126 13.6271C62.1749 13.707 62.2228 13.7855 62.27 13.8627C62.9142 14.9161 63.4136 15.733 64.1125 16.5627C64.2878 16.7709 64.5404 16.9712 64.9839 17.2864C65.0223 17.3136 65.0629 17.3423 65.1055 17.3723C65.4863 17.6409 66.0228 18.0192 66.4792 18.4855C67.194 19.2158 67.5418 20.2325 67.7027 21.0176C67.869 21.8298 67.9164 22.7941 67.708 23.6226C67.3007 25.2423 66.0147 26.0723 64.931 26.4364C63.8545 26.7981 62.6727 26.8263 61.7437 26.6545C59.7757 26.2906 58.0693 25.7653 56.2356 24.9808C54.3646 24.1804 52.6509 24.2819 50.4871 25.068C49.8615 25.2953 49.2274 25.5566 48.543 25.8387C48.4841 25.863 48.4248 25.8874 48.3652 25.912C47.6278 26.2156 46.8367 26.5383 46.0254 26.8197C44.4066 27.3813 42.5709 27.8297 40.5996 27.6534C39.1637 27.5249 37.8986 27.1095 36.7861 26.6852C36.3895 26.534 36.0285 26.389 35.685 26.251C35.0002 25.976 34.3851 25.729 33.6974 25.5164C32.9487 25.2848 32.1667 25.0827 31.4322 25.0113C30.6849 24.9387 30.1503 25.0186 29.7948 25.1912C29.6518 25.2606 29.4837 25.348 29.2964 25.4454C28.6918 25.7598 27.8876 26.178 27.0858 26.4285C25.6721 26.8701 24.3582 26.5423 23.5307 26.3358C23.4789 26.3229 23.4291 26.3105 23.3812 26.2987C22.5509 26.0949 21.8553 25.7001 21.3267 25.3671C21.0561 25.1966 20.8539 25.0612 20.6769 24.9427C20.4369 24.7819 20.2432 24.6523 19.9881 24.5082C19.5186 24.243 19.0736 23.9979 18.6272 23.7761C18.6236 23.7743 18.6037 23.7639 18.5431 23.7588C18.475 23.7531 18.3667 23.7553 18.1995 23.7816C18.0305 23.8081 17.839 23.8528 17.5985 23.9164C17.5349 23.9332 17.459 23.9538 17.3766 23.9762C17.1968 24.0251 16.9863 24.0823 16.8059 24.1263C14.9573 24.5773 13.1822 25.118 11.3498 25.6761C10.4515 25.9496 9.53954 26.2274 8.59834 26.5009C7.9371 26.693 7.1037 26.9261 6.21093 27C4.76202 27.12 3.03587 26.7537 1.82832 25.3534C0.831601 24.1975 0.209776 22.6727 0.157804 21.1229C0.0661644 18.3902 1.79081 16.348 2.92863 15.0006C2.97344 14.9475 3.01734 14.8955 3.06019 14.8446L3.06851 14.8347C3.52878 14.2878 4.05589 13.8005 4.48402 13.4048C4.54614 13.3473 4.60619 13.2918 4.66364 13.2383C5.15691 12.7791 5.51935 12.4177 5.79478 12.0293C6.52967 10.9931 7.09612 9.63832 7.33855 8.37782L7.62591 6.88376L60.6339 6.76509ZM5.89349 17.2123L5.88517 17.2222C4.55197 18.8063 3.80829 19.8138 3.84804 20.9991C3.87066 21.6737 4.15612 22.3989 4.62456 22.9421C4.83189 23.1825 5.23491 23.3759 5.90613 23.3203C6.39138 23.2801 6.90676 23.1474 7.56813 22.9552C8.41123 22.7102 9.27245 22.4481 10.1462 22.1822C12.0349 21.6073 13.9821 21.0146 15.9308 20.5392C16.0031 20.5216 16.1068 20.4934 16.2314 20.4596C16.6042 20.3585 17.1636 20.2067 17.6266 20.134C18.3355 20.0226 19.3011 19.9878 20.2705 20.4696C20.8061 20.7358 21.3189 21.0193 21.8039 21.2932C22.1511 21.4893 22.5748 21.7697 22.9093 21.9911C23.0615 22.0918 23.1952 22.1803 23.2948 22.2431C23.7228 22.5127 24.0156 22.6526 24.2613 22.7128C25.2761 22.9619 25.6308 23.0147 25.9848 22.9041C26.4536 22.7577 26.816 22.569 27.3116 22.3109C27.5588 22.1822 27.8392 22.0362 28.1824 21.8696C29.3911 21.2828 30.6951 21.23 31.7895 21.3364C32.8968 21.444 33.9598 21.7327 34.7883 21.9889C35.6223 22.2468 36.4728 22.5876 37.2285 22.8906C37.538 23.0146 37.8317 23.1323 38.1018 23.2353C39.1061 23.6183 39.9975 23.8924 40.9286 23.9757C42.1482 24.0848 43.41 23.8188 44.8153 23.3313C45.516 23.0883 46.2187 22.8028 46.9592 22.4978C47.0216 22.4721 47.0843 22.4463 47.1473 22.4203C47.817 22.1442 48.523 21.8532 49.2262 21.5977C51.9858 20.5951 54.7113 20.3127 57.6879 21.5861C59.2815 22.2678 60.7265 22.7115 62.4151 23.0238C62.8003 23.095 63.3399 23.0759 63.7551 22.9364C63.9504 22.8707 64.0545 22.7998 64.0987 22.7599C64.1248 22.7363 64.1259 22.7298 64.1268 22.7244L64.1272 22.722C64.1587 22.597 64.181 22.225 64.0855 21.7586C64.0418 21.5457 63.9831 21.3628 63.9224 21.2257C63.8715 21.1107 63.8355 21.0643 63.8338 21.0614C63.6252 20.8501 63.3649 20.6652 62.9244 20.3524C62.8987 20.3342 62.8723 20.3155 62.8454 20.2963C62.4135 19.9895 61.801 19.5499 61.2884 18.9414C60.4013 17.8881 59.7623 16.8412 59.1429 15.8265C59.0875 15.7359 59.0323 15.6455 58.9772 15.5554C58.3427 14.5193 57.5629 13.2028 57.1661 11.7236C57.0552 11.3103 56.995 10.8793 56.9634 10.4656L10.5805 10.5695C10.1723 11.8429 9.56328 13.0982 8.80659 14.1652C8.29239 14.8903 7.68077 15.4742 7.17949 15.9408C7.11109 16.0045 7.04495 16.0659 6.98088 16.1253C6.53802 16.536 6.19443 16.8547 5.89349 17.2123Z" fill="#F4F4F4"/>
<path d="M37.6934 46.8248C38.3438 46.1744 38.822 45.4414 39.5612 44.8606C40.4566 44.1571 41.9146 43.1096 43.1161 43.0771C45.3893 43.0157 43.2702 45.88 42.7064 46.4995C42.6091 46.6063 41.3824 47.8556 41.5495 47.9034C41.7157 47.9508 42.0114 47.9197 42.1641 47.8612C43.2387 47.4496 44.2837 47.294 45.4418 47.2647C45.9864 47.2509 47.7008 47.0399 47.9122 47.8009C48.0784 48.3993 46.5797 49.0885 46.207 49.3133C45.3652 49.821 44.3785 50.2639 43.6584 50.9461C42.6289 51.9214 44.196 51.1856 44.7308 51.0787C45.9702 50.8308 47.609 50.7733 48.7919 51.2835C49.1786 51.4504 50.1629 52.0463 49.7439 52.597C48.5412 54.1777 46.6866 54.9631 44.9598 55.8266L37.6934 46.8248Z" fill="#6DB224" stroke="#6DB224" stroke-width="2.46154" stroke-linecap="round"/>
<path d="M30.4589 47.8165C28.9342 48.6936 28.1026 49.7699 27.0366 50.7448C24.9685 52.6362 22.8064 54.7956 21.3487 57.2039C20.5021 58.6026 20.0125 60.1577 20.5052 61.7589C20.8706 62.9464 22.1018 63.8067 23.2407 64.0787C24.7486 64.4388 26.3156 64.6045 27.862 64.4583C29.9144 64.2641 31.9744 64.1124 34.0138 63.8256C35.7118 63.5868 37.3009 63.4373 38.9063 62.7832C40.1911 62.2598 41.5978 61.6684 42.7143 60.8311C44.253 59.677 44.8093 57.4853 44.4013 55.6493C44.18 54.6535 43.649 53.6923 43.2806 52.7452C42.8929 51.748 42.3882 50.6316 41.684 49.8229C40.3617 48.3047 39.0862 47.1857 37.0626 46.7922C36.1679 46.6183 35.1127 46.3376 34.2006 46.4187C32.9016 46.5341 31.811 47.0387 30.4589 47.8165Z" fill="#D6282C" stroke="#D6282C" stroke-width="2.46154" stroke-linecap="round"/>
<path d="M6.95312 7.91016C7.14822 8.20675 7.74416 8.45052 8.09815 8.51285C9.21333 8.70918 10.2921 9.03485 11.3503 9.39133C13.8601 10.2368 16.2143 11.3924 18.8637 11.9124C22.7026 12.6658 26.1505 10.9982 29.8299 10.4465C31.4763 10.1997 33.4259 10.0351 35.0576 10.4258C36.508 10.773 37.8096 11.401 39.021 12.1515C40.1172 12.8306 41.0734 13.2753 42.4373 13.4563C44.0159 13.6657 45.5622 13.4598 47.045 12.9936C49.7244 12.1513 52.2027 10.8792 55.0143 10.3842C55.7466 10.2553 56.2972 10.2717 57.0142 10.405C57.5412 10.5029 57.9742 10.6129 58.5218 10.6129C59.1932 10.6129 60.4913 9.77079 60.4913 9.77079C60.4913 9.77079 61.1597 9.32345 61.068 8.96186" stroke="#C1C1C1" stroke-width="1.23077" stroke-linecap="round"/>
<path d="M33.3441 10.2182C32.9813 11.0345 31.1003 9.55129 30.8439 9.34831C29.5869 8.35313 28.0851 7.08546 27.4556 5.57066C27.1464 4.82663 27.0124 3.9815 27.7172 3.47805C28.8591 2.66239 29.9859 2.81038 30.9352 3.83087C32.0829 5.06462 32.1451 7.02788 32.3343 8.63658C32.3492 8.76339 32.369 9.74192 32.4925 9.86538C32.5717 9.94465 32.7411 10.2971 32.8514 10.3216C32.967 10.3473 33.2478 6.71083 33.3015 6.46489C33.5735 5.2197 33.9916 4.39059 35.1812 3.89171C35.8499 3.61129 36.2616 3.99002 36.6777 4.48177C37.0615 4.9353 36.5762 6.12185 36.3857 6.6048C35.9792 7.63549 35.1779 8.78627 34.3904 9.56122C32.6403 11.2835 30.5592 12.4997 28.9764 14.4217C27.9044 15.7234 26.9742 17.1511 26.4701 18.7711C26.2793 19.3846 26.0078 20.0875 26.0078 20.7299" stroke="#C1C1C1" stroke-width="1.23077" stroke-linecap="round"/>
<path d="M33.127 10.2188C33.3392 11.0676 34.124 11.9415 34.5139 12.7311C35.1117 13.9416 35.5543 15.0742 35.7488 16.4236C36.0537 18.5389 36.1929 20.6758 36.1929 22.8109" stroke="#C1C1C1" stroke-width="1.23077" stroke-linecap="round"/>
<circle cx="42.0001" cy="59.6916" r="0.615385" fill="#1B1B1B"/>
<circle cx="39.5392" cy="60.924" r="0.615385" fill="#1B1B1B"/>
<circle cx="39.5392" cy="58.4611" r="0.615385" fill="#1B1B1B"/>
<circle cx="43.2306" cy="57.2306" r="0.615385" fill="#1B1B1B"/>
<circle cx="40.7697" cy="56.0001" r="0.615385" fill="#1B1B1B"/>
<circle cx="35.8459" cy="58.4611" r="0.615385" fill="#1B1B1B"/>
</svg>
