<svg width="56" height="74" viewBox="0 0 56 74" fill="none" xmlns="http://www.w3.org/2000/svg">
<path d="M6.9541 11.9375C6.9541 11.9375 19.8861 11.9375 28.3049 11.9375C36.7237 11.9375 48.6626 11.9375 48.6626 11.9375V67.2051C48.6626 68.061 48.3198 68.8805 47.6162 69.3679C45.4121 70.8946 39.5437 74.0037 28.3049 74.0037C17.1189 74.0037 10.6929 70.9237 8.18592 69.3895C7.37616 68.894 6.9541 67.9944 6.9541 67.045V11.9375Z" fill="#ED8481"/>
<path d="M13.0059 11.9375H17.847V72.9828C15.9843 72.5939 14.3706 72.1211 13.0059 71.6327V11.9375Z" fill="#FAABAB"/>
<path d="M48.6631 67.2051V11.9375H40.8428V72.4095C44.2808 71.4135 46.4556 70.172 47.6159 69.3685C48.3196 68.8811 48.6631 68.061 48.6631 67.2051Z" fill="#B14C49"/>
<path d="M6.9541 26.0859C6.9541 26.0859 17.3812 29.6192 27.8084 29.6192C38.2355 29.6192 48.6626 26.0859 48.6626 26.0859V54.1617C48.6626 54.1617 42.7043 59.85 27.8084 59.85C12.9125 59.85 6.9541 54.1617 6.9541 54.1617V26.0859Z" fill="#F4DFDF"/>
<path d="M12.9961 57.4854V27.7461C14.4415 28.0814 16.0832 28.4221 17.8495 28.7193V58.8775C15.9715 58.479 14.3596 57.9926 12.9961 57.4854Z" fill="#F7EAEA"/>
<path d="M48.6627 54.1617V26.0859C48.6627 26.0859 45.4701 27.1678 40.8516 28.1342V58.0814C46.306 56.4116 48.6627 54.1617 48.6627 54.1617Z" fill="#C9AFAF"/>
<path d="M24.5728 36.9335C23.0253 37.8238 21.9011 38.8315 20.8191 39.8211C18.7201 41.7408 16.8057 44.0171 15.3262 46.4614C14.4669 47.8811 13.97 49.4594 14.4701 51.0847C14.8409 52.2899 16.0905 53.1631 17.2465 53.4391C18.7769 53.8046 20.3674 53.9729 21.937 53.8244C24.0201 53.6273 26.1109 53.4733 28.1809 53.1823C29.9043 52.9399 31.3129 52.5983 33.1696 51.9835C34.4736 51.4522 35.8784 50.9928 37.0116 50.1429C38.5734 48.9715 39.138 46.747 38.7239 44.8836C38.4993 43.8728 38.1477 42.9103 37.7739 41.949C37.3803 40.9369 36.6807 39.7907 35.9659 38.97C34.6238 37.429 33.2653 35.9965 31.2115 35.5972C30.3033 35.4206 29.2963 35.4325 28.3705 35.5147C27.0521 35.6319 25.9451 36.1441 24.5728 36.9335Z" fill="#D6282C"/>
<path d="M33.1694 51.9809C31.3128 52.5956 29.9042 52.9373 28.1808 53.1796C27.3084 53.3023 26.4323 53.4006 25.5547 53.4881C27.5367 52.8831 31.1288 52.2535 33.8552 51.0881C36.0754 50.2945 38.2366 48.29 38.5402 47.9844C38.1636 49.1274 37.3779 49.8654 37.0115 50.1403C35.8782 50.9902 34.4735 51.4496 33.1694 51.9809Z" fill="#AF2225"/>
<circle cx="35.0417" cy="48.4314" r="0.544641" fill="#F9BE51"/>
<circle cx="27.9987" cy="37.2087" r="0.544641" fill="#F9BE51"/>
<circle cx="31.8122" cy="49.9118" r="0.544641" fill="#F9BE51"/>
<circle cx="26.9099" cy="44.6657" r="0.544641" fill="#F9BE51"/>
<circle cx="31.2673" cy="44.947" r="0.544641" fill="#F9BE51"/>
<circle cx="28.2732" cy="47.7321" r="0.544641" fill="#F9BE51"/>
<circle cx="34.4978" cy="42.9782" r="0.544641" fill="#F9BE51"/>
<circle cx="18.0212" cy="51.154" r="0.544641" fill="#F9BE51"/>
<circle cx="36.1306" cy="46.2556" r="0.544641" fill="#F9BE51"/>
<circle cx="30.8405" cy="40.2673" r="0.544641" fill="#F9BE51"/>
<circle cx="24.0896" cy="50.611" r="0.544641" fill="#F9BE51"/>
<circle cx="22.655" cy="47.4704" r="0.544641" fill="#F9BE51"/>
<circle cx="27.4548" cy="40.6814" r="0.544641" fill="#F9BE51"/>
<path d="M17.6592 48.0158C19.5642 45.5001 21.0183 43.3915 23.1996 41.7773" stroke="#E84B4E" stroke-width="2.65512" stroke-linecap="round"/>
<circle cx="21.2126" cy="43.2907" r="0.544641" fill="#F9BE51"/>
<circle cx="18.0212" cy="46.6462" r="0.544641" fill="#F9BE51"/>
<path d="M30.4326 39.6148C30.7411 38.7885 33.2877 38.0404 34.5224 37.7695L34.605 40.6613C32.589 40.8155 30.9834 40.0279 30.4326 39.6148Z" fill="#2C5F31"/>
<path d="M37.0059 39.8398C37.8369 40.0396 39.5213 40.9711 39.2018 42.8351C38.9891 42.3713 38.2582 40.5511 37.0059 39.8398Z" fill="#1D3F20"/>
<path d="M30.4073 34.5918C34.2257 34.2908 35.8142 37.2361 36.1312 38.7463L36.284 39.853L37.2507 39.9257C39.4386 41.5416 39.4902 44.6842 39.2425 46.0534C36.8852 44.2924 36.1504 42.856 36.0777 42.3579C34.568 43.3795 32.0369 43.3322 31.3594 43.54C31.3594 41.5377 33.6731 39.731 34.5118 39.2206C31.8837 38.2969 30.4399 35.7654 30.4073 34.5918Z" fill="#38793F"/>
<path d="M37.2292 39.9375L36.2876 39.868L36.1172 38.8011C37.0071 38.4213 37.7048 36.8576 38.076 35.7141C38.2005 35.3307 38.5915 35.0884 38.9847 35.177L39.2277 35.2318C39.5258 35.299 39.7378 35.5488 39.643 35.8393C39.2962 36.9018 37.9645 38.9137 37.2292 39.9375Z" fill="#5F9229"/>
<path d="M16.0465 21.6063C14.0614 20.6722 9.16704 22.6238 7.00195 23.2441V17.7852H48.6377V23.609C47.4335 23.6455 40.5138 22.6893 37.1202 24.3678C33.7266 26.0464 28.0237 21.9451 25.3234 22.8208C22.6231 23.6966 18.5279 22.774 16.0465 21.6063Z" fill="#BB615E"/>
<path d="M48.6375 17.7852V23.609C47.8237 23.6337 44.4157 23.1282 40.8506 23.4688V17.7852H48.6375Z" fill="#AB5A57"/>
<path d="M7.94978 7.80671C7.71574 9.02353 7.17774 10.3162 6.45644 11.3333C6.36117 11.4677 6.25926 11.5959 6.15246 11.7197C5.54497 12.4239 4.77942 12.9837 4.18135 13.6944L4.17463 13.7023C3.18061 14.8835 2.12742 16.1349 2.18188 17.7589C2.21197 18.6563 2.578 19.564 3.16909 20.2495C3.73989 20.9114 4.59886 21.1372 5.4542 21.0664C6.01013 21.0203 6.55427 20.8727 7.08785 20.7177C9.31757 20.0699 11.5115 19.3367 13.7728 18.785C14.5633 18.5922 15.4774 18.2275 16.2584 18.6157C16.6545 18.8126 17.0409 19.0258 17.426 19.2433C18.1912 19.6755 18.9181 20.3253 19.7862 20.5384C20.5236 20.7194 21.2273 20.9018 21.9761 20.6679C22.6832 20.447 23.2955 20.0718 23.9556 19.7514C25.2177 19.1387 26.9224 19.5372 28.195 19.9307C29.9768 20.4817 31.5469 21.4235 33.4568 21.5944C36.0314 21.8247 38.4551 20.4415 40.7932 19.592C42.7794 18.8703 44.5704 18.7155 46.526 19.5521C47.9087 20.1436 49.1801 20.5346 50.6553 20.8074C51.7156 21.0035 53.4332 20.7309 53.7522 19.4625C53.9457 18.6931 53.7117 17.3061 53.1408 16.7229C52.5523 16.1217 51.7114 15.7481 51.1564 15.0891C50.5153 14.3279 50.0554 13.5745 49.546 12.7408C49.5052 12.6739 49.4641 12.6066 49.4225 12.5387C48.9077 11.6981 48.3877 10.8011 48.1296 9.83899C47.9469 9.1579 47.9993 8.41728 47.9993 7.71705L7.94978 7.80671Z" fill="#F4F4F4"/>
<path d="M6.15223 2.75174C6.15223 1.65484 7.04144 0.765625 8.13835 0.765625H47.8607C48.9576 0.765625 49.8469 1.65484 49.8469 2.75174V10.2216V11.6893C49.8469 12.0754 49.7367 12.4358 49.546 12.7408C49.1951 13.302 48.5715 13.6754 47.8607 13.6754H8.13835C7.05161 13.6754 6.16872 12.8026 6.15246 11.7197C6.15231 11.7096 6.15223 11.6994 6.15223 11.6893V8.71454V2.75174Z" fill="#F4F4F4"/>
<path fill-rule="evenodd" clip-rule="evenodd" d="M5.32116 14.6535L5.31445 14.6615C4.23874 15.9397 3.63869 16.7526 3.67077 17.709C3.68902 18.2533 3.91934 18.8384 4.29731 19.2767C4.4646 19.4707 4.78978 19.6267 5.33136 19.5819C5.72289 19.5495 6.13873 19.4423 6.67237 19.2873C7.35263 19.0896 8.04751 18.8781 8.75248 18.6636C10.2764 18.1997 11.8475 17.7215 13.4199 17.3379C13.4782 17.3237 13.5619 17.301 13.6625 17.2737C13.9632 17.1921 14.4146 17.0696 14.7881 17.0109C15.3601 16.9211 16.1392 16.893 16.9214 17.2818C17.3536 17.4965 17.7674 17.7253 18.1586 17.9463C18.4388 18.1045 18.7807 18.3308 19.0506 18.5094C19.1733 18.5906 19.2812 18.662 19.3616 18.7127C19.7069 18.9302 19.9432 19.0431 20.1414 19.0917C20.9603 19.2927 21.2464 19.3353 21.5321 19.2461C21.9103 19.1279 22.2027 18.9757 22.6026 18.7674C22.8021 18.6635 23.0283 18.5458 23.3052 18.4113C24.2804 17.9379 25.3326 17.8953 26.2156 17.9811C27.1091 18.0679 27.9668 18.3009 28.6353 18.5076C29.3082 18.7157 29.9944 18.9907 30.6042 19.2351C30.8539 19.3352 31.0908 19.4302 31.3088 19.5133C32.1191 19.8223 32.8384 20.0435 33.5897 20.1107C34.5737 20.1987 35.5918 19.9841 36.7257 19.5908C37.291 19.3947 37.858 19.1643 38.4555 18.9182C38.5058 18.8975 38.5564 18.8767 38.6073 18.8557C39.1476 18.6329 39.7172 18.3981 40.2847 18.1919C42.5112 17.383 44.7103 17.1552 47.112 18.1826C48.3979 18.7327 49.5638 19.0907 50.9263 19.3426C51.237 19.4001 51.6724 19.3846 52.0075 19.2721C52.1651 19.2191 52.2491 19.1619 52.2847 19.1297C52.3058 19.1107 52.3066 19.1054 52.3074 19.101L52.3077 19.0991C52.3331 18.9983 52.3511 18.6981 52.274 18.3218C52.2388 18.15 52.1915 18.0025 52.1424 17.8918C52.1014 17.799 52.0723 17.7616 52.071 17.7593C51.9027 17.5887 51.6926 17.4396 51.3372 17.1872C51.3164 17.1725 51.2952 17.1574 51.2734 17.1419C50.925 16.8944 50.4308 16.5397 50.0172 16.0487C49.3014 15.1989 48.7858 14.3542 48.286 13.5355C48.2414 13.4623 48.1968 13.3894 48.1523 13.3167C47.6404 12.4807 47.0112 11.4184 46.691 10.225C46.6015 9.89143 46.553 9.5437 46.5275 9.20993L9.10294 9.29372C8.7736 10.3212 8.28218 11.3341 7.67163 12.195C7.25674 12.78 6.76325 13.2512 6.35878 13.6277C6.3036 13.6791 6.25023 13.7285 6.19853 13.7765C5.84121 14.1079 5.56398 14.365 5.32116 14.6535Z" fill="#F4F4F4"/>
<path d="M3.16909 20.2495C2.578 19.564 2.21197 18.6563 2.18188 17.7589C2.12742 16.1349 3.18061 14.8835 4.17463 13.7023L3.03508 12.7432L2.92893 12.869C2.01087 13.9562 0.619319 15.604 0.69326 17.8089C0.735194 19.0593 1.23692 20.2897 2.04113 21.2223C3.01546 22.3521 4.40822 22.6477 5.57729 22.5509C6.29763 22.4912 6.97007 22.3032 7.5036 22.1481C8.26302 21.9275 8.99888 21.7034 9.72363 21.4826C11.2021 21.0323 12.6344 20.5961 14.126 20.2322C14.2715 20.1967 14.4414 20.1505 14.5865 20.1111C14.6529 20.093 14.7142 20.0764 14.7655 20.0628C14.9595 20.0115 15.114 19.9755 15.2504 19.954C15.2901 19.9444 15.4146 19.93 15.5955 19.9496C16.1136 20.1111 16.3147 20.3264 16.6936 20.5403C16.8994 20.6566 17.0556 20.7612 17.2493 20.8909C17.3921 20.9865 17.5553 21.0958 17.7736 21.2333C18.2001 21.502 18.7614 21.8206 19.4313 21.9851C19.4699 21.9945 19.5102 22.0046 19.552 22.015C20.2196 22.1816 21.2798 22.4461 22.4204 22.0897C23.0674 21.8876 23.7162 21.5502 24.2041 21.2965C24.3552 21.218 24.4908 21.1474 24.6062 21.0914C24.8931 20.9522 25.3244 20.8877 25.9274 20.9463C26.52 21.0039 27.1509 21.167 27.7551 21.3538C28.31 21.5254 28.8062 21.7247 29.3588 21.9466C29.6359 22.0579 29.9272 22.1749 30.2472 22.2969C31.1448 22.6392 32.1656 22.9744 33.3242 23.0781C34.9148 23.2203 36.3959 22.8585 37.702 22.4054C38.3567 22.1783 38.9949 21.918 39.5899 21.673L39.7334 21.6139C40.2856 21.3863 40.7972 21.1754 41.302 20.992C43.0479 20.3577 44.4306 20.2759 45.9403 20.9217C47.4198 21.5546 48.7967 21.9785 50.3845 22.2721C51.1341 22.4107 52.0876 22.388 52.9562 22.0962C53.8307 21.8024 54.8682 21.1327 55.1969 19.8258C55.3651 19.1573 55.3268 18.3792 55.1926 17.7239C55.0628 17.0904 54.7822 16.2701 54.2054 15.6809C53.8372 15.3046 53.4043 14.9994 53.0971 14.7827C53.0627 14.7585 53.0299 14.7353 52.9989 14.7133C52.6411 14.4591 52.4373 14.2974 52.2958 14.1295C51.7319 13.46 51.3289 12.8009 50.8092 11.9509L50.693 11.7608C50.3556 11.2099 50.0636 10.7072 49.8469 10.2216V11.6893C49.8469 12.0754 49.7367 12.4358 49.546 12.7408C50.0554 13.5745 50.5153 14.3279 51.1564 15.0891C51.7114 15.7481 52.5523 16.1217 53.1408 16.7229C53.7117 17.3061 53.9457 18.6931 53.7522 19.4625C53.4332 20.7309 51.7156 21.0035 50.6553 20.8074C49.1801 20.5346 47.9087 20.1436 46.526 19.5521C44.5704 18.7155 42.7794 18.8703 40.7932 19.592C38.4551 20.4415 36.0314 21.8247 33.4568 21.5944C31.5469 21.4235 29.9768 20.4817 28.195 19.9307C26.9224 19.5372 25.2177 19.1387 23.9556 19.7514C23.2955 20.0718 22.6832 20.447 21.9761 20.6679C21.2273 20.9018 20.5236 20.7194 19.7862 20.5384C18.9181 20.3253 18.1912 19.6755 17.426 19.2433C17.0409 19.0258 16.6545 18.8126 16.2584 18.6157C15.4774 18.2275 14.5633 18.5922 13.7728 18.785C11.5115 19.3367 9.31757 20.0699 7.08785 20.7177C6.55427 20.8727 6.01013 21.0203 5.4542 21.0664C4.59886 21.1372 3.73989 20.9114 3.16909 20.2495Z" fill="#F4F4F4"/>
<path d="M4.18135 13.6944C4.77942 12.9837 5.54497 12.4239 6.15246 11.7197C6.15231 11.7096 6.15223 11.6994 6.15223 11.6893V8.71454C5.91955 9.3458 5.60624 9.95733 5.24151 10.4716C5.01929 10.785 4.72684 11.0766 4.32884 11.4471C4.28249 11.4903 4.23404 11.5351 4.18391 11.5814C3.83847 11.9007 3.41317 12.2939 3.04179 12.7352L3.03508 12.7432L4.17463 13.7023L4.18135 13.6944Z" fill="#F4F4F4"/>
<path d="M45.4833 10.8943C48.8483 12.2296 48.1804 13.345 50.5476 14.591C55.4566 17.779 53.0784 22.2974 49.4509 19.9345C45.8233 17.5716 44.9815 17.7402 44.1495 18.1146C40.5742 19.3214 39.9825 16.4599 41.8962 13.5618C43.0333 11.8977 42.5859 9.7445 45.4833 10.8943Z" fill="#E8E8E8"/>
<path d="M17.6804 17.2955C17.6421 16.0483 19.1598 14.6711 20.4423 13.7813C21.0299 13.3736 21.8184 13.4795 22.3174 13.9919C23.4543 15.1595 24.8163 16.7519 24.4088 17.6056C23.8879 18.697 22.476 19.1146 21.9903 19.1249C20.5743 19.1869 17.73 18.9079 17.6804 17.2955Z" fill="#E8E8E8"/>
<path d="M30.2915 18.7976C30.2515 17.498 32.8413 15.1574 34.5185 13.925C35.0949 13.5015 35.8723 13.6143 36.1888 14.2557C36.9462 15.7909 37.4293 18.2499 37.0199 19.1077C36.499 20.1991 35.0871 20.6167 34.6013 20.627C33.1854 20.689 30.341 20.41 30.2915 18.7976Z" fill="#E8E8E8"/>
<path d="M3.10977 17.5867C3.06923 16.2684 6.19309 13.3569 8.03438 11.949C8.60254 11.5146 9.36222 11.6636 9.43925 12.3747C9.63567 14.1877 8.79202 17.3136 8.38159 18.1735C7.86068 19.265 6.44884 19.6825 5.96307 19.6928C4.5471 19.7549 3.15934 19.1991 3.10977 17.5867Z" fill="#EBEBEB"/>
<path fill-rule="evenodd" clip-rule="evenodd" d="M24.0563 4.23864C23.7549 4.2039 23.4034 4.28961 23.0016 4.57664C22.8522 4.68335 22.7953 4.80963 22.7878 4.98234C22.7792 5.18141 22.8407 5.43383 22.9586 5.7177C23.4292 6.84999 24.5804 7.84024 25.6537 8.68997C25.7168 8.73989 25.8864 8.87338 26.0998 9.02037C26.0914 8.90937 26.0854 8.80167 26.0809 8.71632L26.0786 8.67176L26.0746 8.59704C26.0734 8.57605 26.0726 8.56445 26.0723 8.5593C26.0721 8.55735 26.0721 8.55633 26.0721 8.55607C26.0721 8.55581 26.0721 8.55636 26.0723 8.55753C26.0509 8.37573 26.0318 8.19449 26.0129 8.01402C25.9577 7.48942 25.9033 6.9714 25.7941 6.46552C25.6495 5.79576 25.4223 5.22683 25.0298 4.80491C24.6906 4.4403 24.3603 4.27369 24.0563 4.23864ZM26.3014 10.3389C26.2332 10.3069 26.1676 10.2734 26.1058 10.2402C26.0735 10.2229 26.0414 10.2051 26.0095 10.187C25.5162 10.2245 25.0253 10.2853 24.5554 10.3557C23.591 10.5003 22.6744 10.7312 21.7331 10.9683L21.7331 10.9683L21.733 10.9683C21.1769 11.1083 20.6122 11.2506 20.0239 11.3785C18.4803 11.714 16.8661 11.9226 15.1488 11.5856C13.9835 11.3569 12.9169 10.9561 11.8899 10.5527C11.7821 10.5103 11.6749 10.468 11.568 10.4258L11.5672 10.4255L11.5668 10.4254C10.6447 10.0615 9.75024 9.70846 8.79268 9.45622L8.75745 9.44694L8.72387 9.43283C8.55018 9.3598 8.34523 9.30576 8.09447 9.248C8.04587 9.2368 7.99514 9.22539 7.9428 9.21361C7.73895 9.16775 7.51068 9.1164 7.28867 9.05105C6.71314 8.88165 6.08325 8.59312 5.61732 7.92379C5.45388 7.68902 5.51172 7.3662 5.7465 7.20277C5.98127 7.03934 6.30409 7.09717 6.46752 7.33195C6.74426 7.72949 7.11934 7.92135 7.58118 8.05729C7.76769 8.11218 7.95312 8.15397 8.15263 8.19892L8.15297 8.199L8.15311 8.19903C8.20982 8.21181 8.26766 8.22484 8.32699 8.23851C8.57103 8.29472 8.83806 8.36132 9.0903 8.46341C10.0983 8.73165 11.0403 9.10362 11.9454 9.46103L11.9462 9.46135L11.9468 9.46161C12.0546 9.50416 12.1618 9.54651 12.2686 9.58846C13.2934 9.99102 14.2835 10.3601 15.3483 10.569C16.8621 10.8661 18.3145 10.69 19.8039 10.3662C20.321 10.2538 20.8556 10.1196 21.4004 9.98291C22.3821 9.73657 23.3968 9.48195 24.4018 9.33127C24.5114 9.31485 24.623 9.29876 24.7364 9.28324C23.7381 8.47886 22.5408 7.41159 22.002 6.11525C21.8598 5.77288 21.7347 5.35652 21.7529 4.93742C21.7722 4.49197 21.9556 4.05071 22.3994 3.73367C22.9587 3.33417 23.562 3.13889 24.1749 3.20954C24.7851 3.27987 25.3284 3.60501 25.7883 4.09934C26.3618 4.71584 26.6438 5.49235 26.8067 6.24692C26.8344 6.37554 26.8591 6.50586 26.8814 6.63677C26.8856 6.60691 26.8901 6.57998 26.8947 6.55862C27.0144 6.01058 27.1769 5.49909 27.4729 5.06078C27.7773 4.61009 28.1998 4.27007 28.7826 4.02566C29.1976 3.85163 29.5842 3.87212 29.9269 4.04608C30.2299 4.19995 30.4625 4.45813 30.6378 4.6654C30.8256 4.88725 30.8742 5.15663 30.8806 5.36748C30.8871 5.58428 30.8511 5.8066 30.805 6.00257C30.7188 6.36983 30.5748 6.73356 30.4938 6.93818L30.4785 6.97692C30.1607 7.78267 29.5902 8.65018 28.9897 9.31998L28.9993 9.32229C30.2899 9.6313 31.4371 10.1876 32.4873 10.8383C33.372 11.3863 34.1066 11.7237 35.1581 11.8633C36.3972 12.0277 37.6215 11.8678 38.8129 11.4932C39.5892 11.2492 40.1908 11.0234 40.7634 10.8086L40.7637 10.8085C41.0136 10.7147 41.2579 10.6231 41.5089 10.5328C42.3308 10.2373 43.1749 9.9769 44.3937 9.76233C45.0776 9.64191 45.6039 9.65848 46.2614 9.78071C46.356 9.79829 46.4435 9.81542 46.5261 9.83158C46.8613 9.89722 47.1155 9.94699 47.4356 9.94699C47.5912 9.94699 47.8416 9.86311 48.1054 9.73463C48.226 9.67589 48.3319 9.61666 48.4075 9.57208C48.4451 9.54992 48.4747 9.53173 48.4942 9.51949L48.5156 9.50594L48.5201 9.50303L48.5202 9.50298L48.5203 9.5029L48.5204 9.50283L48.5206 9.50272L48.5207 9.50264L48.5251 9.49978L48.5252 9.49974L48.5253 9.49965L48.5254 9.49959L48.5255 9.49948L48.5258 9.49935L48.5302 9.49643L48.5509 9.48278C48.5695 9.47033 48.5972 9.45148 48.6315 9.4273C48.7006 9.37863 48.7941 9.30989 48.8925 9.22945C49.1124 9.0497 49.2728 8.87798 49.3219 8.77262C49.4428 8.51336 49.751 8.40119 50.0103 8.52208C50.2695 8.64298 50.3817 8.95115 50.2608 9.21041C50.1024 9.55008 49.7696 9.85043 49.5482 10.0315C49.4259 10.1314 49.3117 10.2153 49.2282 10.2741C49.1863 10.3037 49.1516 10.3273 49.1268 10.3439L49.0972 10.3634L49.0896 10.3684L49.0894 10.3685L49.089 10.3687L49.0886 10.369L49.088 10.3694L49.0859 10.3708L49.0852 10.3713L49.085 10.3713L49.0847 10.3716L49.0845 10.3717L49.076 10.3772L49.0443 10.3973C49.0177 10.414 48.98 10.4371 48.9334 10.4646C48.8406 10.5193 48.7101 10.5924 48.559 10.666C48.2794 10.8021 47.8452 10.9829 47.4356 10.9829C47.0057 10.9829 46.637 10.91 46.2924 10.8419L46.2923 10.8419C46.2179 10.8271 46.1446 10.8127 46.0721 10.7992C45.5226 10.697 45.1219 10.686 44.5733 10.7826C43.4255 10.9846 42.6396 11.2271 41.8594 11.5077C41.6306 11.5899 41.3981 11.6771 41.1548 11.7684C40.5723 11.9869 39.9276 12.2287 39.1236 12.4815C37.8188 12.8917 36.4401 13.0784 35.0218 12.8902C33.7774 12.7251 32.9023 12.314 31.9418 11.7189C30.9527 11.1061 29.9091 10.6053 28.7581 10.3297C28.538 10.277 28.3092 10.2372 28.0742 10.2084C28.0501 10.2297 28.026 10.2509 28.0018 10.2721C28.0647 10.3833 28.1366 10.5003 28.2161 10.6242C28.2636 10.6983 28.3147 10.776 28.3674 10.8562L28.3674 10.8563C28.5465 11.1288 28.7443 11.4296 28.8843 11.7131C29.4 12.7575 29.7974 13.7658 29.9719 14.9765C30.2322 16.7824 30.3293 18.2029 30.3293 20.0238C30.3293 20.3098 30.0974 20.5417 29.8114 20.5417C29.5253 20.5417 29.2934 20.3098 29.2934 20.0238C29.2934 18.2504 29.1996 16.8793 28.9466 15.1242C28.7937 14.0634 28.4459 13.165 27.9554 12.1718C27.8463 11.9508 27.699 11.7264 27.5289 11.4673L27.5289 11.4673L27.5287 11.4669C27.4697 11.377 27.4079 11.283 27.3441 11.1834C27.2955 11.1077 27.2459 11.0289 27.1967 10.9475C27.0389 11.0757 26.8815 11.2021 26.7255 11.3272L26.7255 11.3273L26.7254 11.3273L26.7252 11.3275L26.7252 11.3275C26.5861 11.4391 26.4482 11.5498 26.3122 11.6601C25.5279 12.2959 24.7913 12.9291 24.1602 13.6955C23.2801 14.7642 22.542 15.9063 22.1455 17.181C21.999 17.6516 21.957 17.903 21.957 18.3874C21.957 18.6735 21.7251 18.9054 21.439 18.9054C21.153 18.9054 20.9211 18.6735 20.9211 18.3874C20.9211 17.7904 20.9814 17.4353 21.1563 16.8733C21.6082 15.4208 22.436 14.1596 23.3605 13.037C24.0616 12.1857 24.8669 11.4982 25.6598 10.8554C25.8042 10.7383 25.9478 10.623 26.0904 10.5086L26.0906 10.5084L26.3014 10.3389ZM27.954 8.9061C27.8753 8.98355 27.7958 9.0597 27.7156 9.13478L27.6741 9.13209C27.6982 8.9129 27.7227 8.67074 27.7464 8.42824C27.7714 8.17185 27.7958 7.91112 27.8181 7.67409L27.8182 7.67263V7.6726C27.8301 7.54536 27.8414 7.42496 27.8518 7.31577C27.8668 7.15809 27.8799 7.02404 27.8906 6.9236C27.8982 6.85187 27.9033 6.81071 27.9056 6.7916C27.9071 6.77951 27.9075 6.77624 27.9068 6.77965C28.016 6.27963 28.1439 5.91817 28.3314 5.64057C28.5105 5.37534 28.7647 5.15648 29.1832 4.98098C29.331 4.91899 29.399 4.93988 29.4579 4.96977C29.5542 5.01869 29.6673 5.12334 29.8359 5.32148C29.8387 5.33139 29.8438 5.35501 29.8451 5.39864C29.8478 5.48917 29.8323 5.6135 29.7966 5.76572C29.7283 6.05624 29.6099 6.35605 29.5267 6.56672L29.5148 6.59687C29.2026 7.3886 28.572 8.29783 27.954 8.9061Z" fill="#AF2225"/>
<path fill-rule="evenodd" clip-rule="evenodd" d="M24.2185 4.57048C23.9296 4.53717 23.5926 4.61934 23.2074 4.89449C23.0642 4.99679 23.0097 5.11784 23.0025 5.28341C22.9943 5.47423 23.0532 5.71621 23.1663 5.98834C23.6174 7.07378 24.721 8.02306 25.7499 8.83763C25.8103 8.88548 25.9729 9.01346 26.1775 9.15436C26.1694 9.04796 26.1637 8.94471 26.1594 8.86289L26.1571 8.82013L26.1533 8.74855C26.1527 8.73728 26.1522 8.72883 26.1518 8.72272C26.1515 8.71799 26.1512 8.71465 26.1511 8.71248L26.1511 8.71237C26.1508 8.70859 26.1508 8.70845 26.1511 8.71068C26.1306 8.5366 26.1124 8.36305 26.0942 8.19025L26.0942 8.19021L26.0941 8.18965C26.0413 7.68675 25.9891 7.19017 25.8844 6.70522C25.7458 6.06317 25.528 5.51778 25.1518 5.11331C24.8266 4.76379 24.51 4.60407 24.2185 4.57048ZM24.6967 10.6037C25.2339 10.5232 25.7998 10.4558 26.364 10.4238L26.1686 10.5808C26.0319 10.6906 25.8942 10.8012 25.7557 10.9135C24.9956 11.5297 24.2236 12.1887 23.5516 13.0048C22.6653 14.0809 21.8717 15.2899 21.4385 16.6823C21.4168 16.7523 21.3918 16.8283 21.3654 16.9091L21.3653 16.9092C21.226 17.3341 21.0431 17.8922 21.0431 18.4103C21.0431 18.6845 21.2654 18.9068 21.5396 18.9068C21.8138 18.9068 22.0361 18.6845 22.0361 18.4103C22.0361 18.0662 22.1561 17.6948 22.2939 17.2683L22.294 17.2682L22.294 17.268C22.3244 17.1739 22.3557 17.0771 22.3867 16.9774C22.7669 15.7554 23.4745 14.6605 24.3181 13.6361C24.9231 12.9014 25.6293 12.2944 26.3811 11.6849C26.5116 11.5791 26.6438 11.4729 26.7772 11.3659L26.7772 11.3659C26.927 11.2456 27.0782 11.1243 27.2298 11.0012C27.2765 11.0786 27.3238 11.1536 27.37 11.2256C27.4313 11.3212 27.4905 11.4115 27.5472 11.4977C27.7102 11.7461 27.8515 11.9612 27.9561 12.1731C28.4263 13.1252 28.7596 13.9864 28.9062 15.0034C29.1485 16.6846 29.2594 18.385 29.2594 20.0862C29.2594 20.3605 29.4817 20.5828 29.756 20.5828C30.0302 20.5828 30.2525 20.3605 30.2525 20.0862C30.2525 18.342 30.1388 16.5941 29.8891 14.8617C29.7218 13.7012 29.3409 12.7346 28.8465 11.7334C28.7123 11.4616 28.5227 11.1732 28.351 10.912C28.3005 10.8351 28.2515 10.7606 28.2059 10.6895C28.1554 10.6108 28.1081 10.535 28.0644 10.4618C28.2916 10.4894 28.5128 10.5278 28.7255 10.5788C29.8289 10.843 30.8295 11.3231 31.7775 11.9105C32.6984 12.4809 33.5373 12.875 34.7302 13.0333C36.0898 13.2137 37.4114 13.0347 38.6622 12.6415C39.0115 12.5317 39.3513 12.4231 39.6847 12.3164C41.4329 11.7575 43.0078 11.254 44.8788 10.9246C45.4048 10.832 45.7889 10.8426 46.3157 10.9405C46.3852 10.9534 46.4555 10.9673 46.5269 10.9814C46.8571 11.0467 47.2107 11.1166 47.6228 11.1166C48.0154 11.1166 48.4317 10.9433 48.6997 10.8128C48.8445 10.7422 48.9696 10.6722 49.0586 10.6198C49.1033 10.5934 49.1394 10.5712 49.1649 10.5552L49.1952 10.536L49.2041 10.5303L49.2068 10.5285L49.2078 10.5279L49.2081 10.5276L49.2083 10.5275C49.2084 10.5275 49.2084 10.5274 48.9354 10.1127L49.2084 10.5274L49.2386 10.5076L49.2656 10.4836L48.9354 10.1127C49.2656 10.4836 49.2656 10.4836 49.2656 10.4835L49.2657 10.4834L49.266 10.4832L49.2666 10.4826L49.2688 10.4807L49.2763 10.4739L49.3031 10.4497C49.3258 10.4289 49.358 10.3992 49.397 10.3624C49.4748 10.289 49.5811 10.1862 49.6946 10.0686C49.9038 9.85182 50.1994 9.523 50.3385 9.22471C50.4544 8.97618 50.3469 8.68075 50.0983 8.56486C49.8498 8.44897 49.5544 8.5565 49.4385 8.80503C49.3786 8.93337 49.1977 9.15345 48.9801 9.37896C48.8802 9.48246 48.7855 9.57406 48.7157 9.63988C48.681 9.67266 48.6527 9.69875 48.6334 9.71637C48.6147 9.72801 48.5879 9.74446 48.5545 9.76417C48.4819 9.80691 48.3804 9.86369 48.2648 9.92C48.012 10.0432 47.7719 10.1236 47.6228 10.1236C47.3159 10.1236 47.0722 10.0759 46.7508 10.0129C46.6717 9.99744 46.5878 9.98103 46.4972 9.96417C45.8668 9.847 45.3623 9.83112 44.7067 9.94655C42.764 10.2886 41.1182 10.8151 39.3688 11.3747L39.3679 11.375L39.3673 11.3752C39.0376 11.4807 38.7042 11.5873 38.3644 11.6941C37.2223 12.0532 36.0486 12.2065 34.8608 12.0489C33.8528 11.9151 33.1486 11.5917 32.3005 11.0663C31.2938 10.4426 30.194 9.90925 28.9568 9.61303C28.911 9.60208 28.8651 9.59164 28.8189 9.58169C29.4408 8.92361 30.0478 8.02536 30.375 7.19546L30.3897 7.15834L30.3897 7.15832C30.4674 6.96216 30.6054 6.61349 30.688 6.26143C30.7322 6.07356 30.7667 5.86044 30.7605 5.65261C30.7544 5.45049 30.7077 5.19225 30.5278 4.97958C30.3596 4.78088 30.1367 4.53339 29.8462 4.38588C29.5178 4.21912 29.1471 4.19948 28.7493 4.36631C28.1906 4.6006 27.7856 4.92655 27.4938 5.35859C27.21 5.77877 27.0543 6.2691 26.9395 6.79447C26.9351 6.81494 26.9308 6.84076 26.9267 6.86939C26.9054 6.74389 26.8817 6.61896 26.8551 6.49566C26.6989 5.77231 26.4286 5.02793 25.8789 4.43693C25.438 3.96306 24.9172 3.65137 24.3322 3.58395C23.7447 3.51623 23.1664 3.70342 22.6302 4.0864C22.2048 4.39031 22.029 4.81332 22.0104 5.24034C21.993 5.6421 22.1129 6.04124 22.2493 6.36944C22.7988 7.69176 24.0631 8.76546 25.0518 9.55146C24.8803 9.57354 24.7125 9.59719 24.5495 9.62164C23.5861 9.76608 22.6133 10.0102 21.6722 10.2463L21.6722 10.2463C21.15 10.3774 20.6375 10.506 20.1418 10.6137C18.714 10.9241 17.3217 11.093 15.8705 10.8082C14.8412 10.6062 13.8615 10.2792 12.8749 9.91156C12.5491 9.79016 12.2192 9.66295 11.886 9.53451C11.2244 9.27941 10.5502 9.01948 9.87116 8.79072C9.00921 8.50036 8.11116 8.22832 7.1747 8.06345C6.81198 7.99959 6.62899 7.71704 6.44915 7.43933L6.44914 7.43932C6.43235 7.4134 6.41559 7.38752 6.39872 7.36187C6.24801 7.13276 5.94012 7.06921 5.71102 7.21991C5.48191 7.37062 5.41836 7.67851 5.56906 7.90762C5.57939 7.92331 5.59201 7.94382 5.60706 7.96827L5.60708 7.9683C5.76276 8.22125 6.17827 8.89636 7.00251 9.04147C7.86564 9.19343 8.70842 9.44693 9.55413 9.73182C10.2142 9.95416 10.8518 10.2001 11.5004 10.4503L11.5004 10.4503C11.8385 10.5807 12.1795 10.7122 12.5282 10.8421C13.5321 11.2162 14.5709 11.5651 15.6793 11.7827C17.3256 12.1058 18.873 11.9058 20.3527 11.5841C20.9167 11.4615 21.4581 11.3252 21.9912 11.1909C22.8935 10.9636 23.7722 10.7423 24.6967 10.6037ZM27.6818 9.30563C27.7739 9.22022 27.8649 9.1334 27.9549 9.04482C28.5474 8.46172 29.1519 7.5901 29.4512 6.83114L29.4626 6.80222C29.5424 6.60027 29.6559 6.31287 29.7213 6.03438C29.7556 5.88845 29.7705 5.76926 29.7678 5.68248C29.7666 5.64065 29.7617 5.61802 29.7591 5.60852C29.5974 5.41857 29.489 5.31825 29.3966 5.27136C29.3402 5.2427 29.275 5.22268 29.1333 5.2821C28.7321 5.45034 28.4885 5.66014 28.3168 5.9144C28.137 6.18051 28.0144 6.52702 27.9097 7.00635C27.9101 7.00462 27.9102 7.00469 27.9099 7.00687C27.9097 7.0088 27.9093 7.01237 27.9086 7.01781C27.9063 7.03613 27.9015 7.07558 27.8942 7.14434C27.8839 7.24063 27.8714 7.36913 27.857 7.52029L27.8248 7.86245L27.8246 7.86408C27.8033 8.09122 27.7799 8.34105 27.7559 8.58673C27.7317 8.83561 27.7065 9.08411 27.6818 9.30563Z" fill="#D6282C"/>
</svg>
