<svg width="19" height="36" viewBox="0 0 19 36" fill="none" xmlns="http://www.w3.org/2000/svg">
<path d="M3.69198 17.9987L17.8453 32.1529C18.1575 32.4646 18.3242 32.8471 18.3453 33.3004C18.367 33.7532 18.2003 34.1568 17.8453 34.5112C17.4909 34.8662 17.0978 35.0437 16.6661 35.0437C16.2345 35.0437 15.8414 34.8662 15.487 34.5112L0.858645 19.8837C0.56809 19.5926 0.363922 19.2954 0.246145 18.9921C0.128922 18.6887 0.0703125 18.3576 0.0703125 17.9987C0.0703125 17.6399 0.128922 17.3087 0.246145 17.0054C0.363922 16.7021 0.56809 16.4049 0.858645 16.1137L15.487 1.48624C15.7986 1.17402 16.1811 1.00736 16.6345 0.986244C17.0873 0.964578 17.4909 1.13124 17.8453 1.48624C18.2003 1.84069 18.3778 2.23375 18.3778 2.66541C18.3778 3.09708 18.2003 3.49014 17.8453 3.84458L3.69198 17.9987Z" fill="#1B1B1B"/>
</svg>
