<svg width="96" height="59" viewBox="0 0 96 59" fill="none" xmlns="http://www.w3.org/2000/svg">
<path d="M5.93137 47.1484C5.5787 47.1484 5.243 46.743 4.98375 46.5186C3.79945 45.494 5.09044 43.4495 5.74373 42.5332C6.75622 41.1131 8.39801 40.0222 9.86259 39.1165C11.7566 37.9452 13.784 37.6204 15.8767 37.0157C19.2332 36.0457 22.3571 34.9163 25.428 33.1901C28.3331 31.5569 30.8431 29.4532 32.9761 26.9064C33.5901 26.1733 34.244 25.4713 34.801 24.6928C35.0238 24.3815 35.265 24.0339 35.5797 23.8046C36.1505 23.3887 37.1732 23.9555 37.6438 24.3075C39.282 25.5326 39.2231 27.6158 38.0144 29.1294C37.0501 30.337 35.7334 31.3619 34.9839 32.7295L34.9591 32.7747C34.2528 34.0634 33.3933 35.6314 33.5813 37.1379C33.7559 38.5376 34.5058 39.5437 35.3921 40.5781C36.3039 41.6424 37.4853 42.6934 37.5875 44.1782C37.6603 45.2348 37.5965 46.0775 36.8792 46.8899C36.7182 47.0722 36.5105 47.2041 36.3303 47.3646L20.9014 49.6238L5.93137 47.1484Z" fill="#F9BE51"/>
<path d="M34.9839 32.7295C35.7334 31.3619 37.0501 30.337 38.0144 29.1294C39.2231 27.6158 39.282 25.5326 37.6438 24.3075C37.1732 23.9555 36.1505 23.3887 35.5797 23.8046C35.265 24.0339 35.0238 24.3815 34.801 24.6928C34.244 25.4713 33.5901 26.1733 32.9761 26.9064C30.843 29.4532 28.3331 31.5569 25.428 33.1901C22.3571 34.9163 19.2332 36.0457 15.8767 37.0157C13.784 37.6204 11.7566 37.9452 9.86259 39.1165C8.39801 40.0222 6.75622 41.1131 5.74373 42.5332C5.09044 43.4495 3.79945 45.494 4.98375 46.5186C5.243 46.743 5.5787 47.1484 5.93137 47.1484L20.9014 49.6238L36.3303 47.3646C36.5105 47.2041 36.7182 47.0722 36.8792 46.8899C37.5965 46.0775 37.6603 45.2348 37.5875 44.1782C37.4853 42.6934 36.3039 41.6424 35.3921 40.5781C34.5058 39.5437 33.7559 38.5376 33.5813 37.1379C33.3933 35.6314 34.2528 34.0634 34.9591 32.7747M34.9839 32.7295L34.9591 32.7747M34.9839 32.7295C34.9757 32.7445 34.9674 32.7596 34.9591 32.7747" stroke="#F9BE51" stroke-width="0.301668" stroke-linecap="round"/>
<path d="M27.7699 46.9308C24.4355 44.8368 23.8879 39.2727 29.8599 33.7683C35.8319 28.264 37.0265 23.8965 37.0265 23.8965C37.0265 23.8965 39.2905 24.8138 39.4153 26.5888C39.6565 30.0162 34.194 31.8416 33.8911 35.2641C33.6052 38.4958 37.495 39.9755 37.9223 43.1915C38.1301 44.7548 38.268 45.5687 37.4744 46.9308C36.5937 48.4426 34.4172 50.0747 33.1446 48.8753C32.5531 48.3178 31.1043 49.0249 27.7699 46.9308Z" fill="#E79F1C"/>
<path d="M37.0265 23.8965L37.0832 23.7567C37.0432 23.7405 36.9983 23.7422 36.9596 23.7613C36.921 23.7804 36.8924 23.8151 36.881 23.8567L37.0265 23.8965ZM39.4153 26.5888L39.5658 26.5782L39.4153 26.5888ZM33.8911 35.2641L34.0414 35.2774L33.8911 35.2641ZM37.9223 43.1915L38.0719 43.1716L37.9223 43.1915ZM37.4744 46.9308L37.3441 46.8549L37.4744 46.9308ZM33.1446 48.8753L33.0412 48.9851L33.1446 48.8753ZM27.8501 46.8031C26.2349 45.7887 25.2867 43.9308 25.4753 41.6408C25.6642 39.3482 26.9952 36.6139 29.9622 33.8793L29.7577 33.6574C26.7527 36.4271 25.3715 39.2271 25.1747 41.6161C24.9777 44.0078 25.9705 45.9789 27.6897 47.0586L27.8501 46.8031ZM29.9622 33.8793C32.9593 31.1169 34.7603 28.6372 35.8128 26.8447C36.339 25.9485 36.678 25.2243 36.8859 24.7227C36.9898 24.4719 37.061 24.2767 37.1063 24.1435C37.129 24.0769 37.1452 24.0258 37.1559 23.991C37.1612 23.9736 37.1651 23.9603 37.1678 23.9511C37.1691 23.9466 37.1701 23.943 37.1708 23.9405C37.1712 23.9393 37.1715 23.9383 37.1716 23.9376C37.1717 23.9373 37.1718 23.937 37.1719 23.9367C37.1719 23.9366 37.172 23.9365 37.172 23.9365C37.172 23.9364 37.172 23.9363 37.0265 23.8965C36.881 23.8567 36.8811 23.8566 36.8811 23.8566C36.8811 23.8566 36.8811 23.8566 36.8811 23.8566C36.881 23.8567 36.881 23.8568 36.881 23.8569C36.8809 23.8573 36.8807 23.8579 36.8805 23.8588C36.88 23.8606 36.8792 23.8634 36.878 23.8672C36.8758 23.8749 36.8723 23.8868 36.8674 23.9027C36.8577 23.9346 36.8424 23.9827 36.8208 24.0463C36.7774 24.1735 36.7086 24.3625 36.6072 24.6072C36.4045 25.0965 36.0716 25.8082 35.5527 26.6919C34.5149 28.4592 32.7326 30.9155 29.7577 33.6574L29.9622 33.8793ZM37.0265 23.8965C36.9699 24.0363 36.9699 24.0363 36.9698 24.0363C36.9698 24.0363 36.9698 24.0362 36.9698 24.0362C36.9698 24.0363 36.9699 24.0363 36.9699 24.0363C36.9701 24.0364 36.9704 24.0365 36.9708 24.0367C36.9716 24.037 36.973 24.0376 36.9749 24.0384C36.9787 24.0399 36.9846 24.0424 36.9923 24.0458C37.0079 24.0525 37.0312 24.0627 37.0611 24.0764C37.1209 24.1039 37.2072 24.1454 37.3115 24.2008C37.5203 24.3116 37.7994 24.4772 38.0816 24.6962C38.6508 25.1377 39.2069 25.7758 39.2649 26.5994L39.5658 26.5782C39.4989 25.6268 38.8606 24.9187 38.2666 24.4578C37.9672 24.2256 37.6725 24.0509 37.453 23.9343C37.343 23.876 37.2515 23.8319 37.187 23.8023C37.1548 23.7875 37.1293 23.7763 37.1116 23.7687C37.1028 23.7649 37.0959 23.762 37.0911 23.76C37.0887 23.759 37.0869 23.7582 37.0855 23.7577C37.0849 23.7574 37.0843 23.7572 37.0839 23.757C37.0837 23.7569 37.0836 23.7569 37.0835 23.7568C37.0834 23.7568 37.0833 23.7568 37.0833 23.7567C37.0832 23.7567 37.0832 23.7567 37.0265 23.8965ZM39.2649 26.5994C39.322 27.4118 39.0427 28.1351 38.572 28.8239C38.0993 29.5155 37.441 30.1617 36.753 30.8193C36.0695 31.4725 35.3563 32.1373 34.797 32.8539C34.2365 33.5722 33.8201 34.3553 33.7409 35.2508L34.0414 35.2774C34.1135 34.4617 34.4936 33.7331 35.0349 33.0395C35.5775 32.3442 36.2716 31.6967 36.9614 31.0373C37.6467 30.3823 38.3279 29.7156 38.821 28.9941C39.3161 28.2697 39.6292 27.4796 39.5658 26.5782L39.2649 26.5994ZM33.7409 35.2508C33.5918 36.9358 34.5364 38.1581 35.5239 39.3308C36.5237 40.5183 37.5662 41.6562 37.7728 43.2114L38.0719 43.1716C37.8512 41.5108 36.735 40.3008 35.7546 39.1365C34.7618 37.9575 33.9045 36.8241 34.0414 35.2774L33.7409 35.2508ZM37.7728 43.2114C37.8775 43.9991 37.9609 44.5759 37.9234 45.1264C37.8864 45.6689 37.7311 46.1906 37.3441 46.8549L37.6048 47.0068C38.0113 46.309 38.1838 45.7427 38.2244 45.1469C38.2644 44.5591 38.1749 43.9472 38.0719 43.1716L37.7728 43.2114ZM37.3441 46.8549C36.9163 47.5892 36.1711 48.3548 35.3838 48.7876C34.5928 49.2224 33.813 49.2979 33.2481 48.7655L33.0412 48.9851C33.7489 49.652 34.6936 49.5112 35.5291 49.0519C36.3684 48.5906 37.1518 47.7842 37.6048 47.0068L37.3441 46.8549ZM33.2481 48.7655C33.0651 48.5931 32.8241 48.5275 32.5488 48.4819C32.4099 48.459 32.2529 48.4399 32.0829 48.4177C31.9113 48.3952 31.7224 48.3689 31.5127 48.3309C30.6783 48.1795 29.5007 47.8397 27.8501 46.8031L27.6897 47.0586C29.3735 48.116 30.5874 48.4696 31.4589 48.6277C31.6758 48.667 31.8704 48.694 32.0436 48.7168C32.2184 48.7397 32.3673 48.7577 32.4996 48.7796C32.7665 48.8237 32.9283 48.8787 33.0412 48.9851L33.2481 48.7655Z" fill="#E79F1C"/>
<path d="M37.0264 47.0811C32.1349 48.4633 9.33078 47.5231 2.16248 47.1871C1.21691 47.1428 0.570337 48.1639 1.03774 48.987C3.13304 52.6772 7.10701 57.9999 17.6174 57.9999C31.5991 57.9999 35.1146 51.927 37.8655 49.0839C38 48.945 38.1661 48.8464 38.3513 48.7912C41.812 47.7588 50.7917 45.6521 61.3624 44.8375C71.915 44.0242 86.4177 43.3332 92.9007 43.0655C93.2574 43.0508 93.5879 42.8793 93.8059 42.5966L94.4534 41.7571C95.0737 40.9529 94.4868 39.7926 93.4718 39.8259C88.2858 39.9964 78.922 40.3971 69.126 41.0981C57.4208 41.9357 42.8491 45.4358 37.0264 47.0811Z" fill="#EDEDED" stroke="#EDEDED" stroke-width="0.301668" stroke-linecap="round"/>
<path d="M29.4635 52.8668C28.9452 53.1378 28.3986 53.359 27.8494 53.5578C26.3948 54.0843 24.9434 54.5482 23.4427 54.9266L23.4095 54.935C22.4198 55.1846 21.4294 55.4342 20.5658 56.0052C20.4701 56.0685 20.1419 56.2528 20.2298 56.4149C20.3063 56.5559 20.548 56.6227 20.6893 56.6288C21.4623 56.6624 22.2115 56.5011 22.9442 56.2693C23.3924 56.1276 23.8552 56.0383 24.3019 55.8943C24.9975 55.6701 27.1573 54.9494 27.8494 54.7104C29.8569 54.0172 30.5076 53.732 32.3981 52.766C32.9579 52.4799 33.4014 51.9482 33.8309 51.481C33.9894 51.3084 34.3204 50.8301 34.1861 50.584C34.0388 50.3139 33.6889 50.2763 33.4403 50.3278C33.0685 50.4049 32.8569 50.5245 32.3194 50.852C31.7819 51.1795 31.4596 51.6247 30.9051 52.0181C30.3383 52.4203 29.4635 52.8668 29.4635 52.8668Z" fill="white"/>
<path d="M23.4427 54.9266C24.9434 54.5482 26.3948 54.0843 27.8494 53.5578C28.3986 53.359 28.9452 53.1378 29.4635 52.8668C29.4635 52.8668 30.3383 52.4203 30.9051 52.0181C31.4596 51.6247 31.7819 51.1795 32.3194 50.852C32.8569 50.5245 33.0685 50.4049 33.4403 50.3278C33.6889 50.2763 34.0388 50.3139 34.1861 50.584C34.3204 50.8301 33.9894 51.3084 33.8309 51.481C33.4014 51.9482 32.9579 52.4799 32.3981 52.766C30.5076 53.732 29.8569 54.0172 27.8494 54.7104C27.1573 54.9494 24.9975 55.6701 24.3019 55.8943C23.8552 56.0383 23.3924 56.1276 22.9442 56.2693C22.2115 56.5011 21.4623 56.6624 20.6893 56.6288C20.548 56.6227 20.3063 56.5559 20.2298 56.4149C20.1419 56.2528 20.4701 56.0685 20.5658 56.0052C21.4294 55.4342 22.4198 55.1846 23.4095 54.935M23.4427 54.9266L23.4095 54.935M23.4427 54.9266C23.4317 54.9294 23.4206 54.9322 23.4095 54.935" stroke="white" stroke-width="0.301668" stroke-linecap="round"/>
<path d="M46.7116 8.00456C47.0167 7.4838 47.1593 6.87572 47.378 6.31564C47.6274 5.05091 47.3828 4.14018 47.5573 3.28568C47.7664 2.26122 48.3028 1.40813 49.3719 1.1647C50.7214 0.857439 52.2583 0.881544 53.1805 2.10736C54.877 4.36261 54.4691 7.71588 53.3597 10.0975C51.8296 13.3823 48.7988 15.7731 45.709 17.5377C44.6058 18.1678 43.4553 18.1689 42.2421 17.9586C41.3401 17.8021 40.4219 17.5997 40.4219 16.5277C40.4219 14.3962 42.5925 12.4454 43.984 11.0514C44.9814 10.0521 45.9848 9.24503 46.7116 8.00456Z" fill="#F9BE51" stroke="#F9BE51" stroke-width="0.301668" stroke-linecap="round"/>
<path d="M49.1138 9.9879C50.689 6.69022 50.073 0.604221 51.8012 1.16292C53.5293 1.72161 53.6413 2.62464 54.3394 4.3041C55.5625 7.24679 53.9258 9.43515 52.3985 12.2315C49.866 16.8681 43.2227 19.627 40.7588 17.4664C39.5647 16.4194 47.3448 13.6916 49.1138 9.9879Z" fill="#E79F1C" stroke="#E79F1C" stroke-width="0.301668"/>
</svg>
