<svg width="32" height="100" viewBox="0 0 32 100" fill="none" xmlns="http://www.w3.org/2000/svg">
<path d="M23.6152 20.5776V8.78516C23.6152 8.78516 19.789 10.0015 15.9941 10.0015C12.1993 10.0015 8.37307 8.78516 8.37307 8.78516V20.5814C8.37307 24.766 6.89129 28.8154 4.19044 32.0118C1.48959 35.2081 0.0078125 39.2575 0.0078125 43.4421V95.9801C0.0078125 97.6624 1.3716 99.0262 3.05392 99.0262H28.9459C30.6282 99.0262 31.992 97.6624 31.992 95.9801V43.4459C31.992 39.2591 30.508 35.2079 27.8036 32.0118C25.0992 28.8156 23.6152 24.7644 23.6152 20.5776Z" fill="#DBDBDB" fill-opacity="0.7"/>
<path d="M29.5889 90.6851V44.1709C29.5889 40.2821 28.2201 36.5174 25.7224 33.5368C24.0804 31.5773 22.8638 29.2978 22.1499 26.843L21.7094 25.3281H10.2808L9.83916 26.8469C9.12601 29.2992 7.9116 31.5768 6.27277 33.5355C3.77806 36.5172 2.41113 40.281 2.41113 44.1687V90.6851C2.41113 94.0497 5.13871 96.7773 8.50335 96.7773H23.4967C26.8613 96.7773 29.5889 94.0497 29.5889 90.6851Z" fill="#302A1F"/>
<rect x="0.0078125" y="48.0469" width="31.9842" height="37.0793" fill="white"/>
<rect x="0.0078125" y="80.2617" width="31.9842" height="4.86225" fill="#F9BE51"/>
<rect x="0.0078125" y="51.6406" width="31.9842" height="29.8861" fill="#D6282C"/>
<path d="M6.64945 76.7211C6.56189 76.7932 6.39565 76.7612 6.28542 76.7585C5.7819 76.7462 5.68444 75.9747 5.65931 75.6136C5.62037 75.054 5.80495 74.4475 5.98341 73.9232C6.21419 73.2452 6.65116 72.7501 7.04709 72.1721C7.68212 71.2451 8.22684 70.326 8.63634 69.2696C9.02374 68.2702 9.21682 67.2347 9.22574 66.1663C9.2283 65.8588 9.24712 65.5508 9.22626 65.2436C9.21791 65.1208 9.20674 64.9852 9.238 64.8639C9.29469 64.6439 9.66448 64.5756 9.85329 64.5668C10.5105 64.536 10.9218 65.0653 10.9311 65.6882C10.9386 66.1852 10.8212 66.7088 10.9147 67.2016L10.9178 67.2179C11.0059 67.6822 11.1131 68.2473 11.4677 68.5828C11.7973 68.8947 12.1892 68.9911 12.6207 69.0668C13.0646 69.1446 13.5728 69.164 13.9018 69.5117C14.1359 69.7592 14.2923 69.9815 14.2803 70.3298C14.2776 70.408 14.253 70.4832 14.2411 70.5599L10.8723 74.2752L6.64945 76.7211Z" fill="#302A1F"/>
<path d="M12.027 72.2027C10.771 72.3645 9.4975 71.095 9.8549 68.5075C10.2123 65.9199 9.61597 64.5913 9.61597 64.5913C9.61597 64.5913 10.3656 64.3562 10.7595 64.7714C11.5201 65.5731 10.537 67.143 11.1615 68.0547C11.7512 68.9155 13.0195 68.4876 13.7831 69.1987C14.1543 69.5444 14.355 69.7183 14.4364 70.2187C14.5268 70.7741 14.3201 71.6243 13.7589 71.5867C13.4981 71.5692 13.2829 72.041 12.027 72.2027Z" fill="#242119"/>
<path d="M14.3558 70.3473C13.4239 71.6906 7.5699 76.1193 5.72146 77.5014C5.47763 77.6837 5.52586 78.0694 5.8102 78.1782C7.08484 78.666 9.15971 79.1751 11.7692 77.0263C15.2406 74.1679 14.8718 71.9413 14.9736 70.673C14.9786 70.6111 14.9996 70.5526 15.0343 70.501C15.6825 69.5372 17.4812 67.1783 19.9392 64.815C22.3929 62.4556 25.8524 59.3191 27.4072 57.9272C27.4928 57.8506 27.5398 57.7405 27.5361 57.6257L27.5252 57.2849C27.5148 56.9584 27.1319 56.7903 26.8867 57.0061C25.634 58.1087 23.3911 60.1225 21.1022 62.2993C18.3673 64.9003 15.4651 68.7484 14.3558 70.3473Z" fill="#BBBBBB"/>
<path d="M27.5419 57.8068C26.0607 59.1303 22.4665 62.3849 19.9392 64.815C18.1052 66.5784 16.6381 68.3394 15.7423 69.5202C15.4361 69.9361 15.1778 70.2977 14.9822 70.5793C15.1466 70.33 15.4036 69.9665 15.7423 69.5202C16.9424 67.8897 18.8774 65.4241 20.6496 63.6685C22.8739 61.465 26.1712 58.8426 27.5419 57.8068Z" fill="#9E9E9E"/>
<path d="M13.544 73.1004C13.4466 73.3221 13.3262 73.5321 13.1989 73.7345C12.8616 74.2704 12.5082 74.7825 12.1153 75.2746L12.1066 75.2855C11.8474 75.6101 11.588 75.9349 11.4583 76.3483C11.4439 76.3941 11.3857 76.5392 11.4591 76.5783C11.5229 76.6123 11.6211 76.5801 11.6694 76.5492C11.9342 76.3799 12.138 76.1444 12.3171 75.8868C12.4266 75.7292 12.5553 75.5875 12.6637 75.4295C12.8325 75.1833 13.35 74.4101 13.5137 74.1594C13.9883 73.4321 14.1256 73.174 14.4871 72.3736C14.5941 72.1366 14.5956 71.8364 14.61 71.5632C14.6153 71.4624 14.5942 71.2083 14.4825 71.1491C14.3601 71.0842 14.2341 71.1525 14.1659 71.2299C14.064 71.3457 14.0267 71.4395 13.9383 71.6866C13.85 71.9336 13.865 72.1735 13.789 72.4488C13.7114 72.7303 13.544 73.1004 13.544 73.1004Z" fill="#9E9E9E"/>
<path d="M8.77125 58.6655C8.74054 58.4738 8.65163 58.2937 8.59144 58.1099C8.39477 57.7449 8.14786 57.5688 8.01648 57.321C7.85896 57.0239 7.81772 56.7024 8.0334 56.4234C8.30563 56.0712 8.69214 55.763 9.1717 55.8788C10.054 56.0919 10.6383 57.0079 10.8497 57.826C11.1414 58.9543 10.8777 60.1675 10.4713 61.2374C10.3262 61.6193 10.0408 61.8548 9.69662 62.0506C9.44068 62.1962 9.17132 62.3337 8.95217 62.0675C8.51639 61.5383 8.65648 60.6102 8.71695 59.9796C8.7603 59.5276 8.84442 59.1221 8.77125 58.6655Z" fill="#302A1F"/>
<path d="M9.7732 58.6665C9.49007 57.5258 8.09289 56.1407 8.63618 55.9261C9.17947 55.7115 9.3919 55.9128 9.90856 56.1871C10.8138 56.6676 10.8549 57.5455 11.0474 58.5521C11.3666 60.221 10.2812 62.2641 9.22774 62.2315C8.71722 62.2156 10.0912 59.9478 9.7732 58.6665Z" fill="#242119"/>
<path d="M5.47259 44.7917C4.94358 48.1566 4.68843 75.0476 5.47259 88.404C6.63356 100.665 14.7054 90.7076 11.3931 79.125C10.2073 74.9785 12.4034 55.3364 13.4504 53.0428C15.0494 46.2385 18.4307 41.3844 15.4601 32.1611C13.1579 25.0133 11.7647 32.603 9.67551 33.7997C7.58633 34.9964 6.97081 35.262 5.47259 44.7917Z" fill="#E4E4E4" fill-opacity="0.21"/>
<path d="M10.985 15.8841C10.985 16.7872 10.5529 19.282 10.985 22.6747C11.6249 25.789 16.0735 23.2598 14.248 20.3177C13.2256 17.6478 13.9063 15.4286 13.8333 14.0957C13.7749 13.0294 12.3541 12.8082 11.9473 12.8906C10.7959 13.1946 10.985 13.5215 10.985 15.8841Z" fill="white" fill-opacity="0.56"/>
<path d="M23.6153 20.5776V8.78516C23.6153 8.78516 22.1703 9.47433 19.2522 9.78642C19.2522 18.4128 19.2074 27.4586 21.073 30.056C27.0404 38.364 24.5528 79.4619 24.5528 99.0262H28.946C30.6283 99.0262 31.9921 97.6624 31.9921 95.9801V43.4459C31.9921 39.2591 30.5081 35.2079 27.8037 32.0118C25.0993 28.8156 23.6153 24.7644 23.6153 20.5776Z" fill="#4F4F4F" fill-opacity="0.2"/>
<rect x="7.17285" y="0.972656" width="17.6534" height="10.3458" rx="0.845316" fill="#F9BE51"/>
<rect x="10.291" y="0.972656" width="3.9684" height="10.3458" fill="#FCD18B"/>
<path d="M19.2549 0.972656H23.9808C24.4476 0.972656 24.8261 1.35112 24.8261 1.81797V10.4731C24.8261 10.94 24.4476 11.3185 23.9808 11.3185H19.2549V0.972656Z" fill="#E79F1C"/>
<rect x="12.7559" y="6.26953" width="6.48768" height="0.405419" rx="0.202709" fill="#C58B23"/>
<path d="M12.9893 6.67578H18.9658L18.647 8.26824C18.5868 8.56886 18.3228 8.78523 18.0162 8.78523H13.9729C13.6712 8.78523 13.41 8.57559 13.3448 8.28104L12.9893 6.67578Z" fill="#C58B23"/>
<path d="M12.9893 6.67578H18.9658L18.7364 6.95414C18.6142 7.10242 18.4322 7.18831 18.24 7.18831H13.7405C13.5596 7.18831 13.387 7.11211 13.2651 6.97839L12.9893 6.67578Z" fill="#835F1D"/>
</svg>
