<svg width="87" height="94" viewBox="0 0 87 94" fill="none" xmlns="http://www.w3.org/2000/svg">
<path d="M57.607 49.4485C57.1792 49.914 56.4608 49.9602 55.9769 49.5533L51.8303 46.067L80.4843 11.9862L86.0547 16.6697C86.5697 17.1027 86.6196 17.8778 86.1643 18.3732L57.607 49.4485Z" fill="#D3F3F5" fill-opacity="0.827451"/>
<rect x="51.8301" y="46.0664" width="9.16708" height="44.5258" transform="rotate(-139.944 51.8301 46.0664)" fill="#F4FEFF"/>
<path d="M44.8145 40.168L40.6678 36.6816C40.1839 36.2747 40.1061 35.5591 40.4912 35.0577L66.2009 1.58836C66.6108 1.05475 67.383 0.97077 67.898 1.40379L73.4685 6.08724L44.8145 40.168Z" fill="#FAFAFA"/>
<path d="M49.7856 56.6386C49.6387 56.8134 49.3778 56.8359 49.2031 56.689L34.8004 44.5797C34.6256 44.4327 34.603 44.1719 34.75 43.9971L35.2165 43.4423C35.287 43.3584 35.3881 43.3059 35.4973 43.2965L35.8373 43.2671C36.0648 43.2474 36.2333 43.047 36.2136 42.8195L36.1842 42.4795C36.1748 42.3702 36.2091 42.2617 36.2797 42.1778L36.4806 41.9388C36.5512 41.8548 36.6522 41.8024 36.7615 41.7929L37.1015 41.7635C37.329 41.7438 37.4974 41.5434 37.4778 41.3159L37.4484 40.9759C37.4389 40.8667 37.4732 40.7581 37.5438 40.6742L37.7448 40.4352C37.8153 40.3513 37.9164 40.2988 38.0256 40.2894L38.3656 40.2599C38.5931 40.2403 38.7616 40.0399 38.7419 39.8124L38.7125 39.4724C38.703 39.3631 38.7374 39.2546 38.808 39.1706L39.0089 38.9316C39.0795 38.8477 39.1805 38.7952 39.2897 38.7858L39.6298 38.7564C39.8573 38.7367 40.0257 38.5363 40.0061 38.3088L39.9766 37.9688C39.9672 37.8596 40.0015 37.751 40.0721 37.6671L40.2731 37.4281C40.3436 37.3441 40.4446 37.2917 40.5539 37.2822L41.1352 37.2319C41.2445 37.2225 41.353 37.2568 41.4369 37.3274L55.208 48.9057C55.2919 48.9762 55.3444 49.0773 55.3538 49.1865L55.4041 49.7678C55.4136 49.8771 55.3792 49.9856 55.3087 50.0695L55.1077 50.3086C55.0371 50.3925 54.9361 50.445 54.8269 50.4544L54.4869 50.4838C54.2594 50.5035 54.0909 50.7039 54.1106 50.9314L54.14 51.2714C54.1494 51.3806 54.1151 51.4892 54.0445 51.5731L53.8436 51.8121C53.773 51.8961 53.672 51.9485 53.5627 51.958L53.2227 51.9874C52.9952 52.0071 52.8267 52.2074 52.8464 52.4349L52.8758 52.775C52.8853 52.8842 52.8509 52.9927 52.7804 53.0767L52.5794 53.3157C52.5089 53.3996 52.4078 53.4521 52.2986 53.4615L51.9586 53.4909C51.7311 53.5106 51.5626 53.711 51.5823 53.9385L51.6117 54.2785C51.6211 54.3878 51.5868 54.4963 51.5162 54.5802L51.3153 54.8192C51.2447 54.9032 51.1437 54.9556 51.0344 54.9651L50.6944 54.9945C50.4669 55.0142 50.2984 55.2146 50.3181 55.4421L50.3475 55.7821C50.357 55.8913 50.3227 55.9999 50.2521 56.0838L49.7856 56.6386Z" fill="#C1C1C1"/>
<path d="M49.2793 54.1895L37.2508 44.0763" stroke="#F4F4F4" stroke-width="0.590671" stroke-linecap="round"/>
<path d="M51.7969 51.1934L39.7684 41.0802" stroke="#F4F4F4" stroke-width="0.590671" stroke-linecap="round"/>
<path d="M53.1094 49.6348L41.0809 39.5216" stroke="#F4F4F4" stroke-width="0.590671" stroke-linecap="round"/>
<path d="M50.5703 52.6543L38.5418 42.5411" stroke="#F4F4F4" stroke-width="0.590671" stroke-linecap="round"/>
<rect x="28.7031" y="69.3633" width="0.654791" height="0.654791" rx="0.327396" fill="#E6E6E6"/>
<rect x="34.5977" y="69.3633" width="0.654791" height="0.654791" rx="0.327396" fill="#E6E6E6"/>
<rect x="28.0488" y="63.4707" width="0.654791" height="0.654791" rx="0.327396" fill="#E6E6E6"/>
<rect x="35.252" y="63.4707" width="0.654791" height="0.654791" rx="0.327396" fill="#E6E6E6"/>
<rect x="37.8711" y="57.5762" width="0.654791" height="0.654791" rx="0.327396" fill="#E6E6E6"/>
<rect x="35.252" y="60.8496" width="0.654791" height="0.654791" rx="0.327396" fill="#E6E6E6"/>
<rect x="37.8711" y="54.957" width="0.654791" height="0.654791" rx="0.327396" fill="#E6E6E6"/>
<rect x="37.2168" y="58.2305" width="0.654791" height="0.654791" rx="0.327396" fill="#E6E6E6"/>
<rect x="39.8359" y="52.3379" width="0.654791" height="0.654791" rx="0.327396" fill="#E6E6E6"/>
<rect x="31.9785" y="59.541" width="0.654791" height="0.654791" rx="0.327396" fill="#E6E6E6"/>
<rect x="34.5977" y="53.6484" width="0.654791" height="0.654791" rx="0.327396" fill="#E6E6E6"/>
<rect x="33.2871" y="68.707" width="0.654791" height="0.654791" rx="0.327396" fill="#E6E6E6"/>
<rect x="26.7402" y="62.8145" width="0.654791" height="0.654791" rx="0.327396" fill="#E6E6E6"/>
<rect x="24.7754" y="71.3262" width="0.654791" height="0.654791" rx="0.327396" fill="#E6E6E6"/>
<rect x="30.668" y="71.3262" width="0.654791" height="0.654791" rx="0.327396" fill="#E6E6E6"/>
<rect x="31.3242" y="65.4336" width="0.654791" height="0.654791" rx="0.327396" fill="#F4F4F4"/>
<rect x="31.3242" y="62.8145" width="0.654791" height="0.654791" rx="0.327396" fill="#E6E6E6"/>
<rect x="33.9414" y="56.9219" width="0.654791" height="0.654791" rx="0.327396" fill="#E6E6E6"/>
<rect x="33.2871" y="60.1953" width="0.654791" height="0.654791" rx="0.327396" fill="#F4F4F4"/>
<rect x="35.9062" y="54.3027" width="0.654791" height="0.654791" rx="0.327396" fill="#F4F4F4"/>
<rect x="28.0488" y="61.5059" width="0.654791" height="0.654791" rx="0.327396" fill="#E6E6E6"/>
<rect x="29.3594" y="70.6719" width="0.654791" height="0.654791" rx="0.327396" fill="#E6E6E6"/>
<rect x="26.7402" y="72.6367" width="0.654791" height="0.654791" rx="0.327396" fill="#E6E6E6"/>
<rect x="32.6328" y="72.6367" width="0.654791" height="0.654791" rx="0.327396" fill="#E6E6E6"/>
<rect x="26.0859" y="66.7441" width="0.654791" height="0.654791" rx="0.327396" fill="#E6E6E6"/>
<rect x="33.2871" y="66.7441" width="0.654791" height="0.654791" rx="0.327396" fill="#E6E6E6"/>
<rect x="26.7402" y="68.0527" width="0.654791" height="0.654791" rx="0.327396" fill="#F4F4F4"/>
<rect x="24.7754" y="68.707" width="0.654791" height="0.654791" rx="0.327396" fill="#F4F4F4"/>
<rect x="31.3242" y="71.9824" width="0.654791" height="0.654791" rx="0.327396" fill="#E6E6E6"/>
<rect x="30.668" y="71.3262" width="0.654791" height="0.654791" rx="0.327396" fill="#F4F4F4"/>
<rect x="36.5605" y="71.3262" width="0.654791" height="0.654791" rx="0.327396" fill="#E6E6E6"/>
<rect x="30.0137" y="65.4336" width="0.654791" height="0.654791" rx="0.327396" fill="#E6E6E6"/>
<rect x="37.2168" y="65.4336" width="0.654791" height="0.654791" rx="0.327396" fill="#E6E6E6"/>
<rect x="35.252" y="70.6719" width="0.654791" height="0.654791" rx="0.327396" fill="#E6E6E6"/>
<rect x="28.7031" y="64.7793" width="0.654791" height="0.654791" rx="0.327396" fill="#E6E6E6"/>
<rect x="28.0488" y="71.3262" width="0.654791" height="0.654791" rx="0.327396" fill="#E6E6E6"/>
<rect x="33.9414" y="71.3262" width="0.654791" height="0.654791" rx="0.327396" fill="#E6E6E6"/>
<rect x="27.3945" y="65.4336" width="0.654791" height="0.654791" rx="0.327396" fill="#E6E6E6"/>
<rect x="34.5977" y="65.4336" width="0.654791" height="0.654791" rx="0.327396" fill="#E6E6E6"/>
<rect x="34.5977" y="62.8145" width="0.654791" height="0.654791" rx="0.327396" fill="#E6E6E6"/>
<rect x="37.2168" y="56.9219" width="0.654791" height="0.654791" rx="0.327396" fill="#E6E6E6"/>
<rect x="36.5605" y="60.1953" width="0.654791" height="0.654791" rx="0.327396" fill="#E6E6E6"/>
<rect x="39.1797" y="54.3027" width="0.654791" height="0.654791" rx="0.327396" fill="#E6E6E6"/>
<rect x="31.3242" y="61.5059" width="0.654791" height="0.654791" rx="0.327396" fill="#F4F4F4"/>
<rect x="33.9414" y="55.6113" width="0.654791" height="0.654791" rx="0.327396" fill="#F4F4F4"/>
<rect x="32.6328" y="70.6719" width="0.654791" height="0.654791" rx="0.327396" fill="#E6E6E6"/>
<rect x="26.0859" y="64.7793" width="0.654791" height="0.654791" rx="0.327396" fill="#E6E6E6"/>
<rect x="30.0137" y="69.3633" width="0.654791" height="0.654791" rx="0.327396" fill="#E6E6E6"/>
<rect x="35.9062" y="69.3633" width="0.654791" height="0.654791" rx="0.327396" fill="#E6E6E6"/>
<rect x="29.3594" y="63.4707" width="0.654791" height="0.654791" rx="0.327396" fill="#E6E6E6"/>
<rect x="31.9785" y="57.5762" width="0.654791" height="0.654791" rx="0.327396" fill="#E6E6E6"/>
<rect x="36.5605" y="63.4707" width="0.654791" height="0.654791" rx="0.327396" fill="#E6E6E6"/>
<rect x="39.1797" y="57.5762" width="0.654791" height="0.654791" rx="0.327396" fill="#E6E6E6"/>
<rect x="34.5977" y="68.707" width="0.654791" height="0.654791" rx="0.327396" fill="#F4F4F4"/>
<rect x="28.7031" y="62.1602" width="0.654791" height="0.654791" rx="0.327396" fill="#F4F4F4"/>
<rect x="31.3242" y="56.2676" width="0.654791" height="0.654791" rx="0.327396" fill="#F4F4F4"/>
<rect x="29.3594" y="70.6719" width="0.654791" height="0.654791" rx="0.327396" fill="#E6E6E6"/>
<rect x="35.252" y="70.6719" width="0.654791" height="0.654791" rx="0.327396" fill="#E6E6E6"/>
<rect x="28.7031" y="64.7793" width="0.654791" height="0.654791" rx="0.327396" fill="#E6E6E6"/>
<rect x="35.9062" y="64.7793" width="0.654791" height="0.654791" rx="0.327396" fill="#E6E6E6"/>
<rect x="33.9414" y="70.0176" width="0.654791" height="0.654791" rx="0.327396" fill="#F4F4F4"/>
<rect x="27.3945" y="64.125" width="0.654791" height="0.654791" rx="0.327396" fill="#E6E6E6"/>
<rect x="29.3594" y="71.9824" width="0.654791" height="0.654791" rx="0.327396" fill="#E6E6E6"/>
<rect x="35.252" y="71.9824" width="0.654791" height="0.654791" rx="0.327396" fill="#E6E6E6"/>
<rect x="28.7031" y="66.0879" width="0.654791" height="0.654791" rx="0.327396" fill="#E6E6E6"/>
<rect x="35.9062" y="66.0879" width="0.654791" height="0.654791" rx="0.327396" fill="#E6E6E6"/>
<rect x="33.9414" y="71.3262" width="0.654791" height="0.654791" rx="0.327396" fill="#E6E6E6"/>
<rect x="27.3945" y="65.4336" width="0.654791" height="0.654791" rx="0.327396" fill="#F4F4F4"/>
<rect x="27.3945" y="70.0176" width="0.654791" height="0.654791" rx="0.327396" fill="#E6E6E6"/>
<rect x="33.2871" y="70.0176" width="0.654791" height="0.654791" rx="0.327396" fill="#F4F4F4"/>
<rect x="26.7402" y="64.125" width="0.654791" height="0.654791" rx="0.327396" fill="#E6E6E6"/>
<rect x="33.9414" y="64.125" width="0.654791" height="0.654791" rx="0.327396" fill="#E6E6E6"/>
<rect x="33.9414" y="61.5059" width="0.654791" height="0.654791" rx="0.327396" fill="#E6E6E6"/>
<rect x="36.5605" y="55.6113" width="0.654791" height="0.654791" rx="0.327396" fill="#E6E6E6"/>
<rect x="35.9062" y="58.8867" width="0.654791" height="0.654791" rx="0.327396" fill="#E6E6E6"/>
<rect x="38.5254" y="52.9922" width="0.654791" height="0.654791" rx="0.327396" fill="#E6E6E6"/>
<rect x="30.668" y="60.1953" width="0.654791" height="0.654791" rx="0.327396" fill="#E6E6E6"/>
<rect x="33.2871" y="54.3027" width="0.654791" height="0.654791" rx="0.327396" fill="#E6E6E6"/>
<rect x="31.9785" y="69.3633" width="0.654791" height="0.654791" rx="0.327396" fill="#E6E6E6"/>
<rect x="25.4297" y="63.4707" width="0.654791" height="0.654791" rx="0.327396" fill="#E6E6E6"/>
<rect x="29.3594" y="68.0527" width="0.327396" height="0.327396" rx="0.163698" fill="#E6E6E6"/>
<rect x="30.668" y="68.0527" width="0.327396" height="0.327396" rx="0.163698" fill="#E6E6E6"/>
<rect x="31.3242" y="67.3984" width="0.327396" height="0.327396" rx="0.163698" fill="#E6E6E6"/>
<rect x="35.252" y="68.0527" width="0.327396" height="0.327396" rx="0.163698" fill="#E6E6E6"/>
<rect x="35.9062" y="62.1602" width="0.327396" height="0.327396" rx="0.163698" fill="#E6E6E6"/>
<rect x="38.5254" y="56.2676" width="0.327396" height="0.327396" rx="0.163698" fill="#E6E6E6"/>
<rect x="33.9414" y="67.3984" width="0.327396" height="0.327396" rx="0.163698" fill="#E6E6E6"/>
<rect x="28.7031" y="68.707" width="0.327396" height="0.327396" rx="0.163698" fill="#E6E6E6"/>
<rect x="34.5977" y="68.707" width="0.327396" height="0.327396" rx="0.163698" fill="#E6E6E6"/>
<rect x="35.252" y="62.8145" width="0.327396" height="0.327396" rx="0.163698" fill="#E6E6E6"/>
<rect x="37.8711" y="56.9219" width="0.327396" height="0.327396" rx="0.163698" fill="#E6E6E6"/>
<rect x="35.252" y="60.1953" width="0.327396" height="0.327396" rx="0.163698" fill="#E6E6E6"/>
<rect x="37.8711" y="54.3027" width="0.327396" height="0.327396" rx="0.163698" fill="#E6E6E6"/>
<rect x="37.2168" y="57.5762" width="0.327396" height="0.327396" rx="0.163698" fill="#E6E6E6"/>
<rect x="39.8359" y="51.6836" width="0.327396" height="0.327396" rx="0.163698" fill="#E6E6E6"/>
<rect x="31.9785" y="58.8867" width="0.327396" height="0.327396" rx="0.163698" fill="#E6E6E6"/>
<rect x="34.5977" y="52.9922" width="0.327396" height="0.327396" rx="0.163698" fill="#E6E6E6"/>
<rect x="33.2871" y="68.0527" width="0.327396" height="0.327396" rx="0.163698" fill="#E6E6E6"/>
<rect x="28.0488" y="68.707" width="0.327396" height="0.327396" rx="0.163698" fill="#E6E6E6"/>
<rect x="33.9414" y="68.707" width="0.327396" height="0.327396" rx="0.163698" fill="#F4F4F4"/>
<rect x="34.5977" y="62.8145" width="0.327396" height="0.327396" rx="0.163698" fill="#F4F4F4"/>
<rect x="37.2168" y="56.9219" width="0.327396" height="0.327396" rx="0.163698" fill="#F4F4F4"/>
<rect x="34.5977" y="60.1953" width="0.327396" height="0.327396" rx="0.163698" fill="#E6E6E6"/>
<rect x="37.2168" y="54.3027" width="0.327396" height="0.327396" rx="0.163698" fill="#E6E6E6"/>
<rect x="36.5605" y="57.5762" width="0.327396" height="0.327396" rx="0.163698" fill="#E6E6E6"/>
<rect x="39.1797" y="51.6836" width="0.327396" height="0.327396" rx="0.163698" fill="#E6E6E6"/>
<rect x="31.3242" y="58.8867" width="0.327396" height="0.327396" rx="0.163698" fill="#E6E6E6"/>
<rect x="33.9414" y="52.9922" width="0.327396" height="0.327396" rx="0.163698" fill="#E6E6E6"/>
<rect x="32.6328" y="68.0527" width="0.327396" height="0.327396" rx="0.163698" fill="#E6E6E6"/>
<rect x="28.7031" y="70.0176" width="0.327396" height="0.327396" rx="0.163698" fill="#E6E6E6"/>
<rect x="34.5977" y="70.0176" width="0.327396" height="0.327396" rx="0.163698" fill="#E6E6E6"/>
<rect x="28.0488" y="64.125" width="0.327396" height="0.327396" rx="0.163698" fill="#E6E6E6"/>
<rect x="35.252" y="64.125" width="0.327396" height="0.327396" rx="0.163698" fill="#E6E6E6"/>
<rect x="35.252" y="61.5059" width="0.327396" height="0.327396" rx="0.163698" fill="#E6E6E6"/>
<rect x="37.8711" y="55.6113" width="0.327396" height="0.327396" rx="0.163698" fill="#E6E6E6"/>
<rect x="37.2168" y="58.8867" width="0.327396" height="0.327396" rx="0.163698" fill="#E6E6E6"/>
<rect x="39.8359" y="52.9922" width="0.327396" height="0.327396" rx="0.163698" fill="#E6E6E6"/>
<rect x="31.9785" y="60.1953" width="0.327396" height="0.327396" rx="0.163698" fill="#E6E6E6"/>
<rect x="34.5977" y="54.3027" width="0.327396" height="0.327396" rx="0.163698" fill="#E6E6E6"/>
<rect x="33.2871" y="69.3633" width="0.327396" height="0.327396" rx="0.163698" fill="#E6E6E6"/>
<rect x="26.7402" y="63.4707" width="0.327396" height="0.327396" rx="0.163698" fill="#E6E6E6"/>
<rect x="28.7031" y="72.6367" width="0.327396" height="0.327396" rx="0.163698" fill="#E6E6E6"/>
<rect x="34.5977" y="72.6367" width="0.327396" height="0.327396" rx="0.163698" fill="#E6E6E6"/>
<rect x="30.668" y="74.6016" width="0.327396" height="0.327396" rx="0.163698" fill="#E6E6E6"/>
<rect x="28.0488" y="66.7441" width="0.327396" height="0.327396" rx="0.163698" fill="#E6E6E6"/>
<rect x="35.252" y="66.7441" width="0.327396" height="0.327396" rx="0.163698" fill="#E6E6E6"/>
<rect x="33.2871" y="71.9824" width="0.327396" height="0.327396" rx="0.163698" fill="#F4F4F4"/>
<rect x="29.3594" y="73.9473" width="0.327396" height="0.327396" rx="0.163698" fill="#E6E6E6"/>
<rect x="26.7402" y="66.0879" width="0.327396" height="0.327396" rx="0.163698" fill="#E6E6E6"/>
<rect x="26.0859" y="71.3262" width="0.327396" height="0.327396" rx="0.163698" fill="#E6E6E6"/>
<rect x="31.9785" y="71.3262" width="0.327396" height="0.327396" rx="0.163698" fill="#F4F4F4"/>
<rect x="28.0488" y="73.291" width="0.327396" height="0.327396" rx="0.163698" fill="#E6E6E6"/>
<rect x="25.4297" y="65.4336" width="0.327396" height="0.327396" rx="0.163698" fill="#E6E6E6"/>
<rect x="32.6328" y="65.4336" width="0.327396" height="0.327396" rx="0.163698" fill="#E6E6E6"/>
<rect x="32.6328" y="62.8145" width="0.327396" height="0.327396" rx="0.163698" fill="#E6E6E6"/>
<rect x="35.252" y="56.9219" width="0.327396" height="0.327396" rx="0.163698" fill="#E6E6E6"/>
<rect x="34.5977" y="60.1953" width="0.327396" height="0.327396" rx="0.163698" fill="#E6E6E6"/>
<rect x="37.2168" y="54.3027" width="0.327396" height="0.327396" rx="0.163698" fill="#E6E6E6"/>
<rect x="29.3594" y="61.5059" width="0.327396" height="0.327396" rx="0.163698" fill="#E6E6E6"/>
<rect x="31.9785" y="55.6113" width="0.327396" height="0.327396" rx="0.163698" fill="#E6E6E6"/>
<rect x="30.668" y="66.7441" width="0.327396" height="0.327396" rx="0.163698" fill="#E6E6E6"/>
<rect x="30.668" y="70.6719" width="0.327396" height="0.327396" rx="0.163698" fill="#F4F4F4"/>
<rect x="26.0859" y="70.0176" width="0.327396" height="0.327396" rx="0.163698" fill="#E6E6E6"/>
<rect x="31.9785" y="70.0176" width="0.327396" height="0.327396" rx="0.163698" fill="#E6E6E6"/>
<rect x="25.4297" y="64.125" width="0.327396" height="0.327396" rx="0.163698" fill="#E6E6E6"/>
<rect x="32.6328" y="64.125" width="0.327396" height="0.327396" rx="0.163698" fill="#E6E6E6"/>
<rect x="32.6328" y="61.5059" width="0.327396" height="0.327396" rx="0.163698" fill="#E6E6E6"/>
<rect x="35.252" y="55.6113" width="0.327396" height="0.327396" rx="0.163698" fill="#E6E6E6"/>
<rect x="34.5977" y="58.8867" width="0.327396" height="0.327396" rx="0.163698" fill="#E6E6E6"/>
<rect x="37.2168" y="52.9922" width="0.327396" height="0.327396" rx="0.163698" fill="#E6E6E6"/>
<rect x="29.3594" y="60.1953" width="0.327396" height="0.327396" rx="0.163698" fill="#E6E6E6"/>
<rect x="31.9785" y="54.3027" width="0.327396" height="0.327396" rx="0.163698" fill="#E6E6E6"/>
<rect x="30.668" y="65.4336" width="0.327396" height="0.327396" rx="0.163698" fill="#E6E6E6"/>
<rect x="30.668" y="62.8145" width="0.327396" height="0.327396" rx="0.163698" fill="#E6E6E6"/>
<rect x="33.2871" y="56.9219" width="0.327396" height="0.327396" rx="0.163698" fill="#E6E6E6"/>
<rect x="32.6328" y="60.1953" width="0.327396" height="0.327396" rx="0.163698" fill="#E6E6E6"/>
<rect x="35.252" y="54.3027" width="0.327396" height="0.327396" rx="0.163698" fill="#E6E6E6"/>
<rect x="27.3945" y="61.5059" width="0.327396" height="0.327396" rx="0.163698" fill="#E6E6E6"/>
<rect x="30.668" y="69.3633" width="0.327396" height="0.327396" rx="0.163698" fill="#E6E6E6"/>
<path d="M1 93.39C1.11789 93.2485 1.16423 93.07 1.26285 92.9168C1.50157 92.5462 1.77787 92.1972 2.05139 91.8523C2.95323 90.7152 3.69729 89.4573 4.72916 88.4254C5.36274 87.7918 6.19902 86.9719 7.09152 86.7202C7.63165 86.5678 8.16913 86.5474 8.70803 86.3555C9.57598 86.0463 10.2263 85.4179 10.9357 84.8441C12.138 83.8717 13.3682 82.9674 14.3067 81.7129C15.0689 80.6942 15.919 79.7956 16.8038 78.884C17.8527 77.8033 18.8527 76.6987 19.9514 75.6674C21.1623 74.5308 22.8518 73.4757 24.6005 73.8505C26.3308 74.2212 27.9248 75.521 29.2332 76.6498C29.7805 77.122 30.2502 77.6707 30.8793 78.0462C31.7056 78.5393 32.452 79.1635 33.3041 79.6101C34.2205 80.0904 34.5867 80.8457 35.5792 81.1485C36.4724 81.421 37.096 81.9024 37.871 82.4581C38.5568 82.9498 39.3195 83.2018 39.5318 83.9905C39.7923 84.958 40.7714 85.5626 41.0351 86.5296C41.2178 87.1995 41.5156 87.8053 41.7744 88.4484C41.9164 88.8012 42.0244 89.1402 42.2212 89.4637C42.3154 89.6184 42.3548 89.7837 42.4611 89.9335C42.5583 90.0705 42.7129 90.1809 42.7995 90.3146C43.1965 90.9282 43.1879 91.7956 42.9933 92.4766C42.94 92.6633 42.814 92.8745 42.6812 93.022C42.5224 93.1984 42.2882 93.1791 42.1029 93.2717L1 93.39Z" fill="#E6E6E6"/>
<path d="M1 93.39L0.773117 93.2009C0.699657 93.289 0.683907 93.4118 0.732728 93.5156C0.781549 93.6195 0.886101 93.6856 1.00085 93.6853L1 93.39ZM1.26285 92.9168L1.01456 92.7569H1.01456L1.26285 92.9168ZM2.05139 91.8523L2.28279 92.0358L2.05139 91.8523ZM4.72916 88.4254L4.938 88.6342L4.72916 88.4254ZM7.09152 86.7202L7.17169 87.0044L7.09152 86.7202ZM8.70803 86.3555L8.60894 86.0773L8.70803 86.3555ZM10.9357 84.8441L11.1214 85.0737L10.9357 84.8441ZM14.3067 81.7129L14.0702 81.536L14.3067 81.7129ZM16.8038 78.884L16.5918 78.6783L16.8038 78.884ZM19.9514 75.6674L20.1535 75.8827L19.9514 75.6674ZM24.6005 73.8505L24.5386 74.1392L24.6005 73.8505ZM29.2332 76.6498L29.0403 76.8734L29.2332 76.6498ZM30.8793 78.0462L31.0307 77.7926L30.8793 78.0462ZM33.3041 79.6101L33.4412 79.3485L33.3041 79.6101ZM35.5792 81.1485L35.4931 81.431L35.5792 81.1485ZM37.871 82.4581L37.6989 82.6981L37.871 82.4581ZM39.5318 83.9905L39.817 83.9137L39.5318 83.9905ZM41.0351 86.5296L41.32 86.4519L41.0351 86.5296ZM41.7744 88.4484L42.0484 88.3381L41.7744 88.4484ZM42.2212 89.4637L41.969 89.6172L42.2212 89.4637ZM42.4611 89.9335L42.7019 89.7626L42.4611 89.9335ZM42.7995 90.3146L43.0475 90.1542L42.7995 90.3146ZM42.9933 92.4766L42.7094 92.3954L42.9933 92.4766ZM42.6812 93.022L42.9007 93.2195L42.6812 93.022ZM42.1029 93.2717L42.1038 93.567L42.1731 93.5668L42.235 93.5358L42.1029 93.2717ZM1.22688 93.579C1.31137 93.4777 1.36557 93.3685 1.40548 93.2844C1.44969 93.1912 1.47515 93.1326 1.51114 93.0768L1.01456 92.7569C0.95193 92.8542 0.904908 92.9614 0.871825 93.0312C0.834435 93.11 0.806524 93.1608 0.773117 93.2009L1.22688 93.579ZM1.51114 93.0768C1.74072 92.7203 2.00787 92.3825 2.28279 92.0358L1.82 91.6688C1.54787 92.0119 1.26242 92.3721 1.01456 92.7569L1.51114 93.0768ZM2.28279 92.0358C2.73844 91.4613 3.15908 90.8499 3.58001 90.2736C4.00524 89.6914 4.43851 89.1337 4.938 88.6342L4.52033 88.2166C3.98795 88.749 3.53325 89.3362 3.10303 89.9252C2.66849 90.5201 2.26619 91.1062 1.82 91.6688L2.28279 92.0358ZM4.938 88.6342C5.25537 88.3169 5.61168 87.965 5.99624 87.6614C6.38233 87.3566 6.779 87.1152 7.17169 87.0044L7.01134 86.4359C6.51153 86.5769 6.04381 86.8713 5.63024 87.1978C5.21515 87.5255 4.83653 87.9004 4.52033 88.2166L4.938 88.6342ZM7.17169 87.0044C7.42417 86.9332 7.6754 86.8929 7.95222 86.8434C8.22308 86.795 8.51292 86.7385 8.80713 86.6337L8.60894 86.0773C8.36424 86.1644 8.11589 86.2141 7.84826 86.262C7.58657 86.3087 7.29899 86.3548 7.01134 86.4359L7.17169 87.0044ZM8.80713 86.6337C9.73649 86.3027 10.4407 85.6243 11.1214 85.0737L10.7499 84.6145C10.0118 85.2115 9.41546 85.79 8.60894 86.0773L8.80713 86.6337ZM11.1214 85.0737C12.308 84.114 13.5767 83.1817 14.5432 81.8898L14.0702 81.536C13.1596 82.7532 11.968 83.6293 10.7499 84.6145L11.1214 85.0737ZM14.5432 81.8898C15.293 80.8876 16.1314 80.0008 17.0157 79.0897L16.5918 78.6783C15.7066 79.5904 14.8448 80.5007 14.0702 81.536L14.5432 81.8898ZM17.0157 79.0897C18.0742 77.9991 19.0613 76.9079 20.1535 75.8827L19.7493 75.4521C18.6441 76.4895 17.6311 77.6076 16.5918 78.6783L17.0157 79.0897ZM20.1535 75.8827C21.3509 74.7588 22.9415 73.797 24.5386 74.1392L24.6624 73.5617C22.762 73.1545 20.9737 74.3027 19.7493 75.4521L20.1535 75.8827ZM24.5386 74.1392C26.1839 74.4918 27.7236 75.7374 29.0403 76.8734L29.4261 76.4262C28.126 75.3045 26.4777 73.9507 24.6624 73.5617L24.5386 74.1392ZM29.0403 76.8734C29.3111 77.1071 29.5467 77.3452 29.8257 77.6017C30.0955 77.8498 30.3876 78.0967 30.728 78.2998L31.0307 77.7926C30.7419 77.6202 30.4846 77.4051 30.2255 77.1668C29.9755 76.9371 29.7026 76.6647 29.4261 76.4262L29.0403 76.8734ZM30.728 78.2998C31.1304 78.54 31.513 78.8118 31.9143 79.0887C32.3114 79.3627 32.7238 79.6394 33.167 79.8717L33.4412 79.3485C33.0323 79.1343 32.6454 78.8755 32.2498 78.6025C31.8583 78.3324 31.4545 78.0455 31.0307 77.7926L30.728 78.2998ZM33.167 79.8717C33.5869 80.0918 33.8764 80.3709 34.2195 80.6689C34.558 80.9628 34.936 81.261 35.4931 81.431L35.6654 80.866C35.23 80.7332 34.9286 80.5023 34.6068 80.2229C34.2895 79.9474 33.9377 79.6088 33.4412 79.3485L33.167 79.8717ZM35.4931 81.431C36.3303 81.6864 36.912 82.1339 37.6989 82.6981L38.0431 82.218C37.28 81.6709 36.6146 81.1556 35.6654 80.866L35.4931 81.431ZM37.6989 82.6981C37.8804 82.8282 38.0658 82.9416 38.2355 83.0457C38.4087 83.152 38.5641 83.2478 38.7038 83.3507C38.9779 83.5525 39.1645 83.7622 39.2467 84.0673L39.817 83.9137C39.6868 83.4301 39.3859 83.1194 39.0541 82.8751C38.8909 82.7549 38.7138 82.6462 38.5444 82.5423C38.3717 82.4363 38.2045 82.3338 38.0431 82.218L37.6989 82.6981ZM39.2467 84.0673C39.3953 84.6194 39.747 85.059 40.0505 85.4432C40.3678 85.8451 40.6368 86.1917 40.7502 86.6073L41.32 86.4519C41.1697 85.9005 40.8173 85.4612 40.514 85.0772C40.1969 84.6756 39.9288 84.3291 39.817 83.9137L39.2467 84.0673ZM40.7502 86.6073C40.9389 87.2992 41.2523 87.9422 41.5004 88.5587L42.0484 88.3381C41.7788 87.6684 41.4968 87.0999 41.32 86.4519L40.7502 86.6073ZM41.5004 88.5587C41.6321 88.8859 41.7553 89.2662 41.969 89.6172L42.4735 89.3101C42.2934 89.0143 42.2007 88.7166 42.0484 88.3381L41.5004 88.5587ZM41.969 89.6172C42.0034 89.6738 42.028 89.7322 42.0662 89.8193C42.1017 89.9 42.1482 90.003 42.2202 90.1044L42.7019 89.7626C42.6676 89.7143 42.6413 89.6597 42.607 89.5816C42.5754 89.5099 42.5332 89.4082 42.4735 89.3101L41.969 89.6172ZM42.2202 90.1044C42.2864 90.1976 42.3694 90.2782 42.4258 90.3344C42.4909 90.3994 42.5282 90.4389 42.5515 90.4751L43.0475 90.1542C42.9843 90.0566 42.9009 89.974 42.8428 89.9161C42.7759 89.8494 42.733 89.8064 42.7019 89.7626L42.2202 90.1044ZM42.5515 90.4751C42.8838 90.9885 42.8918 91.7569 42.7094 92.3954L43.2773 92.5577C43.484 91.8344 43.5092 90.8678 43.0475 90.1542L42.5515 90.4751ZM42.7094 92.3954C42.6704 92.5317 42.5698 92.7043 42.4617 92.8244L42.9007 93.2195C43.0581 93.0447 43.2096 92.7948 43.2773 92.5577L42.7094 92.3954ZM42.4617 92.8244C42.4382 92.8505 42.4049 92.8705 42.3214 92.8941C42.3004 92.9001 42.2785 92.9057 42.2528 92.9123C42.2282 92.9185 42.1993 92.9258 42.1704 92.9338C42.1125 92.9498 42.0421 92.9719 41.9709 93.0075L42.235 93.5358C42.2946 93.506 42.3404 93.5027 42.4825 93.4624C42.6022 93.4285 42.7654 93.3699 42.9007 93.2195L42.4617 92.8244ZM1.00085 93.6853L42.1038 93.567L42.1021 92.9763L0.99915 93.0946L1.00085 93.6853Z" fill="#E6E6E6"/>
<path d="M32.306 82.7791C27.9711 79.8232 21.2436 73.7534 23.8832 73.7637C25.8472 73.7713 27.1515 75.2248 29.3588 76.2311C32.8759 77.8346 34.0188 78.2251 36.8889 80.8143C40.1629 83.7678 46.056 90.9705 43.1094 92.9349C40.7661 94.4971 35.7549 85.1309 32.306 82.7791Z" fill="#F4F4F4" stroke="#F4F4F4" stroke-width="0.590671" stroke-linecap="round"/>
</svg>
