<svg width="28" height="64" viewBox="0 0 28 64" fill="none" xmlns="http://www.w3.org/2000/svg">
<path d="M4.62043 26.1641H23.4822L24.2326 58.7614C24.2581 59.8683 23.3678 60.7793 22.2606 60.7793H5.74243C4.63288 60.7793 3.74163 59.8645 3.77055 58.7554L4.62043 26.1641Z" fill="#BCBCBC"/>
<circle cx="0.287142" cy="0.287142" r="0.287142" transform="matrix(1 0 0 -1 6.42578 28.8242)" fill="#7B7B7B"/>
<circle cx="0.287142" cy="0.287142" r="0.287142" transform="matrix(1 0 0 -1 7.625 38.8203)" fill="#7B7B7B"/>
<circle cx="0.287142" cy="0.287142" r="0.287142" transform="matrix(1 0 0 -1 11.0635 40.4414)" fill="#7B7B7B"/>
<circle cx="0.287142" cy="0.287142" r="0.287142" transform="matrix(1 0 0 -1 21.1621 35.3516)" fill="#7B7B7B"/>
<circle cx="0.287142" cy="0.287142" r="0.287142" transform="matrix(1 0 0 -1 15.4502 35.9258)" fill="#7B7B7B"/>
<circle cx="0.287142" cy="0.287142" r="0.287142" transform="matrix(1 0 0 -1 14.8281 28.8242)" fill="#7B7B7B"/>
<circle cx="0.287142" cy="0.287142" r="0.287142" transform="matrix(1 0 0 -1 12.082 34.7773)" fill="#7B7B7B"/>
<circle cx="0.287142" cy="0.287142" r="0.287142" transform="matrix(1 0 0 -1 17.7393 40.7266)" fill="#7B7B7B"/>
<circle cx="0.287142" cy="0.287142" r="0.287142" transform="matrix(1 0 0 -1 16.3643 44.043)" fill="#7B7B7B"/>
<circle cx="0.287142" cy="0.287142" r="0.287142" transform="matrix(1 0 0 -1 9.2373 44.6523)" fill="#7B7B7B"/>
<circle cx="0.287142" cy="0.287142" r="0.287142" transform="matrix(1 0 0 -1 18.3135 31.2109)" fill="#7B7B7B"/>
<circle cx="0.287142" cy="0.287142" r="0.287142" transform="matrix(1 0 0 -1 18.8877 48.4141)" fill="#7B7B7B"/>
<circle cx="0.287142" cy="0.287142" r="0.287142" transform="matrix(1 0 0 -1 6.71289 49.9531)" fill="#7B7B7B"/>
<circle cx="0.287142" cy="0.287142" r="0.287142" transform="matrix(1 0 0 -1 19.1748 57.5352)" fill="#7B7B7B"/>
<circle cx="0.287142" cy="0.287142" r="0.287142" transform="matrix(1 0 0 -1 10.3555 57.5352)" fill="#7B7B7B"/>
<circle cx="0.287142" cy="0.287142" r="0.287142" transform="matrix(1 0 0 -1 12.6562 50.5273)" fill="#7B7B7B"/>
<circle cx="0.287142" cy="0.287142" r="0.287142" transform="matrix(1 0 0 -1 5.16895 59.582)" fill="#7B7B7B"/>
<circle cx="0.287142" cy="0.287142" r="0.287142" transform="matrix(1 0 0 -1 21.9434 52.4844)" fill="#7B7B7B"/>
<circle cx="0.287142" cy="0.287142" r="0.287142" transform="matrix(1 0 0 -1 16.0244 53.957)" fill="#7B7B7B"/>
<path d="M25.8822 13.7539L20.7173 13.7539L20.7173 63.8807H23.3627C25.5893 63.8807 27.3747 62.0392 27.3059 59.8137L25.8822 13.7539Z" fill="#CEE5E7" fill-opacity="0.7"/>
<rect width="6.71654" height="50.1268" transform="matrix(-1 0 0 1 20.7178 13.7539)" fill="#E1F4F6" fill-opacity="0.7"/>
<rect width="6.71654" height="50.1268" transform="matrix(-1 0 0 1 14.001 13.7539)" fill="#FAFAFA" fill-opacity="0.7"/>
<path d="M7.28516 13.7539L2.11859 13.7539L0.694371 59.8136C0.625556 62.0392 2.41099 63.8807 4.63759 63.8807H7.28516L7.28516 13.7539Z" fill="#E7F6F8" fill-opacity="0.7"/>
<path fill-rule="evenodd" clip-rule="evenodd" d="M1.8291 2.47724C1.8291 1.10346 7.0342 0.117188 14.0011 0.117188C19.6132 0.117188 26.1732 1.10353 26.1732 2.47724C26.1732 2.58609 26.1382 2.68581 26.0869 2.7735C25.9338 3.03554 25.8363 3.37881 26.0126 3.6259L26.0779 3.71746C26.1399 3.80432 26.1732 3.90836 26.1732 4.01506V4.37385C26.1732 4.48055 26.1399 4.58458 26.0779 4.67144L25.8954 4.92719C25.7684 5.10525 25.7684 5.34431 25.8954 5.52237L26.0779 5.77812C26.1399 5.86498 26.1732 5.96902 26.1732 6.07571V6.4345C26.1732 6.5412 26.1399 6.64524 26.0779 6.7321L25.8954 6.98785C25.7684 7.16591 25.7684 7.40497 25.8954 7.58303L26.0779 7.83878C26.1399 7.92564 26.1732 8.02967 26.1732 8.13637V8.49516C26.1732 8.60186 26.1399 8.7059 26.0779 8.79276L25.8954 9.0485C25.7684 9.22656 25.7684 9.46562 25.8954 9.64368L26.0779 9.89944C26.1399 9.98629 26.1732 10.0903 26.1732 10.197V10.4823C26.1732 10.633 26.1068 10.776 25.9918 10.8734L25.505 11.2855C25.4125 11.3638 25.2952 11.4068 25.1739 11.4068L2.82832 11.4068C2.70709 11.4068 2.58979 11.3638 2.49727 11.2855L2.01045 10.8734C1.89543 10.776 1.8291 10.633 1.8291 10.4823V10.2706C1.8291 10.1199 1.89543 9.97683 2.01045 9.87947L2.17853 9.7372C2.42033 9.53252 2.42033 9.15967 2.17853 8.95499L2.01045 8.81272C1.89543 8.71536 1.8291 8.57231 1.8291 8.42161V8.13622C1.8291 8.02962 1.86235 7.92567 1.92422 7.83885L2.10669 7.58281C2.23351 7.40485 2.23351 7.16603 2.10669 6.98806L1.92422 6.73203C1.86235 6.64521 1.8291 6.54126 1.8291 6.43465V6.07557C1.8291 5.96896 1.86235 5.86501 1.92422 5.77819L2.10669 5.52216C2.23351 5.34419 2.23351 5.10537 2.10668 4.9274L1.92422 4.67137C1.86235 4.58455 1.8291 4.4806 1.8291 4.37399V4.01491C1.8291 3.9083 1.86235 3.80435 1.92422 3.71753L1.98104 3.63781C2.16016 3.38647 2.05369 3.03492 1.90587 2.76399C1.85982 2.67959 1.8291 2.58347 1.8291 2.47724Z" fill="#C1C1C1"/>
<path d="M26.1728 10.485V10.1997C26.1728 10.093 26.1395 9.98898 26.0775 9.90212L25.895 9.64637C25.768 9.46831 25.768 9.22925 25.895 9.05119L26.0775 8.79544C26.1395 8.70858 26.1728 8.60455 26.1728 8.49785V8.13906C26.1728 8.03236 26.1395 7.92832 26.0775 7.84147L25.895 7.58571C25.768 7.40766 25.768 7.16859 25.895 6.99053L26.0775 6.73478C26.1395 6.64792 26.1728 6.54389 26.1728 6.43719V6.0784C26.1728 5.9717 26.1395 5.86767 26.0775 5.78081L25.895 5.52506C25.768 5.347 25.768 5.10793 25.895 4.92987L26.0775 4.67413C26.1395 4.58727 26.1728 4.48323 26.1728 4.37654V4.01774C26.1728 3.91105 26.1395 3.80701 26.0775 3.72015L26.0122 3.62859C25.8359 3.3815 25.9334 3.03823 26.0865 2.77619C26.1378 2.6885 26.1728 2.58878 26.1728 2.47992C26.1728 1.94343 25.3103 1.63621 24.837 1.44981C23.712 1.00675 21.3966 0.648438 21.3966 0.648438C22.3885 0.871384 21.639 1.73708 20.8571 1.87398C20.78 1.88749 20.7188 1.95146 20.7188 2.02977V11.4094L25.1736 11.4094C25.2948 11.4094 25.4121 11.3665 25.5046 11.2881L25.9914 10.8761C26.1064 10.7787 26.1728 10.6356 26.1728 10.485Z" fill="#0C0C0C" fill-opacity="0.25"/>
<path d="M1.82969 10.4843V10.1991C1.82969 10.0924 1.863 9.98835 1.92496 9.9015L2.10742 9.64574C2.23446 9.46768 2.23446 9.22862 2.10742 9.05056L1.92497 8.79482C1.863 8.70796 1.82969 8.60392 1.82969 8.49722V8.13843C1.82969 8.03173 1.863 7.9277 1.92496 7.84084L2.10743 7.58508C2.23446 7.40702 2.23446 7.16796 2.10742 6.9899L1.92496 6.73415C1.863 6.64729 1.82969 6.54326 1.82969 6.43656V6.07777C1.82969 5.97107 1.863 5.86703 1.92496 5.78018L2.10742 5.52443C2.23446 5.34637 2.23446 5.1073 2.10742 4.92924L1.92497 4.6735C1.863 4.58664 1.82969 4.4826 1.82969 4.3759V4.01711C1.82969 3.91042 1.863 3.80638 1.92496 3.71952L1.99029 3.62796C2.16657 3.38087 2.06909 3.0376 1.91592 2.77556C1.86466 2.68787 1.82969 2.58815 1.82969 2.47929C1.82969 1.9428 2.70313 1.52772 3.1403 1.36593C4.90028 0.714602 6.63072 0.574219 6.63072 0.574219C5.58027 0.81032 6.07996 1.76199 7.3252 2.02614L7.3252 11.4503L2.82634 11.4105C2.70667 11.4094 2.59116 11.3665 2.49982 11.2892L2.01104 10.8754C1.89602 10.7781 1.82969 10.635 1.82969 10.4843Z" fill="white" fill-opacity="0.25"/>
<path d="M4.26172 6.97656L23.737 6.97656" stroke="#DADADA" stroke-width="0.732005" stroke-linecap="round"/>
<path d="M4.26074 9.375L23.736 9.375" stroke="#DADADA" stroke-width="0.732005" stroke-linecap="round"/>
<path d="M4.26172 4.57812L23.737 4.57813" stroke="#DADADA" stroke-width="0.732005" stroke-linecap="round"/>
<path d="M1.53809 11.7588C1.53809 11.4864 1.75887 11.2656 2.03122 11.2656H20.7201H25.9676C26.2399 11.2656 26.4607 11.4864 26.4607 11.7588V13.262C26.4607 13.5344 26.2399 13.7552 25.9676 13.7552H20.7201H2.03122C1.75887 13.7552 1.53809 13.5344 1.53809 13.262V11.7588Z" fill="#EDEDED"/>
<path fill-rule="evenodd" clip-rule="evenodd" d="M26.4607 11.7588C26.4607 11.4864 26.2399 11.2656 25.9676 11.2656H20.7201V13.7552H25.9676C26.2399 13.7552 26.4607 13.5344 26.4607 13.262V11.7588Z" fill="#CACACA"/>
<path fill-rule="evenodd" clip-rule="evenodd" d="M7.2666 13.7587L14.0015 13.7587V11.2656C11.4685 11.2656 7.2666 11.2656 7.2666 11.2656V13.7587Z" fill="white" fill-opacity="0.2"/>
<path d="M21.4501 1.07893C21.4501 1.97233 17.6035 1.77993 13.9432 1.77993C10.2829 1.77993 6.54784 1.97233 6.54784 1.07893C6.54784 0.585518 10.2829 0.433594 13.9432 0.433594C17.6035 0.433594 21.4501 0.585518 21.4501 1.07893Z" fill="#E3E3E3"/>
<circle cx="11.9476" cy="1.11849" r="0.3099" fill="#8B8B8B"/>
<circle cx="14.0013" cy="1.11849" r="0.3099" fill="#8B8B8B"/>
<circle cx="16.054" cy="1.11849" r="0.3099" fill="#8B8B8B"/>
<path d="M14.026 11.2539H7.3252V2.03125C8.26609 2.3076 11.9765 2.19312 13.884 2.24627C13.9638 2.24849 14.026 2.31389 14.026 2.39362V11.2539Z" fill="white" fill-opacity="0.4"/>
</svg>
