<svg width="19" height="36" viewBox="0 0 19 36" fill="none" xmlns="http://www.w3.org/2000/svg">
<path d="M15.3069 18.0001L1.15359 3.84591C0.841373 3.53425 0.674706 3.15174 0.653595 2.69841C0.631928 2.24563 0.798595 1.84202 1.15359 1.48757C1.50804 1.13257 1.90109 0.955078 2.33276 0.955078C2.76443 0.955078 3.15748 1.13257 3.51193 1.48757L18.1403 16.1151C18.4308 16.4062 18.635 16.7034 18.7528 17.0067C18.87 17.3101 18.9286 17.6412 18.9286 18.0001C18.9286 18.359 18.87 18.6901 18.7528 18.9934C18.635 19.2967 18.4308 19.594 18.1403 19.8851L3.51193 34.5126C3.20026 34.8248 2.81776 34.9915 2.36443 35.0126C1.91165 35.0342 1.50804 34.8676 1.15359 34.5126C0.798595 34.1581 0.621094 33.7651 0.621094 33.3334C0.621094 32.9017 0.798595 32.5087 1.15359 32.1542L15.3069 18.0001Z" fill="#1B1B1B"/>
</svg>
