<svg width="48" height="90" viewBox="0 0 48 90" fill="none" xmlns="http://www.w3.org/2000/svg">
<path d="M12.2295 70.1732L14.9029 81.7578L23.7261 81.7578L33.114 81.7578L35.7879 70.1711C36.0231 69.152 36.5178 68.211 37.224 67.4395L41.7211 62.5268C45.2378 58.6851 46.9397 53.5206 46.3959 48.3409L43.3814 19.6265C43.27 18.5653 43.5826 17.503 44.251 16.6713L46.8051 13.4934C47.0937 13.1343 47.251 12.6875 47.251 12.2268L47.251 4.42565C47.251 2.19248 45.4406 0.382141 43.2075 0.382141L4.79411 0.382137C2.56094 0.382137 0.750602 2.19247 0.750602 4.42564L0.750601 12.2268C0.750601 12.6875 0.907908 13.1343 1.19647 13.4934L3.75054 16.6713C4.419 17.503 4.73159 18.5653 4.62018 19.6265L1.60646 48.3334C1.06223 53.5175 2.76743 58.686 6.28971 62.5285L10.7906 67.4386C11.4983 68.2106 11.994 69.1527 12.2295 70.1732Z" fill="#D6282C"/>
<path d="M8.41268 19.4431C8.65542 17.4098 10.3799 15.8789 12.4277 15.8789H35.5439C37.6049 15.8789 39.3361 17.429 39.5629 19.4775L42.7894 48.6239C43.1471 51.8553 42.1927 55.0951 40.1402 57.6166L34.3128 64.7755C33.5449 65.7188 32.3932 66.2663 31.1769 66.2663H24.0013H16.7876C15.5931 66.2663 14.4598 65.7382 13.6915 64.8237L7.70584 57.6983C5.54952 55.1314 4.55162 51.7866 4.949 48.4579L8.41268 19.4431Z" fill="#D6BC91"/>
<path d="M10.1578 20.8785C10.3675 19.0686 11.9004 17.7031 13.7224 17.7031H34.216C36.0494 17.7031 37.588 19.0852 37.7839 20.9082L40.7011 48.0543C40.9914 50.7558 40.2495 53.4671 38.6242 55.6444L33.1331 63.0004C32.4557 63.9078 31.3898 64.4422 30.2574 64.4422H23.9826H17.6739C16.5607 64.4422 15.5105 63.9256 14.8311 63.0437L9.19055 55.7218C7.47909 53.5001 6.70212 50.6984 7.02494 47.9126L10.1578 20.8785Z" fill="white"/>
<path d="M12.4803 22.2707C12.5661 21.5269 13.1959 20.9657 13.9446 20.9657H33.9701C34.7234 20.9657 35.3556 21.5337 35.4358 22.2829L38.0213 46.4404C38.3175 49.2079 37.5649 51.9858 35.9121 54.2252L31.7831 59.82C31.1533 60.6734 30.1557 61.177 29.0951 61.177H23.9649H18.7979C17.7551 61.177 16.7721 60.69 16.1402 59.8604L11.9076 54.3031C10.1667 52.0173 9.37837 49.1464 9.70779 46.2922L12.4803 22.2707Z" stroke="#6DB224" stroke-width="1.09537"/>
<path d="M37.224 67.4395L41.7211 62.5267C45.2378 58.685 46.9397 53.5206 46.3959 48.3408L43.2075 17.9697C42.7166 13.9105 38.3901 17.6436 38.9313 20.8757C40.2364 26.5387 39.4701 35.2978 39.5504 42.0441C39.6508 50.477 34.4121 60.1569 31.9024 63.8714C29.8945 66.843 27.8983 76.0481 27.8983 81.7578L33.114 81.7578L35.7879 70.171C36.0231 69.1519 36.5178 68.2109 37.224 67.4395Z" fill="black" fill-opacity="0.2"/>
<path d="M15.3027 29.9453C15.3027 29.8729 15.3085 29.8149 15.3201 29.7714C15.3317 29.7251 15.349 29.699 15.3722 29.6932L15.7939 29.5498L15.7113 29.6845V27.5024L15.7591 27.5589L15.1158 27.4894L15.1766 27.4503L15.0506 27.8067C15.0448 27.8328 15.023 27.8531 14.9854 27.8676C14.9506 27.882 14.8883 27.8893 14.7985 27.8893V27.159H17.2935V27.8893C17.2037 27.8893 17.1399 27.882 17.1022 27.8676C17.0646 27.8531 17.0414 27.8328 17.0327 27.8067L16.9153 27.4503L16.9762 27.4894L16.3285 27.5589L16.3763 27.5024V29.6715L16.2677 29.5541L16.8458 29.6671C16.8458 29.7193 16.84 29.7656 16.8284 29.8062C16.8197 29.8468 16.798 29.8932 16.7632 29.9453H15.3027ZM18.8572 29.9975C18.5935 29.9975 18.3617 29.941 18.1617 29.8279C17.9647 29.712 17.8111 29.5527 17.701 29.3498C17.5909 29.147 17.5358 28.9137 17.5358 28.65C17.5358 28.4297 17.5735 28.2254 17.6488 28.0371C17.7242 27.8487 17.8299 27.685 17.9661 27.5459C18.1052 27.4039 18.2661 27.2938 18.4486 27.2155C18.6312 27.1373 18.8297 27.0982 19.0441 27.0982C19.3078 27.0982 19.5382 27.1561 19.7353 27.272C19.9323 27.3851 20.0859 27.543 20.196 27.7458C20.309 27.9487 20.3656 28.1805 20.3656 28.4413C20.3656 28.6616 20.3279 28.8659 20.2525 29.0542C20.1772 29.2426 20.0714 29.4078 19.9352 29.5498C19.799 29.6889 19.6396 29.799 19.4571 29.8801C19.2745 29.9584 19.0746 29.9975 18.8572 29.9975ZM18.9746 29.6323C19.1166 29.6323 19.2383 29.5903 19.3397 29.5063C19.4411 29.4194 19.5194 29.2991 19.5744 29.1455C19.6295 28.989 19.657 28.8065 19.657 28.5978C19.657 28.2501 19.5904 27.9748 19.4571 27.7719C19.3267 27.5662 19.1485 27.4633 18.9224 27.4633C18.7891 27.4633 18.6703 27.5053 18.566 27.5894C18.4617 27.6734 18.3805 27.7922 18.3226 27.9458C18.2675 28.0994 18.24 28.2834 18.24 28.4978C18.24 28.8456 18.3052 29.1223 18.4356 29.3281C18.5689 29.5309 18.7486 29.6323 18.9746 29.6323ZM22.4334 29.9584C22.4131 29.9584 22.3871 29.9555 22.3552 29.9497C22.3233 29.9468 22.3016 29.941 22.29 29.9323L21.4076 27.4633H21.5771L21.3728 29.7323L21.3293 29.5715L21.7597 29.6628C21.7597 29.7149 21.7539 29.7627 21.7423 29.8062C21.7336 29.8497 21.7119 29.8946 21.6771 29.941H20.673C20.673 29.8685 20.6788 29.8106 20.6904 29.7671C20.702 29.7207 20.7194 29.6946 20.7425 29.6889L21.0859 29.5845L21.0033 29.7497L21.225 27.359L21.2598 27.5285L20.8816 27.4372C20.8816 27.3822 20.8874 27.3343 20.899 27.2938C20.9135 27.2503 20.9381 27.2054 20.9729 27.159H21.9944L22.7203 29.2151H22.4508L23.1376 27.159H24.2113C24.2113 27.2315 24.2055 27.2909 24.1939 27.3372C24.1823 27.3807 24.1649 27.4053 24.1417 27.4111L23.7722 27.5198L23.9113 27.3416L24.1026 29.7367L24.033 29.5715L24.4025 29.6628C24.4025 29.7149 24.3953 29.7627 24.3808 29.8062C24.3692 29.8497 24.346 29.8946 24.3112 29.941H23.155C23.155 29.8685 23.1608 29.8106 23.1724 29.7671C23.184 29.7207 23.2014 29.6946 23.2245 29.6889L23.5592 29.5802L23.4593 29.7541L23.2724 27.4242H23.4288L22.6247 29.854C22.6131 29.8888 22.5856 29.9149 22.5421 29.9323C22.5015 29.9497 22.4653 29.9584 22.4334 29.9584ZM24.5705 29.9453C24.5705 29.8729 24.5763 29.8149 24.5879 29.7714C24.6024 29.7251 24.6197 29.699 24.64 29.6932L24.9704 29.5671L24.7965 29.7541L25.7093 27.2329C25.7209 27.1982 25.7499 27.1706 25.7963 27.1503C25.8426 27.1301 25.8919 27.1156 25.9441 27.1069C25.9991 27.0982 26.0426 27.0938 26.0745 27.0938C26.115 27.0938 26.1542 27.0967 26.1918 27.1025C26.2324 27.1054 26.2715 27.1127 26.3092 27.1243L27.3133 29.7323L27.1307 29.5715L27.5567 29.6671C27.5567 29.7193 27.5495 29.7656 27.535 29.8062C27.5234 29.8468 27.4988 29.8932 27.4611 29.9453H26.2701C26.2701 29.8729 26.2759 29.8149 26.2875 29.7714C26.3019 29.7251 26.3193 29.699 26.3396 29.6932L26.6569 29.5845L26.6265 29.7323L25.7789 27.5459L25.9788 27.5415L25.179 29.7367L25.1399 29.5541L25.6398 29.6671C25.6398 29.7193 25.6325 29.7656 25.6181 29.8062C25.6065 29.8468 25.5804 29.8932 25.5398 29.9453H24.5705ZM25.2964 29.0977L25.3616 28.7717H26.4135L26.4874 29.0977H25.2964ZM27.9652 29.9453C27.9652 29.8729 27.971 29.8149 27.9826 29.7714C27.9942 29.7251 28.0116 29.699 28.0348 29.6932L28.4564 29.5498L28.3738 29.6845V27.5024L28.4216 27.5589L27.7783 27.4894L27.8392 27.4503L27.7131 27.8067C27.7073 27.8328 27.6856 27.8531 27.6479 27.8676C27.6131 27.882 27.5508 27.8893 27.461 27.8893V27.159H29.956V27.8893C29.8662 27.8893 29.8024 27.882 29.7648 27.8676C29.7271 27.8531 29.7039 27.8328 29.6952 27.8067L29.5779 27.4503L29.6387 27.4894L28.9911 27.5589L29.0389 27.5024V29.6715L28.9302 29.5541L29.5083 29.6671C29.5083 29.7193 29.5025 29.7656 29.4909 29.8062C29.4822 29.8468 29.4605 29.8932 29.4257 29.9453H27.9652ZM31.5198 29.9975C31.256 29.9975 31.0242 29.941 30.8243 29.8279C30.6272 29.712 30.4736 29.5527 30.3635 29.3498C30.2534 29.147 30.1983 28.9137 30.1983 28.65C30.1983 28.4297 30.236 28.2254 30.3113 28.0371C30.3867 27.8487 30.4925 27.685 30.6287 27.5459C30.7678 27.4039 30.9286 27.2938 31.1112 27.2155C31.2937 27.1373 31.4922 27.0982 31.7067 27.0982C31.9704 27.0982 32.2007 27.1561 32.3978 27.272C32.5949 27.3851 32.7484 27.543 32.8586 27.7458C32.9716 27.9487 33.0281 28.1805 33.0281 28.4413C33.0281 28.6616 32.9904 28.8659 32.9151 29.0542C32.8397 29.2426 32.734 29.4078 32.5978 29.5498C32.4616 29.6889 32.3022 29.799 32.1196 29.8801C31.937 29.9584 31.7371 29.9975 31.5198 29.9975ZM31.6371 29.6323C31.7791 29.6323 31.9008 29.5903 32.0022 29.5063C32.1037 29.4194 32.1819 29.2991 32.237 29.1455C32.292 28.989 32.3196 28.8065 32.3196 28.5978C32.3196 28.2501 32.2529 27.9748 32.1196 27.7719C31.9892 27.5662 31.811 27.4633 31.585 27.4633C31.4517 27.4633 31.3328 27.5053 31.2285 27.5894C31.1242 27.6734 31.0431 27.7922 30.9851 27.9458C30.93 28.0994 30.9025 28.2834 30.9025 28.4978C30.9025 28.8456 30.9677 29.1223 31.0981 29.3281C31.2314 29.5309 31.4111 29.6323 31.6371 29.6323Z" fill="#1B1B1B"/>
<path d="M16.0853 35.0483C16.0099 35.0483 15.9389 35.0367 15.8723 35.0135C15.8056 34.9903 15.7375 34.9497 15.668 34.8918C15.6013 34.8309 15.526 34.7469 15.4419 34.6397C15.3579 34.5295 15.2637 34.3919 15.1594 34.2267C15.058 34.0586 14.9377 33.8543 14.7986 33.6138L15.7679 32.4228L15.8766 32.5836L15.3941 32.488C15.3941 32.4271 15.4014 32.3764 15.4159 32.3359C15.4303 32.2924 15.4521 32.2504 15.4811 32.2098H16.4982C16.4982 32.3663 16.4591 32.4547 16.3808 32.475L16.0157 32.588L16.2417 32.4011L15.2159 33.6529L15.3333 33.4139C15.4202 33.553 15.5158 33.695 15.6202 33.8399C15.7245 33.9818 15.8302 34.118 15.9375 34.2484C16.0447 34.3789 16.1505 34.4991 16.2548 34.6092C16.3591 34.7165 16.4562 34.8048 16.546 34.8744C16.4736 34.9294 16.3982 34.9715 16.32 35.0004C16.2417 35.0323 16.1635 35.0483 16.0853 35.0483ZM13.8162 34.9961C13.8162 34.9236 13.822 34.8657 13.8336 34.8222C13.8481 34.7759 13.8655 34.7498 13.8858 34.744L14.1988 34.6353L14.1162 34.7353V32.4837L14.2031 32.5836L13.8162 32.488C13.8162 32.4329 13.822 32.3851 13.8336 32.3446C13.8481 32.3011 13.8727 32.2562 13.9075 32.2098H15.0855C15.0855 32.2794 15.0797 32.3373 15.0681 32.3837C15.0565 32.43 15.0391 32.4561 15.016 32.4619L14.6639 32.5706L14.7812 32.4663V34.7222L14.6595 34.6223L15.0855 34.7179C15.0855 34.7701 15.0797 34.8164 15.0681 34.857C15.0565 34.8976 15.0333 34.9439 14.9986 34.9961H13.8162ZM16.7664 34.9961C16.7664 34.9236 16.7722 34.8657 16.7838 34.8222C16.7983 34.7759 16.8157 34.7498 16.836 34.744L17.149 34.6353L17.0664 34.7353V32.4837L17.149 32.5836L16.7664 32.488C16.7664 32.4329 16.7722 32.3851 16.7838 32.3446C16.7983 32.3011 16.823 32.2562 16.8577 32.2098H18.892V32.927C18.8051 32.927 18.7428 32.9198 18.7051 32.9053C18.6674 32.8908 18.6443 32.8705 18.6356 32.8444L18.5138 32.501L18.5747 32.5402L17.6836 32.6097L17.7314 32.5532V33.4573L17.688 33.4182H18.3313L18.2748 33.4573L18.3617 33.1357C18.4052 33.1357 18.4515 33.1415 18.5008 33.1531C18.5501 33.1647 18.595 33.1878 18.6356 33.2226V33.9529C18.595 33.9847 18.5501 34.0065 18.5008 34.0181C18.4515 34.0297 18.4052 34.0355 18.3617 34.0355L18.2704 33.7051L18.3313 33.7442H17.688L17.7314 33.7008V34.6353L17.688 34.5875L18.6616 34.6614L18.6095 34.744L18.7486 34.1832C18.8007 34.1832 18.8486 34.1905 18.892 34.205C18.9355 34.2166 18.9804 34.2383 19.0268 34.2702V34.9961H16.7664ZM19.8722 34.9961C19.8722 34.9236 19.878 34.8657 19.8896 34.8222C19.9012 34.7759 19.9185 34.7498 19.9417 34.744L20.3634 34.6005L20.2808 34.7353V32.5532L20.3286 32.6097L19.6853 32.5402L19.7461 32.501L19.6201 32.8575C19.6143 32.8836 19.5925 32.9038 19.5549 32.9183C19.5201 32.9328 19.4578 32.9401 19.368 32.9401V32.2098H21.863V32.9401C21.7732 32.9401 21.7094 32.9328 21.6717 32.9183C21.6341 32.9038 21.6109 32.8836 21.6022 32.8575L21.4848 32.501L21.5457 32.5402L20.898 32.6097L20.9458 32.5532V34.7222L20.8372 34.6049L21.4153 34.7179C21.4153 34.7701 21.4095 34.8164 21.3979 34.857C21.3892 34.8976 21.3675 34.9439 21.3327 34.9961H19.8722ZM23.518 35.0483C23.234 35.0483 22.9863 34.9932 22.7747 34.8831C22.5632 34.773 22.398 34.6179 22.2792 34.418C22.1633 34.2151 22.1053 33.9818 22.1053 33.7181C22.1053 33.4921 22.1459 33.2835 22.227 33.0922C22.3082 32.9009 22.4212 32.7358 22.5661 32.5967C22.711 32.4547 22.8819 32.3446 23.079 32.2663C23.2789 32.1881 23.4963 32.149 23.731 32.149C23.8962 32.149 24.0527 32.1678 24.2005 32.2055C24.3482 32.2431 24.4757 32.2967 24.583 32.3663L24.5004 33.0966C24.4192 33.0966 24.3555 33.0893 24.3091 33.0748C24.2628 33.0603 24.2367 33.04 24.2309 33.014L24.1787 32.5749L24.2961 32.7445C24.2178 32.672 24.1179 32.6155 23.9962 32.5749C23.8773 32.5344 23.7527 32.5141 23.6223 32.5141C23.4543 32.5141 23.3079 32.5561 23.1833 32.6401C23.0616 32.7213 22.9689 32.8401 22.9051 32.9966C22.8414 33.1502 22.8095 33.3385 22.8095 33.5617C22.8095 33.7906 22.8428 33.9905 22.9095 34.1615C22.9761 34.3296 23.0703 34.46 23.192 34.5527C23.3137 34.6426 23.4572 34.6875 23.6223 34.6875C23.7585 34.6875 23.8875 34.6599 24.0092 34.6049C24.1309 34.5469 24.2265 34.4701 24.2961 34.3745L24.1744 34.6136L24.2483 33.9355C24.3468 33.9355 24.4163 33.9413 24.4569 33.9529C24.4975 33.9616 24.5265 33.9775 24.5438 34.0007L24.583 34.6875C24.4786 34.7976 24.3294 34.886 24.1352 34.9526C23.9411 35.0164 23.7353 35.0483 23.518 35.0483ZM25.0652 34.9961C25.0652 34.9236 25.071 34.8657 25.0826 34.8222C25.0971 34.7759 25.1145 34.7498 25.1348 34.744L25.4477 34.6353L25.3651 34.7353V32.4837L25.4521 32.5836L25.0652 32.488C25.0652 32.4329 25.071 32.3851 25.0826 32.3446C25.0971 32.3011 25.1217 32.2562 25.1565 32.2098H26.3345C26.3345 32.2823 26.3287 32.3417 26.3171 32.388C26.3055 32.4315 26.2881 32.4561 26.2649 32.4619L25.9128 32.5706L26.0302 32.4663V33.5008L25.9824 33.4182H27.0778L27.03 33.5008V32.4837L27.1169 32.5836L26.73 32.488C26.73 32.4329 26.7358 32.3851 26.7474 32.3446C26.759 32.3011 26.7822 32.2562 26.817 32.2098H28.0341C28.0341 32.2823 28.0283 32.3417 28.0167 32.388C28.0051 32.4315 27.9877 32.4561 27.9645 32.4619L27.6124 32.5706L27.695 32.4663V34.7222L27.6081 34.6223L28.0341 34.7179C28.0341 34.7701 28.0268 34.8164 28.0123 34.857C28.0007 34.8976 27.9761 34.9439 27.9384 34.9961H26.73C26.73 34.9236 26.7358 34.8657 26.7474 34.8222C26.7619 34.7759 26.7793 34.7498 26.7996 34.744L27.1126 34.6353L27.03 34.7353V33.6616L27.0778 33.7442H25.9824L26.0302 33.6616V34.7222L25.9085 34.6223L26.3345 34.7179C26.3345 34.7701 26.3287 34.8164 26.3171 34.857C26.3055 34.8976 26.2823 34.9439 26.2475 34.9961H25.0652ZM29.9092 35.0483C29.6021 35.0483 29.3557 35.0077 29.1703 34.9265C28.9877 34.8454 28.8544 34.7324 28.7704 34.5875C28.6892 34.4426 28.6487 34.2731 28.6487 34.0789V32.4837L28.7443 32.5836L28.3531 32.488C28.3531 32.4329 28.3589 32.3851 28.3705 32.3446C28.385 32.3011 28.4096 32.2562 28.4444 32.2098H29.6223C29.6223 32.2823 29.6165 32.3417 29.605 32.388C29.5934 32.4315 29.576 32.4561 29.5528 32.4619L29.205 32.5706L29.3137 32.4663V33.9398C29.3137 34.1137 29.3326 34.2571 29.3702 34.3702C29.4108 34.4803 29.4745 34.5614 29.5615 34.6136C29.6513 34.6657 29.7672 34.6918 29.9092 34.6918C30.0831 34.6918 30.2207 34.6643 30.3222 34.6092C30.4265 34.5542 30.5004 34.4701 30.5439 34.3571C30.5902 34.2412 30.6134 34.0992 30.6134 33.9311V32.4228L30.6569 32.588L30.2352 32.488C30.2352 32.4329 30.241 32.3851 30.2526 32.3446C30.2642 32.3011 30.2859 32.2562 30.3178 32.2098H31.3089C31.3089 32.2794 31.3031 32.3373 31.2915 32.3837C31.2799 32.43 31.2625 32.4561 31.2393 32.4619L30.9003 32.5662L30.9742 32.4011V34.0659C30.9742 34.2311 30.9365 34.389 30.8612 34.5397C30.7858 34.6904 30.6685 34.8135 30.5091 34.9092C30.3526 35.0019 30.1526 35.0483 29.9092 35.0483ZM31.6363 34.9961C31.6363 34.9236 31.6421 34.8657 31.6537 34.8222C31.6682 34.7759 31.6856 34.7498 31.7059 34.744L32.0232 34.6353L31.9363 34.7353V32.4837L32.0232 32.5836L31.6407 32.488C31.6407 32.43 31.6465 32.3793 31.6581 32.3359C31.6725 32.2924 31.6957 32.2504 31.7276 32.2098H33.0838C33.2722 32.2098 33.433 32.2446 33.5663 32.3141C33.7025 32.3808 33.8068 32.475 33.8793 32.5967C33.9517 32.7184 33.9879 32.8604 33.9879 33.0227C33.9879 33.1965 33.9445 33.3574 33.8575 33.5051C33.7706 33.65 33.6503 33.766 33.4967 33.8529C33.3432 33.9369 33.1649 33.9789 32.9621 33.9789C32.8896 33.9789 32.8129 33.9732 32.7317 33.9616C32.6506 33.95 32.5709 33.9311 32.4926 33.9051H32.6013V34.7831L32.4796 34.6223L32.9491 34.7179C32.9491 34.7759 32.9418 34.8266 32.9273 34.87C32.9157 34.9106 32.894 34.9526 32.8621 34.9961H31.6363ZM32.6013 33.6442L32.51 33.5486C32.5448 33.566 32.5941 33.5805 32.6578 33.5921C32.7216 33.6008 32.781 33.6051 32.836 33.6051C32.9346 33.6051 33.0172 33.5834 33.0838 33.5399C33.1533 33.4936 33.2055 33.4298 33.2403 33.3487C33.2751 33.2646 33.2924 33.1676 33.2924 33.0574C33.2924 32.8952 33.2533 32.7734 33.1751 32.6923C33.0997 32.6083 32.9867 32.5662 32.836 32.5662C32.7868 32.5662 32.7361 32.5706 32.6839 32.5793C32.6346 32.588 32.5781 32.5996 32.5144 32.6141L32.6013 32.5402V33.6442Z" fill="#1B1B1B"/>
<path d="M22.0426 40.75C20.9873 40.6773 19.768 41.0846 18.7932 41.5218C17.259 42.2098 16.0662 43.2764 15.4207 44.8392C14.4675 47.147 14.2814 50.6924 16.4059 52.4628C17.2118 53.1344 18.0793 53.4545 19.0413 53.8339C20.4349 54.3835 21.8072 54.3992 23.2854 54.392C25.0345 54.3835 27.5472 53.9738 29.2038 53.4537C30.4615 53.0588 31.0445 52.1006 31.7048 50.9057C32.1 50.1906 32.3142 49.2135 32.4351 48.4116C32.5668 47.5385 32.7127 46.324 32.4351 45.4727C32.171 44.6628 31.6362 44.0395 31.0847 43.4161C30.5574 42.82 29.9484 42.216 29.2038 41.8697C27.8366 41.2338 26.2537 40.7772 24.7392 40.7501C24.222 40.7409 23.7123 40.658 23.1924 40.6915L22.0426 40.75Z" fill="#D6282C"/>
<path d="M21.6975 40.9297C20.5647 40.9297 19.5303 41.3626 19.251 41.6335C20.4643 41.4391 22.0718 42.0077 22.6276 42.2619C22.7895 41.8178 22.8303 40.9297 21.6975 40.9297Z" fill="#AF2225"/>
<path d="M31.7044 50.9084C31.0441 52.1033 30.4612 53.0615 29.2034 53.4564C28.3448 53.7259 27.2562 53.9659 26.1631 54.1356C27.4642 53.5688 29.1151 52.975 30.269 51.7948C31.5845 50.4493 32.3342 48.4507 32.5922 46.7773C32.5842 47.348 32.5073 47.933 32.4348 48.4143C32.3139 49.2162 32.0997 50.1933 31.7044 50.9084Z" fill="#AF2225"/>
<path d="M25.9756 41.153C25.7671 41.3014 25.407 41.4017 25.253 41.4333L24.0684 41.6031C24.1052 41.4254 24.2926 41.055 24.7475 40.995C25.2024 40.935 25.7558 41.0753 25.9756 41.153Z" fill="#AF2225"/>
<path d="M15.8532 46.5867C16.4978 43.9422 18.2842 42.7577 19.0968 42.496C20.0531 41.983 21.514 42.496 20.3571 43.0745C19.4315 43.5373 19.1312 45.6088 19.0968 46.5867C19.0968 49.7104 18.1189 50.4679 17.63 50.4561C16.7691 50.2681 15.2086 49.2311 15.8532 46.5867Z" fill="#FAABAB" fill-opacity="0.2"/>
<path d="M18.139 44.0461C19.4341 41.6644 21.7947 41.8586 22.8131 42.2535L23.5286 42.5899L23.9449 42.0444C25.7481 41.37 27.4259 42.383 28.1427 43.0584C26.188 43.7774 25.2935 43.6359 24.9699 43.4868C24.9934 44.7769 24.0831 46.0515 23.9449 46.5337C22.7569 45.7609 22.4486 44.092 22.4695 43.3973C20.9071 44.6002 18.8478 44.4798 18.139 44.0461Z" fill="#AF2225"/>
<path d="M22.8111 41.8999L22.6519 41.825C22.4916 41.9922 22.3561 42.6573 22.3083 42.9689C22.3766 42.6821 22.5728 42.0667 22.8111 41.8999Z" fill="#3A6F3F"/>
<path fill-rule="evenodd" clip-rule="evenodd" d="M17.9778 43.6177C19.273 41.236 21.6336 41.4302 22.6519 41.825C22.4916 41.9922 22.3561 42.6573 22.3083 42.9689C20.7459 44.1717 18.6867 44.0513 17.9778 43.6177ZM23.7838 41.616L23.3675 42.1615L22.8111 41.8999C22.5728 42.0667 22.3766 42.6821 22.3083 42.9689C22.2874 43.6635 22.4664 45.7335 23.6544 46.5064C23.6933 46.3704 23.8012 46.1549 23.9355 45.8865C24.2775 45.203 24.7909 44.177 24.7741 43.2507C25.0976 43.3998 26.2335 43.5182 28.1881 42.7992C27.4713 42.1238 25.5869 40.9415 23.7838 41.616ZM24.7741 43.2507C24.7249 42.7478 24.4579 41.7169 23.7838 41.616C24.4057 41.859 24.7031 42.807 24.7741 43.2507Z" fill="#38793F"/>
<path d="M24.7741 43.2507C24.7031 42.807 24.4057 41.859 23.7838 41.616C24.4579 41.7169 24.7249 42.7478 24.7741 43.2507Z" fill="#3A6F3F"/>
<path d="M25.265 41.4305L23.7842 41.6358C23.7842 41.6358 24.2965 41.4674 24.6371 41.4305C24.9777 41.3935 25.265 41.4305 25.265 41.4305Z" fill="#3A6F3F"/>
<path d="M19.0732 41.2538C19.0732 41.2538 22.1184 41.4276 22.635 41.8224C22.635 41.8224 22.6914 41.7227 23.7778 41.6351C24.8643 41.5474 25.9148 40.7181 26.1849 40.2508C25.0109 39.7251 23.8009 40.4826 23.5089 40.8112C22.9394 39.3217 19.0732 41.2538 19.0732 41.2538Z" fill="#38793F"/>
<path d="M23.784 41.6354C23.784 41.6354 23.627 42.0847 23.3794 42.1673C23.0763 42.2684 22.627 41.8231 22.627 41.8231C22.6781 41.0411 22.1065 40.1256 21.6052 39.5029C21.4262 39.2806 21.4328 38.9556 21.6372 38.7566L21.7634 38.6335C21.9184 38.4826 22.1484 38.4532 22.2842 38.6216C22.7807 39.2374 23.4604 40.804 23.784 41.6354Z" fill="#8D7143"/>
<path d="M22.2229 38.5429C22.7153 39.0253 23.4355 40.7366 23.7848 41.6339C23.7848 41.6339 23.7559 41.7166 23.7033 41.8176C23.3718 40.6183 22.6297 38.922 21.9189 38.5331C22.0162 38.471 22.1404 38.4622 22.2229 38.5429Z" fill="#6C5835"/>
<path d="M42.3591 12.6197C42.3591 14.8717 33.0536 14.2049 24.0687 14.2049C15.0838 14.2049 5.77832 14.8717 5.77832 12.6197C5.77832 11.7442 15.0838 12.411 24.0687 12.411C33.0536 12.411 42.3591 11.7442 42.3591 12.6197Z" fill="#AF2225"/>
<path d="M8.91366 17.7628C9.29845 16.6797 9.34055 15.9192 10.9717 15.5932L14.4692 15.3607C16.7577 15.2085 18.7139 16.9876 18.7795 19.2802C19.0812 29.816 19.5335 44.4229 20.1919 52.9095C21.628 71.4209 24.2409 89.4298 18.1064 84.5272C17.6764 84.1836 17.4649 83.6447 17.4319 83.0952C16.8608 73.5966 7.4189 54.6185 7.48768 50.1822C8.55154 41.2458 7.03537 23.0498 8.91366 17.7628Z" fill="white" fill-opacity="0.2"/>
<rect x="13.4453" y="80.918" width="21.111" height="8.69809" rx="1.01088" fill="#F9BE51"/>
<path d="M42.8154 4.88851C42.8154 12.5322 33.2242 10.2689 23.9634 10.2689C14.7025 10.2689 5.11133 12.5322 5.11133 4.88851C5.11133 1.91703 14.7025 4.18036 23.9634 4.18036C33.2242 4.18036 42.8154 1.91703 42.8154 4.88851Z" fill="#DE5356"/>
<rect x="17.1738" y="80.918" width="4.74565" height="8.69809" fill="#FCD18B"/>
<path d="M27.8945 80.918H33.546C34.1043 80.918 34.5569 81.3706 34.5569 81.9288V88.6052C34.5569 89.1635 34.1043 89.6161 33.546 89.6161H27.8945V80.918Z" fill="#E79F1C"/>
<path d="M22.611 41.8177C22.1806 41.7573 21.7369 41.7373 20.5498 41.6597C20.6172 41.6411 21.6199 41.4504 22.611 41.8177Z" fill="#3A6F3F"/>
</svg>
