<svg width="44" height="97" viewBox="0 0 44 97" fill="none" xmlns="http://www.w3.org/2000/svg">
<path d="M34 26.5V7.5C34 7.5 26.9756 9.0973 21.9924 9.0973C17.0092 9.0973 9.98484 7.5 9.98484 7.5V26.5027C9.98484 27.7993 9.56485 29.0609 8.78775 30.0988L4.59127 35.7036C2.25998 38.8172 1 42.6022 1 46.4919V84C1 90.6274 6.37258 96 13 96H31C37.6274 96 43 90.6274 43 84V46.5C43 42.6053 41.7368 38.8157 39.4 35.7L35.2 30.1C34.4211 29.0614 34 27.7982 34 26.5Z" fill="#D6282C" stroke="#D6282C" stroke-width="1.5" stroke-linecap="round"/>
<path d="M8.5 1.5C8.5 1.5 16.5993 3 22 3C27.4007 3 35.5 1.5 35.5 1.5V12.4189C35.5 13.0645 35.0858 13.6319 34.4581 13.783C32.6525 14.2177 28.4998 15 22 15C15.5002 15 11.3475 14.2177 9.54187 13.783C8.91416 13.6319 8.5 13.0645 8.5 12.4189V1.5Z" fill="#F9BE51"/>
<path d="M8.5 1.5C8.5 1.5 11.5 0 22 0C32.5 0 35.5 1.5 35.5 1.5C35.5 1.5 32.5 3 22 3C11.5 3 8.5 1.5 8.5 1.5Z" fill="#E79F1C"/>
<path d="M29.5 4.5L29.5 12" stroke="#E79F1C" stroke-width="1.5" stroke-linecap="round"/>
<path d="M32.5 4.5L32.5 9" stroke="#E79F1C" stroke-width="1.5" stroke-linecap="round"/>
<path d="M4 54C4 49.0294 8.02944 45 13 45H31C35.9706 45 40 49.0294 40 54V71.559C40 73.4032 39.2221 75.1618 37.8575 76.4023L32.8724 80.9342C31.6676 82.0295 30.0978 82.6364 28.4695 82.6364H22H15.5305C13.9022 82.6364 12.3324 82.0295 11.1276 80.9342L6.14251 76.4023C4.77795 75.1618 4 73.4032 4 71.559V54Z" fill="white"/>
<path d="M7.94904 54.2715C7.94904 51.4096 10.269 49.0897 13.1309 49.0897H30.87C33.7318 49.0897 36.0518 51.4096 36.0518 54.2715V70.2116C36.0518 71.5045 35.5064 72.7374 34.5497 73.6071L30.4316 77.3508C29.5869 78.1187 28.4864 78.5442 27.3448 78.5442H22.0004H16.6561C15.5145 78.5442 14.4139 78.1187 13.5692 77.3508L9.45112 73.6071C8.49445 72.7374 7.94904 71.5045 7.94904 70.2116V54.2715Z" stroke="#6DB224" stroke-width="1.63636"/>
<path d="M30.8708 57.6885C30.5479 57.6885 30.2668 57.6263 30.0277 57.5021C29.7886 57.3779 29.603 57.1908 29.471 56.9408C29.3406 56.6908 29.2754 56.3787 29.2754 56.0045C29.2754 55.4098 29.4206 54.9665 29.7109 54.6746C30.0013 54.3811 30.4058 54.2344 30.9244 54.2344C31.4104 54.2344 31.7947 54.378 32.0773 54.6653C32.3599 54.951 32.5012 55.3749 32.5012 55.937C32.5012 56.3345 32.4352 56.6629 32.3032 56.9222C32.1713 57.1799 31.9834 57.3725 31.7396 57.4998C31.4958 57.6256 31.2062 57.6885 30.8708 57.6885ZM30.8848 57.0596C31.1643 57.0596 31.3716 56.9594 31.5067 56.7591C31.6418 56.5588 31.7093 56.2987 31.7093 55.9789C31.7093 55.6078 31.6457 55.3291 31.5183 55.1427C31.391 54.9564 31.186 54.8632 30.9034 54.8632C30.346 54.8632 30.0673 55.2305 30.0673 55.9649C30.0673 56.2925 30.1341 56.5573 30.2676 56.7591C30.4027 56.9594 30.6084 57.0596 30.8848 57.0596Z" fill="#6DB224"/>
<path d="M28.1136 57.5075C28.1136 57.5541 28.1035 57.5867 28.0833 57.6053C28.0647 57.6224 28.0321 57.631 27.9855 57.631H27.4894C27.4428 57.631 27.4094 57.6224 27.3892 57.6053C27.3706 57.5867 27.3613 57.5541 27.3613 57.5075V54.9036H26.6672C26.6299 54.9036 26.602 54.8974 26.5834 54.8849C26.543 54.857 26.5011 54.8236 26.4576 54.7848C26.4157 54.746 26.3699 54.6994 26.3202 54.645C26.3046 54.6249 26.2969 54.6086 26.2969 54.5961C26.2969 54.5822 26.3046 54.5666 26.3202 54.5495C26.3699 54.4952 26.4157 54.4486 26.4576 54.4098C26.5011 54.371 26.543 54.3376 26.5834 54.3096C26.6051 54.2972 26.633 54.291 26.6672 54.291H28.81C28.8473 54.291 28.8752 54.2972 28.8938 54.3096C28.9342 54.3376 28.9761 54.371 29.0196 54.4098C29.0631 54.4486 29.1089 54.4952 29.157 54.5495C29.1726 54.5697 29.1803 54.586 29.1803 54.5985C29.1803 54.6124 29.1726 54.628 29.157 54.645C29.1089 54.6994 29.0631 54.746 29.0196 54.7848C28.9761 54.8236 28.9342 54.857 28.8938 54.8849C28.8721 54.8974 28.8442 54.9036 28.81 54.9036H28.1136V57.5075Z" fill="#6DB224"/>
<path d="M25.5529 54.475C25.6383 54.5946 25.7252 54.7491 25.8137 54.9385C25.9038 55.1264 25.9907 55.3329 26.0746 55.5581C26.1584 55.7832 26.2337 56.0138 26.3005 56.2498C26.3688 56.4843 26.4247 56.7102 26.4682 56.9276C26.5117 57.145 26.5365 57.3383 26.5427 57.5075C26.5443 57.5898 26.507 57.631 26.4309 57.631H25.8673C25.7943 57.631 25.7563 57.5945 25.7532 57.5215C25.747 57.3476 25.719 57.1364 25.6693 56.888H24.3976C24.3542 57.1302 24.3293 57.3414 24.3231 57.5215C24.32 57.5945 24.2804 57.631 24.2043 57.631H23.6523C23.6244 57.631 23.6011 57.6232 23.5824 57.6077C23.5638 57.5906 23.5553 57.5619 23.5568 57.5215C23.5646 57.3491 23.5894 57.1535 23.6314 56.9346C23.6748 56.7141 23.7307 56.4858 23.799 56.2498C23.8674 56.0138 23.9435 55.7832 24.0273 55.5581C24.1111 55.3314 24.1981 55.1241 24.2882 54.9362C24.3782 54.7483 24.466 54.5946 24.5514 54.475C24.5964 54.4114 24.6437 54.3648 24.6934 54.3353C24.7447 54.3058 24.8076 54.291 24.8821 54.291H25.2175C25.2936 54.291 25.3572 54.3058 25.4085 54.3353C25.4597 54.3648 25.5078 54.4114 25.5529 54.475ZM25.0265 55.027C24.924 55.1901 24.8301 55.3849 24.7447 55.6116C24.6593 55.8383 24.5855 56.0712 24.5234 56.3104H25.5342C25.469 56.0712 25.3937 55.8383 25.3083 55.6116C25.2229 55.3849 25.1336 55.1901 25.0405 55.027H25.0265Z" fill="#6DB224"/>
<path d="M21.1411 56.2941C21.1628 56.2102 21.1861 56.1279 21.211 56.0472C21.2374 55.9649 21.2692 55.8733 21.3065 55.7723C21.3391 55.6823 21.3787 55.579 21.4252 55.4626C21.4718 55.3446 21.5207 55.225 21.572 55.1039C21.6248 54.9828 21.676 54.8702 21.7257 54.7662C21.7754 54.6621 21.8204 54.579 21.8608 54.5169C21.9105 54.4409 21.964 54.3842 22.0215 54.3469C22.0805 54.3096 22.1667 54.291 22.28 54.291H22.5851C22.6659 54.291 22.7334 54.3034 22.7878 54.3283C22.8437 54.3516 22.8833 54.4082 22.9066 54.4983C22.9236 54.5651 22.9399 54.6629 22.9555 54.7918C22.971 54.9207 22.9842 55.0992 22.9951 55.3275C23.0059 55.5557 23.0145 55.8492 23.0207 56.2079C23.0269 56.565 23.03 57.0068 23.03 57.5331C23.03 57.5611 23.0207 57.5844 23.0021 57.603C22.9834 57.6217 22.9609 57.631 22.9345 57.631H22.4035C22.3771 57.631 22.3546 57.6217 22.3359 57.603C22.3173 57.5844 22.308 57.5603 22.308 57.5308C22.308 57.1209 22.308 56.7731 22.308 56.4874C22.308 56.2017 22.3072 55.9649 22.3057 55.777C22.3041 55.5891 22.3018 55.44 22.2987 55.3298C22.2971 55.218 22.294 55.1318 22.2893 55.0713H22.2754C22.1931 55.2607 22.1053 55.4719 22.0122 55.7048C21.919 55.9361 21.8282 56.1753 21.7397 56.4222C21.6512 56.6675 21.572 56.9074 21.5021 57.1419C21.4819 57.2117 21.4563 57.2606 21.4252 57.2886C21.3957 57.315 21.3274 57.3282 21.2203 57.3282H20.9524C20.8608 57.3282 20.7995 57.3165 20.7684 57.2932C20.7389 57.27 20.7133 57.2195 20.6916 57.1419C20.6403 56.9648 20.5837 56.7777 20.5216 56.5805C20.4594 56.3833 20.395 56.19 20.3282 56.0006C20.263 55.8096 20.1994 55.6341 20.1372 55.4742C20.0767 55.3127 20.0223 55.1784 19.9742 55.0713H19.9602C19.9478 55.2545 19.9369 55.4773 19.9276 55.7397C19.9183 56.0021 19.9105 56.2871 19.9043 56.5945C19.8997 56.902 19.8966 57.2156 19.895 57.5355C19.895 57.5634 19.8857 57.5867 19.8671 57.6053C19.8484 57.6224 19.8259 57.631 19.7995 57.631H19.3221C19.2957 57.631 19.2731 57.6217 19.2545 57.603C19.2359 57.5844 19.2266 57.5603 19.2266 57.5308C19.2281 56.7032 19.2444 56.0425 19.2755 55.5487C19.3081 55.055 19.343 54.7242 19.3803 54.5565C19.4051 54.4463 19.4486 54.3749 19.5107 54.3423C19.5744 54.3081 19.6466 54.291 19.7273 54.291H20.1046C20.19 54.291 20.2521 54.3065 20.291 54.3376C20.3313 54.3671 20.3803 54.4253 20.4377 54.5123C20.4719 54.5635 20.5122 54.6404 20.5588 54.7429C20.607 54.8453 20.6566 54.9595 20.7079 55.0852C20.7591 55.2095 20.8073 55.3329 20.8523 55.4556C20.8989 55.5767 20.9369 55.6823 20.9664 55.7723C20.9975 55.8639 21.0262 55.9532 21.0526 56.0402C21.079 56.1256 21.1023 56.2102 21.1225 56.2941H21.1411Z" fill="#6DB224"/>
<path d="M17.0349 57.6885C16.7119 57.6885 16.4309 57.6263 16.1918 57.5021C15.9526 57.3779 15.7671 57.1908 15.6351 56.9408C15.5047 56.6908 15.4395 56.3787 15.4395 56.0045C15.4395 55.4098 15.5846 54.9665 15.875 54.6746C16.1654 54.3811 16.5699 54.2344 17.0885 54.2344C17.5745 54.2344 17.9588 54.378 18.2414 54.6653C18.524 54.951 18.6653 55.3749 18.6653 55.937C18.6653 56.3345 18.5993 56.6629 18.4673 56.9222C18.3353 57.1799 18.1474 57.3725 17.9037 57.4998C17.6599 57.6256 17.3703 57.6885 17.0349 57.6885ZM17.0489 57.0596C17.3284 57.0596 17.5357 56.9594 17.6707 56.7591C17.8058 56.5588 17.8734 56.2987 17.8734 55.9789C17.8734 55.6078 17.8097 55.3291 17.6824 55.1427C17.5551 54.9564 17.3501 54.8632 17.0675 54.8632C16.5101 54.8632 16.2314 55.2305 16.2314 55.9649C16.2314 56.2925 16.2981 56.5573 16.4317 56.7591C16.5667 56.9594 16.7725 57.0596 17.0489 57.0596Z" fill="#6DB224"/>
<path d="M14.2796 57.5075C14.2796 57.5541 14.2695 57.5867 14.2493 57.6053C14.2307 57.6224 14.1981 57.631 14.1515 57.631H13.6554C13.6088 57.631 13.5754 57.6224 13.5552 57.6053C13.5366 57.5867 13.5273 57.5541 13.5273 57.5075V54.9036H12.8332C12.796 54.9036 12.768 54.8974 12.7494 54.8849C12.709 54.857 12.6671 54.8236 12.6236 54.7848C12.5817 54.746 12.5359 54.6994 12.4862 54.645C12.4707 54.6249 12.4629 54.6086 12.4629 54.5961C12.4629 54.5822 12.4707 54.5666 12.4862 54.5495C12.5359 54.4952 12.5817 54.4486 12.6236 54.4098C12.6671 54.371 12.709 54.3376 12.7494 54.3096C12.7711 54.2972 12.7991 54.291 12.8332 54.291H14.976C15.0133 54.291 15.0412 54.2972 15.0599 54.3096C15.1002 54.3376 15.1421 54.371 15.1856 54.4098C15.2291 54.4486 15.2749 54.4952 15.323 54.5495C15.3386 54.5697 15.3463 54.586 15.3463 54.5985C15.3463 54.6124 15.3386 54.628 15.323 54.645C15.2749 54.6994 15.2291 54.746 15.1856 54.7848C15.1421 54.8236 15.1002 54.857 15.0599 54.8849C15.0381 54.8974 15.0102 54.9036 14.976 54.9036H14.2796V57.5075Z" fill="#6DB224"/>
<path d="M21.4578 63.6228C20.6695 63.5684 19.7566 63.78 19.0284 64.1066C17.8823 64.6206 16.9912 65.4174 16.509 66.5848C15.797 68.3088 15.658 70.9574 17.245 72.2799C17.8471 72.7816 18.4951 73.0207 19.2137 73.3041C20.2548 73.7147 21.28 73.7264 22.3842 73.721C23.6909 73.7147 24.904 73.3401 26.1415 72.9516C27.081 72.6566 28.1804 72.0093 28.6737 71.1167C28.969 70.5824 29.129 69.8525 29.2193 69.2535C29.3177 68.6013 29.4267 67.694 29.2193 67.0581C29.022 66.453 28.6225 65.9874 28.2105 65.5217C27.8166 65.0765 27.3617 64.6252 26.8054 64.3665C25.7841 63.8915 24.6016 63.5504 23.4702 63.5302C23.0839 63.5233 22.7031 63.4614 22.3147 63.4864L21.4578 63.6228Z" fill="#D6282C" stroke="#D6282C" stroke-width="1.19653" stroke-linecap="round"/>
<path d="M22.5192 62.7754C22.2135 62.6135 21.8987 62.6781 21.5581 62.6521C20.6679 62.5842 20.01 62.337 19.1737 62.8185C18.7989 63.0343 18.4006 63.2731 18.2742 63.7119C18.218 63.9067 18.3989 63.8502 18.536 63.8228C18.8953 63.7509 19.2436 63.6549 19.6081 63.6071L19.6097 63.6069C20.2665 63.5208 20.8586 63.4431 21.4872 63.715C21.6753 63.7963 21.934 63.7999 22.014 64.0199C22.0689 64.171 21.6518 64.2838 21.5735 64.3342C20.9703 64.722 20.5531 65.5747 20.523 66.2749C20.5181 66.3894 20.523 66.5053 20.523 66.62C20.523 66.7893 20.7346 66.3555 20.8434 66.2257C21.2746 65.711 21.7284 65.0704 22.3098 64.7162C22.581 64.5509 22.8755 64.3856 23.1723 64.2725C23.3681 64.198 23.2974 64.4257 23.2678 64.556C23.1268 65.1767 23.2151 65.9993 23.351 66.6107C23.3767 66.7261 23.6194 67.3908 23.6283 66.9095C23.649 65.791 24.0905 64.2233 25.212 63.7242C25.2343 63.6758 25.2738 63.6365 25.3472 63.6071C25.6549 63.4841 25.5447 63.5916 25.2856 63.6934C25.2608 63.7032 25.2363 63.7134 25.212 63.7242C25.1866 63.7795 25.1836 63.8467 25.1778 63.9244C25.1412 64.4193 25.0749 65.0008 25.3041 65.4678C25.3865 65.6356 25.5366 65.755 25.6245 65.9361C25.6899 66.0708 25.6929 66.1405 25.8463 66.0593C25.9471 66.0059 25.9033 65.7976 25.9018 65.7019C25.8866 64.7476 25.775 63.8583 26.1174 62.9263L26.1208 62.9171C26.2073 62.6815 26.287 62.4645 26.4255 62.2517C26.5365 62.081 26.7218 61.8985 26.7828 61.7002C26.8266 61.558 26.7831 61.5 26.6442 61.5C25.896 61.5 25.1761 61.9743 24.6233 62.4273C24.4225 62.5918 24.1984 62.7545 24.0164 62.9417C23.98 62.9792 23.9055 63.124 23.9055 63.1081C23.9055 62.9852 23.7975 62.9414 23.7392 62.8308C23.5744 62.5187 23.4012 61.5822 23.0054 61.537C22.653 61.4967 22.3098 61.4486 21.8532 61.7002C21.8221 61.7219 21.7085 61.8635 21.7085 61.8635C21.9943 61.8483 22.5398 62.384 22.5192 62.7754Z" fill="#6DB224"/>
<path d="M22.5192 62.7754L22.3517 63.0918L22.8474 63.3543L22.8768 62.7942L22.5192 62.7754ZM21.5581 62.6521L21.5854 62.2951L21.5581 62.6521ZM19.1737 62.8185L18.995 62.5082L19.1737 62.8185ZM18.2742 63.7119L18.6183 63.811L18.2742 63.7119ZM18.536 63.8228L18.6062 64.1739L18.536 63.8228ZM19.6081 63.6071L19.5615 63.2521L19.5615 63.2521L19.6081 63.6071ZM21.4872 63.715L21.3451 64.0436L21.4872 63.715ZM22.014 64.0199L21.6775 64.1423L22.014 64.0199ZM21.5735 64.3342L21.7671 64.6354L21.5735 64.3342ZM20.523 66.2749L20.1653 66.2596L20.523 66.2749ZM20.8434 66.2257L20.5689 65.9957L20.8434 66.2257ZM22.3098 64.7162L22.4961 65.0219L22.3098 64.7162ZM23.1723 64.2725L23.0449 63.9379L23.1723 64.2725ZM23.2678 64.556L23.617 64.6353L23.2678 64.556ZM23.351 66.6107L23.7006 66.533L23.351 66.6107ZM23.6283 66.9095L23.9863 66.9162L23.6283 66.9095ZM25.2856 63.6934L25.4166 64.0267L25.4166 64.0267L25.2856 63.6934ZM25.3472 63.6071L25.2143 63.2747L25.2143 63.2747L25.3472 63.6071ZM25.1778 63.9244L25.5349 63.9509V63.9509L25.1778 63.9244ZM25.3041 65.4678L24.9827 65.6256L25.3041 65.4678ZM25.6245 65.9361L25.9466 65.7796L25.6245 65.9361ZM25.8463 66.0593L26.0138 66.3758L25.8463 66.0593ZM25.9018 65.7019L26.2598 65.6963L25.9018 65.7019ZM26.1174 62.9263L26.4535 63.0498L26.4535 63.0498L26.1174 62.9263ZM26.4255 62.2517L26.1253 62.0564L26.1253 62.0564L26.4255 62.2517ZM26.7828 61.7002L26.4406 61.5949V61.5949L26.7828 61.7002ZM24.6233 62.4273L24.3964 62.1503L24.6233 62.4273ZM24.0164 62.9417L23.7597 62.6921L24.0164 62.9417ZM23.7392 62.8308L24.0559 62.6637L23.7392 62.8308ZM23.0054 61.537L22.9647 61.8927L23.0054 61.537ZM21.8532 61.7002L21.6804 61.3866L21.6641 61.3956L21.6488 61.4063L21.8532 61.7002ZM21.7085 61.8635L21.4292 61.6394C21.3408 61.7495 21.3254 61.9013 21.3898 62.0269C21.4542 62.1525 21.5865 62.2286 21.7275 62.2211L21.7085 61.8635ZM19.6097 63.6069L19.6563 63.962L19.6563 63.962L19.6097 63.6069ZM22.6868 62.4589C22.468 62.3431 22.2533 62.3136 22.0682 62.3051C21.9783 62.301 21.8869 62.3016 21.8095 62.3015C21.7283 62.3014 21.6562 62.3005 21.5854 62.2951L21.5308 63.0092C21.6303 63.0168 21.7253 63.0176 21.8084 63.0177C21.8954 63.0178 21.9657 63.0173 22.0353 63.0205C22.1692 63.0267 22.2648 63.0458 22.3517 63.0918L22.6868 62.4589ZM21.5854 62.2951C20.7965 62.2349 19.9572 61.9542 18.995 62.5082L19.3524 63.1288C20.0628 62.7198 20.5392 62.9335 21.5308 63.0092L21.5854 62.2951ZM18.995 62.5082C18.6433 62.7107 18.1027 63.0137 17.9301 63.6127L18.6183 63.811C18.6985 63.5326 18.9545 63.3579 19.3524 63.1288L18.995 62.5082ZM17.9301 63.6127C17.9081 63.6892 17.8789 63.8343 17.954 63.9797C18.0419 64.1497 18.2022 64.1954 18.289 64.2061C18.3715 64.2162 18.4486 64.2045 18.4903 64.1973C18.5299 64.1904 18.59 64.1772 18.6062 64.1739L18.4658 63.4717C18.4135 63.4821 18.3996 63.4862 18.3684 63.4916C18.3394 63.4966 18.3491 63.4919 18.3763 63.4953C18.4077 63.4991 18.5248 63.5242 18.5902 63.6508C18.643 63.7529 18.6122 63.832 18.6183 63.811L17.9301 63.6127ZM18.6062 64.1739C19.0011 64.0949 19.3036 64.0082 19.6546 63.9622L19.5615 63.2521C19.1836 63.3017 18.7896 63.4069 18.4658 63.4717L18.6062 64.1739ZM21.3451 64.0436C21.4152 64.0739 21.4869 64.0949 21.537 64.1096C21.5945 64.1265 21.6294 64.1366 21.6602 64.1487C21.7143 64.17 21.6879 64.1708 21.6775 64.1423L22.3506 63.8976C22.2602 63.649 22.0644 63.5381 21.9221 63.4822C21.8548 63.4557 21.7847 63.4359 21.7383 63.4223C21.6845 63.4066 21.6533 63.3966 21.6294 63.3863L21.3451 64.0436ZM21.6775 64.1423C21.6543 64.0785 21.6567 64.0107 21.6769 63.9542C21.6943 63.9056 21.7196 63.879 21.7262 63.8724C21.736 63.8627 21.7294 63.8717 21.6841 63.8943C21.6446 63.914 21.5992 63.9326 21.5483 63.9533C21.5252 63.9627 21.4979 63.9738 21.474 63.9842C21.4548 63.9926 21.4161 64.0096 21.3799 64.0329L21.7671 64.6354C21.7508 64.6459 21.7484 64.645 21.8179 64.6168C21.8655 64.5975 21.9356 64.5691 22.0033 64.5353C22.0652 64.5045 22.1576 64.4539 22.2326 64.3789C22.3088 64.3027 22.4336 64.1259 22.3506 63.8976L21.6775 64.1423ZM21.3799 64.0329C21.013 64.2688 20.7203 64.6326 20.5163 65.0209C20.3119 65.41 20.1829 65.8495 20.1653 66.2596L20.8808 66.2903C20.8932 66.0002 20.9879 65.6632 21.1503 65.3539C21.3133 65.0438 21.5308 64.7873 21.7671 64.6354L21.3799 64.0329ZM20.1653 66.2596C20.16 66.383 20.1649 66.527 20.1649 66.62H20.8811C20.8811 66.4836 20.8762 66.3958 20.8808 66.2903L20.1653 66.2596ZM20.1649 66.62C20.1649 66.645 20.1665 66.6871 20.1787 66.7346C20.189 66.7743 20.2222 66.8789 20.3306 66.9528C20.4589 67.0403 20.5927 67.0207 20.6661 66.9939C20.731 66.9702 20.775 66.9339 20.7939 66.9173C20.835 66.8812 20.8666 66.8399 20.884 66.8162C20.9049 66.7879 20.9254 66.7571 20.9437 66.7285C20.9778 66.6755 21.0218 66.6026 21.0512 66.5555C21.088 66.4966 21.1092 66.466 21.1179 66.4556L20.5689 65.9957C20.5233 66.0502 20.4772 66.1225 20.4437 66.1762C20.4028 66.2417 20.3736 66.291 20.3411 66.3415C20.3262 66.3647 20.3151 66.381 20.3074 66.3915C20.2962 66.4067 20.3021 66.396 20.3217 66.3788C20.3298 66.3717 20.364 66.3418 20.4204 66.3213C20.4852 66.2976 20.6117 66.2777 20.7341 66.3611C20.8364 66.4309 20.865 66.5276 20.8721 66.5552C20.8812 66.5905 20.8811 66.6161 20.8811 66.62H20.1649ZM21.1179 66.4556C21.3491 66.1797 21.5503 65.9147 21.7873 65.6493C22.0178 65.3913 22.2492 65.1724 22.4961 65.0219L22.1234 64.4104C21.789 64.6142 21.5028 64.8927 21.2532 65.1722C21.0102 65.4443 20.7689 65.757 20.5689 65.9957L21.1179 66.4556ZM22.4961 65.0219C22.7623 64.8597 23.0343 64.7083 23.2998 64.6072L23.0449 63.9379C22.7167 64.0629 22.3998 64.242 22.1234 64.4104L22.4961 65.0219ZM23.2998 64.6072C23.2997 64.6072 23.2987 64.6076 23.2967 64.6082C23.2948 64.6088 23.2918 64.6097 23.2877 64.6106C23.2799 64.6125 23.2662 64.6151 23.2479 64.6158C23.2102 64.6173 23.1476 64.6107 23.083 64.5699C23.0175 64.5286 22.982 64.4724 22.9649 64.4305C22.9493 64.3923 22.9474 64.3631 22.947 64.3548C22.9463 64.3408 22.9484 64.3434 22.9419 64.3757C22.935 64.4097 22.9295 64.4287 22.9187 64.4766L23.617 64.6353C23.6209 64.6181 23.6354 64.5598 23.644 64.5167C23.653 64.4721 23.6661 64.398 23.6623 64.3201C23.6592 64.257 23.6394 64.0742 23.4651 63.9642C23.2957 63.8573 23.1206 63.9091 23.0449 63.9379L23.2998 64.6072ZM22.9187 64.4766C22.76 65.1745 22.8616 66.0589 23.0015 66.6884L23.7006 66.533C23.5687 65.9397 23.4935 65.1789 23.617 64.6353L22.9187 64.4766ZM23.0015 66.6884C23.0215 66.7785 23.1002 67.0046 23.1808 67.154C23.2015 67.1923 23.2321 67.2444 23.2725 67.2911C23.2924 67.3141 23.3265 67.3498 23.3754 67.3804C23.4237 67.4106 23.5166 67.454 23.6365 67.4365C23.7641 67.4178 23.8471 67.3419 23.8913 67.281C23.932 67.225 23.9508 67.1687 23.9603 67.1338C23.9796 67.0629 23.985 66.9854 23.9863 66.9162L23.2702 66.9029C23.2693 66.954 23.2651 66.961 23.2694 66.9455C23.2713 66.9383 23.2813 66.9022 23.3119 66.8601C23.346 66.8132 23.4177 66.7446 23.5331 66.7278C23.6408 66.7121 23.7206 66.7516 23.755 66.7731C23.79 66.795 23.8095 66.8172 23.8143 66.8228C23.8244 66.8345 23.8228 66.8357 23.811 66.8138C23.7898 66.7746 23.7635 66.7131 23.7394 66.6486C23.7279 66.6178 23.7181 66.5894 23.7108 66.5667C23.7025 66.5411 23.7001 66.5308 23.7006 66.533L23.0015 66.6884ZM25.4166 64.0267C25.4925 63.9969 25.5609 63.9653 25.6169 63.9353C25.6447 63.9204 25.6726 63.9042 25.6984 63.8871C25.7174 63.8744 25.7594 63.8458 25.7969 63.8035C25.8091 63.7897 25.8657 63.7268 25.8852 63.6263C25.8969 63.5659 25.8967 63.4821 25.8541 63.3964C25.8121 63.3116 25.7471 63.2621 25.6962 63.2357C25.6101 63.191 25.5302 63.1937 25.5115 63.1942C25.4798 63.195 25.4528 63.1995 25.4353 63.2029C25.3709 63.2155 25.2935 63.243 25.2143 63.2747L25.4802 63.9396C25.5548 63.9098 25.579 63.9046 25.5724 63.9058C25.5693 63.9064 25.554 63.9094 25.5314 63.9101C25.5218 63.9103 25.4484 63.9139 25.3664 63.8714C25.3175 63.846 25.2538 63.7978 25.2126 63.7146C25.1708 63.6304 25.1708 63.5484 25.1821 63.4902C25.2007 63.3939 25.2541 63.3362 25.261 63.3284C25.2877 63.2983 25.3102 63.2852 25.3018 63.2907C25.3002 63.2918 25.2929 63.2964 25.2788 63.304C25.2508 63.319 25.2083 63.339 25.1547 63.3601L25.4166 64.0267ZM24.8207 63.898C24.8032 64.1341 24.7751 64.4277 24.7833 64.7167C24.7916 65.0088 24.8366 65.3281 24.9827 65.6256L25.6256 65.31C25.5424 65.1406 25.5059 64.9356 25.4992 64.6965C25.4923 64.4543 25.5157 64.2096 25.5349 63.9509L24.8207 63.898ZM24.9827 65.6256C25.0443 65.7512 25.1292 65.854 25.1827 65.9208C25.2436 65.9969 25.2783 66.043 25.3024 66.0925L25.9466 65.7796C25.8827 65.6481 25.7984 65.544 25.7418 65.4732C25.6776 65.3931 25.6463 65.3522 25.6256 65.31L24.9827 65.6256ZM25.3024 66.0925C25.3083 66.1047 25.3138 66.1167 25.3204 66.1313C25.3263 66.1443 25.3349 66.1633 25.3437 66.1813C25.3572 66.2088 25.3951 66.2867 25.4692 66.3504C25.5669 66.4343 25.6867 66.4624 25.7993 66.4487C25.8886 66.4379 25.9644 66.4019 26.0138 66.3758L25.6788 65.7428C25.6515 65.7573 25.6695 65.7431 25.713 65.7378C25.7394 65.7346 25.7783 65.7342 25.8233 65.7469C25.8695 65.7599 25.9073 65.7826 25.9356 65.8069C25.9618 65.8294 25.9765 65.8503 25.9823 65.8591C25.9879 65.8677 25.9896 65.8719 25.9867 65.8658C25.9836 65.8597 25.98 65.8518 25.9726 65.8354C25.966 65.8208 25.957 65.8011 25.9466 65.7796L25.3024 66.0925ZM26.0138 66.3758C26.1422 66.3078 26.2058 66.1977 26.2355 66.1133C26.2637 66.0331 26.2693 65.9559 26.2704 65.9038C26.2715 65.8491 26.2677 65.7971 26.2648 65.7616C26.2631 65.74 26.2621 65.7299 26.261 65.7152C26.2605 65.7092 26.2602 65.7046 26.26 65.7011C26.2598 65.6976 26.2598 65.6962 26.2598 65.6963L25.5437 65.7076C25.5441 65.7307 25.5456 65.7531 25.5469 65.7699C25.5481 65.7851 25.55 65.8074 25.551 65.8196C25.5536 65.8518 25.5547 65.8731 25.5544 65.8891C25.554 65.9078 25.5518 65.8986 25.5599 65.8755C25.5696 65.8482 25.6008 65.7841 25.6788 65.7428L26.0138 66.3758ZM26.2598 65.6963C26.2439 64.6929 26.1409 63.9009 26.4535 63.0498L25.7813 62.8028C25.4092 63.8158 25.5293 64.8022 25.5437 65.7076L26.2598 65.6963ZM26.7256 62.4469C26.7747 62.3714 26.8226 62.3184 26.9108 62.1992C26.9829 62.1017 27.0757 61.9659 27.1251 61.8055L26.4406 61.5949C26.4289 61.6329 26.3985 61.6874 26.335 61.7734C26.2874 61.8377 26.1872 61.9613 26.1253 62.0564L26.7256 62.4469ZM27.1251 61.8055C27.1517 61.7189 27.201 61.5196 27.0747 61.3404C26.9439 61.155 26.7339 61.1419 26.6442 61.1419V61.8581C26.6577 61.8581 26.6442 61.86 26.6172 61.8509C26.5859 61.8405 26.5319 61.8135 26.4894 61.7531C26.4476 61.694 26.4412 61.637 26.4411 61.6102C26.441 61.5864 26.4456 61.5786 26.4406 61.5949L27.1251 61.8055ZM26.6442 61.1419C25.7596 61.1419 24.9534 61.6939 24.3964 62.1503L24.8502 62.7043C25.3989 62.2547 26.0323 61.8581 26.6442 61.8581V61.1419ZM24.3964 62.1503C24.2184 62.2961 23.9605 62.4855 23.7597 62.6921L24.2732 63.1913C24.4364 63.0235 24.6266 62.8875 24.8502 62.7043L24.3964 62.1503ZM23.7597 62.6921C23.7237 62.7291 23.6956 62.772 23.6836 62.7904C23.6673 62.8156 23.6514 62.842 23.6397 62.8617C23.6256 62.8854 23.6193 62.896 23.6152 62.9025C23.6106 62.9098 23.6193 62.895 23.6347 62.8766C23.6395 62.8709 23.6503 62.8583 23.6661 62.844C23.6744 62.8364 23.718 62.7957 23.7885 62.7711C23.8279 62.7574 23.8979 62.7409 23.9826 62.7595C24.0759 62.7799 24.148 62.8342 24.1941 62.8968C24.2667 62.9955 24.2636 63.0974 24.2636 63.1081H23.5474C23.5474 63.1197 23.5445 63.2224 23.6174 63.3214C23.6636 63.3842 23.7359 63.4386 23.8294 63.4591C23.9144 63.4777 23.9845 63.4612 24.0242 63.4474C24.0953 63.4226 24.1396 63.3814 24.1487 63.3731C24.1652 63.358 24.177 63.3444 24.1829 63.3375C24.2025 63.3141 24.2173 63.2903 24.2202 63.2857C24.2312 63.2683 24.2459 63.2434 24.2549 63.2282C24.2664 63.209 24.276 63.1932 24.2838 63.1811C24.296 63.1624 24.2909 63.1731 24.2732 63.1913L23.7597 62.6921ZM24.2636 63.1081C24.2636 62.9205 24.172 62.7973 24.1165 62.7322C24.1038 62.7174 24.091 62.7033 24.0828 62.6943C24.0733 62.6838 24.0676 62.6775 24.0627 62.6717C24.0535 62.6609 24.0537 62.6596 24.0559 62.6637L23.4225 62.998C23.4538 63.0573 23.4894 63.103 23.5169 63.1354C23.5303 63.1511 23.5432 63.1654 23.5521 63.1752C23.5623 63.1864 23.5675 63.1922 23.572 63.1975C23.5809 63.2079 23.5732 63.2008 23.5646 63.1828C23.5539 63.1604 23.5474 63.1336 23.5474 63.1081H24.2636ZM24.0559 62.6637C24.0302 62.615 23.9974 62.5266 23.9492 62.3867C23.9053 62.259 23.8519 62.0997 23.7906 61.9489C23.7302 61.8003 23.6525 61.6353 23.55 61.4991C23.4507 61.367 23.2876 61.2088 23.0461 61.1812L22.9647 61.8927C22.9211 61.8877 22.9281 61.8636 22.9777 61.9295C23.0242 61.9914 23.0743 62.0885 23.1272 62.2187C23.1793 62.3467 23.2249 62.4828 23.2721 62.6199C23.3151 62.7448 23.3658 62.8905 23.4225 62.998L24.0559 62.6637ZM23.0461 61.1812C22.6894 61.1404 22.2441 61.0759 21.6804 61.3866L22.0261 62.0138C22.3754 61.8213 22.6166 61.8529 22.9647 61.8927L23.0461 61.1812ZM21.6488 61.4063C21.603 61.4381 21.5638 61.4818 21.5541 61.4923C21.5342 61.5139 21.5135 61.5378 21.496 61.5585C21.4781 61.5796 21.4615 61.5997 21.4496 61.6143C21.4435 61.6217 21.4386 61.6278 21.4351 61.6321C21.4333 61.6343 21.4319 61.636 21.4309 61.6373C21.4304 61.6379 21.43 61.6384 21.4297 61.6387C21.4296 61.6389 21.4295 61.6391 21.4294 61.6392C21.4293 61.6392 21.4293 61.6393 21.4293 61.6393C21.4292 61.6393 21.4292 61.6393 21.4292 61.6394C21.4292 61.6394 21.4292 61.6394 21.4292 61.6394C21.4292 61.6394 21.4292 61.6394 21.7085 61.8635C21.9877 62.0876 21.9877 62.0876 21.9877 62.0876C21.9877 62.0876 21.9877 62.0876 21.9877 62.0877C21.9877 62.0877 21.9877 62.0877 21.9877 62.0877C21.9877 62.0877 21.9877 62.0877 21.9877 62.0877C21.9877 62.0876 21.9878 62.0876 21.9879 62.0875C21.988 62.0873 21.9882 62.087 21.9886 62.0866C21.9893 62.0857 21.9903 62.0844 21.9917 62.0827C21.9946 62.0792 21.9987 62.0741 22.0038 62.0678C22.0141 62.0552 22.0279 62.0385 22.0423 62.0215C22.0571 62.0041 22.0706 61.9886 22.0809 61.9775C22.0861 61.9719 22.0884 61.9696 22.0883 61.9697C22.0881 61.9698 22.0861 61.9718 22.0824 61.975C22.0795 61.9776 22.0708 61.9851 22.0577 61.9942L21.6488 61.4063ZM21.7275 62.2211C21.6945 62.2228 21.7081 62.2121 21.7754 62.2522C21.833 62.2865 21.9017 62.3416 21.9675 62.4118C22.033 62.4818 22.0867 62.5572 22.1214 62.6263C22.1577 62.6986 22.1624 62.7421 22.1617 62.7566L22.8768 62.7942C22.8864 62.613 22.8306 62.4428 22.7615 62.305C22.6907 62.1641 22.594 62.0331 22.4901 61.9222C22.3863 61.8114 22.2663 61.711 22.1418 61.6369C22.0271 61.5686 21.8653 61.4966 21.6895 61.5059L21.7275 62.2211ZM19.6546 63.9622L19.6563 63.962L19.5632 63.2519L19.5615 63.2521L19.6546 63.9622ZM19.6563 63.962C20.3252 63.8742 20.8201 63.8166 21.3451 64.0436L21.6294 63.3863C20.8972 63.0697 20.2078 63.1673 19.5632 63.2519L19.6563 63.962ZM23.9863 66.9162C23.9959 66.3953 24.1044 65.7702 24.3368 65.2249C24.5705 64.6764 24.9105 64.2503 25.3576 64.0514L25.0665 63.397C24.392 63.6972 23.9505 64.3044 23.6779 64.9442C23.404 65.5871 23.2813 66.3052 23.2702 66.9029L23.9863 66.9162ZM25.5373 63.874C25.5292 63.8915 25.5162 63.9102 25.4993 63.9253C25.4839 63.9391 25.474 63.9421 25.4802 63.9396L25.2143 63.2747C25.0703 63.3322 24.9535 63.4295 24.8868 63.5744L25.5373 63.874ZM25.1547 63.3601C25.1249 63.3718 25.0955 63.3841 25.0665 63.397L25.3576 64.0514C25.377 64.0427 25.3967 64.0345 25.4166 64.0267L25.1547 63.3601ZM24.8868 63.5744C24.8276 63.703 24.8242 63.8504 24.8207 63.898L25.5349 63.9509C25.5366 63.9282 25.5375 63.9138 25.5389 63.8975C25.5401 63.8825 25.5412 63.8726 25.5422 63.8653C25.5444 63.8497 25.545 63.8573 25.5373 63.874L24.8868 63.5744ZM26.4535 63.0498L26.4569 63.0405L25.7847 62.7936L25.7813 62.8029L26.4535 63.0498ZM26.4569 63.0405C26.5452 62.8002 26.6125 62.6208 26.7256 62.4469L26.1253 62.0564C25.9615 62.3082 25.8695 62.5627 25.7847 62.7936L26.4569 63.0405ZM26.1174 62.9263C26.4535 63.0498 26.4535 63.0498 26.4535 63.0498C26.4535 63.0498 26.4535 63.0498 26.4535 63.0498C26.4535 63.0498 26.4535 63.0498 26.4535 63.0498C26.4535 63.0498 26.4535 63.0498 26.4535 63.0498C26.4535 63.0498 26.4535 63.0498 26.4535 63.0498C26.4535 63.0497 26.4535 63.0497 26.4536 63.0497C26.4536 63.0497 26.4536 63.0496 26.4536 63.0495C26.4537 63.0493 26.4538 63.0491 26.4539 63.0488C26.4541 63.0481 26.4544 63.0473 26.4548 63.0463C26.4555 63.0444 26.4564 63.0421 26.4569 63.0405L25.7847 62.7936C25.7841 62.7951 25.7833 62.7975 25.7825 62.7994C25.7822 62.8004 25.7819 62.8012 25.7816 62.8019C25.7815 62.8022 25.7814 62.8024 25.7814 62.8026C25.7813 62.8027 25.7813 62.8028 25.7813 62.8028C25.7813 62.8028 25.7813 62.8028 25.7813 62.8029C25.7813 62.8029 25.7813 62.8029 25.7813 62.8029C25.7813 62.8029 25.7813 62.8029 25.7813 62.8029C25.7813 62.8029 25.7813 62.8029 25.7813 62.8029V62.8029C25.7813 62.8029 25.7813 62.8029 26.1174 62.9263Z" fill="#6DB224"/>
<path d="M27.4062 66.0918C27.4062 66.0918 27.6406 66.3173 27.7206 66.448C27.9609 66.8406 28.068 67.3047 28.1152 67.7577C28.1613 68.1998 28.1414 69.104 28.1414 69.104" stroke="white" stroke-width="1.19653" stroke-linecap="round"/>
<path d="M23.2227 62.9825V63.7386" stroke="#4C7A1B" stroke-width="1.19653" stroke-linecap="round"/>
</svg>
